%TF.GenerationSoftware,KiCad,Pcbnew,5.1.8-db9833491~87~ubuntu20.04.1*%
%TF.CreationDate,2020-11-05T18:03:59+01:00*%
%TF.ProjectId,rosalyn-sat,726f7361-6c79-46e2-9d73-61742e6b6963,v1.0*%
%TF.SameCoordinates,Original*%
%TF.FileFunction,Legend,Bot*%
%TF.FilePolarity,Positive*%
%FSLAX46Y46*%
G04 Gerber Fmt 4.6, Leading zero omitted, Abs format (unit mm)*
G04 Created by KiCad (PCBNEW 5.1.8-db9833491~87~ubuntu20.04.1) date 2020-11-05 18:03:59*
%MOMM*%
%LPD*%
G01*
G04 APERTURE LIST*
%ADD10C,0.150000*%
%ADD11C,0.100000*%
%ADD12C,0.125000*%
G04 APERTURE END LIST*
D10*
X139659047Y-101222380D02*
X139659047Y-101936666D01*
X139706666Y-102079523D01*
X139801904Y-102174761D01*
X139944761Y-102222380D01*
X140040000Y-102222380D01*
X138706666Y-102222380D02*
X139182857Y-102222380D01*
X139182857Y-101222380D01*
X137801904Y-102127142D02*
X137849523Y-102174761D01*
X137992380Y-102222380D01*
X138087619Y-102222380D01*
X138230476Y-102174761D01*
X138325714Y-102079523D01*
X138373333Y-101984285D01*
X138420952Y-101793809D01*
X138420952Y-101650952D01*
X138373333Y-101460476D01*
X138325714Y-101365238D01*
X138230476Y-101270000D01*
X138087619Y-101222380D01*
X137992380Y-101222380D01*
X137849523Y-101270000D01*
X137801904Y-101317619D01*
X137087619Y-101222380D02*
X137087619Y-101936666D01*
X137135238Y-102079523D01*
X137230476Y-102174761D01*
X137373333Y-102222380D01*
X137468571Y-102222380D01*
X136135238Y-102222380D02*
X136611428Y-102222380D01*
X136611428Y-101222380D01*
X135230476Y-102127142D02*
X135278095Y-102174761D01*
X135420952Y-102222380D01*
X135516190Y-102222380D01*
X135659047Y-102174761D01*
X135754285Y-102079523D01*
X135801904Y-101984285D01*
X135849523Y-101793809D01*
X135849523Y-101650952D01*
X135801904Y-101460476D01*
X135754285Y-101365238D01*
X135659047Y-101270000D01*
X135516190Y-101222380D01*
X135420952Y-101222380D01*
X135278095Y-101270000D01*
X135230476Y-101317619D01*
X134516190Y-101222380D02*
X134516190Y-101936666D01*
X134563809Y-102079523D01*
X134659047Y-102174761D01*
X134801904Y-102222380D01*
X134897142Y-102222380D01*
X133563809Y-102222380D02*
X134040000Y-102222380D01*
X134040000Y-101222380D01*
X132659047Y-102127142D02*
X132706666Y-102174761D01*
X132849523Y-102222380D01*
X132944761Y-102222380D01*
X133087619Y-102174761D01*
X133182857Y-102079523D01*
X133230476Y-101984285D01*
X133278095Y-101793809D01*
X133278095Y-101650952D01*
X133230476Y-101460476D01*
X133182857Y-101365238D01*
X133087619Y-101270000D01*
X132944761Y-101222380D01*
X132849523Y-101222380D01*
X132706666Y-101270000D01*
X132659047Y-101317619D01*
X131944761Y-101222380D02*
X131944761Y-101936666D01*
X131992380Y-102079523D01*
X132087619Y-102174761D01*
X132230476Y-102222380D01*
X132325714Y-102222380D01*
X130992380Y-102222380D02*
X131468571Y-102222380D01*
X131468571Y-101222380D01*
X130087619Y-102127142D02*
X130135238Y-102174761D01*
X130278095Y-102222380D01*
X130373333Y-102222380D01*
X130516190Y-102174761D01*
X130611428Y-102079523D01*
X130659047Y-101984285D01*
X130706666Y-101793809D01*
X130706666Y-101650952D01*
X130659047Y-101460476D01*
X130611428Y-101365238D01*
X130516190Y-101270000D01*
X130373333Y-101222380D01*
X130278095Y-101222380D01*
X130135238Y-101270000D01*
X130087619Y-101317619D01*
D11*
X127169047Y-102690476D02*
X127435714Y-102690476D01*
X127359523Y-102690476D02*
X127397619Y-102671428D01*
X127416666Y-102652380D01*
X127435714Y-102614285D01*
X127435714Y-102576190D01*
X127169047Y-102480952D02*
X127435714Y-102271428D01*
X127435714Y-102480952D02*
X127169047Y-102271428D01*
X127345714Y-101748095D02*
X127345714Y-101595714D01*
X127479047Y-101690952D02*
X127136190Y-101690952D01*
X127098095Y-101671904D01*
X127079047Y-101633809D01*
X127079047Y-101595714D01*
X127079047Y-101500476D02*
X127345714Y-101290952D01*
X127345714Y-101500476D02*
X127079047Y-101290952D01*
X127278571Y-100307619D02*
X127278571Y-100612380D01*
X127432380Y-99528571D02*
X127127619Y-99528571D01*
X127280000Y-99680952D02*
X127280000Y-99376190D01*
D12*
X125607142Y-103146666D02*
X125273809Y-103051428D01*
X125511904Y-102956190D01*
X125273809Y-102860952D01*
X125607142Y-102765714D01*
X125607142Y-102622857D02*
X125273809Y-102527619D01*
X125511904Y-102432380D01*
X125273809Y-102337142D01*
X125607142Y-102241904D01*
X125607142Y-102099047D02*
X125273809Y-102003809D01*
X125511904Y-101908571D01*
X125273809Y-101813333D01*
X125607142Y-101718095D01*
X125321428Y-101527619D02*
X125297619Y-101503809D01*
X125273809Y-101527619D01*
X125297619Y-101551428D01*
X125321428Y-101527619D01*
X125273809Y-101527619D01*
X125726190Y-101313333D02*
X125750000Y-101289523D01*
X125773809Y-101241904D01*
X125773809Y-101122857D01*
X125750000Y-101075238D01*
X125726190Y-101051428D01*
X125678571Y-101027619D01*
X125630952Y-101027619D01*
X125559523Y-101051428D01*
X125273809Y-101337142D01*
X125273809Y-101027619D01*
X125464285Y-100813333D02*
X125464285Y-100432380D01*
X125773809Y-100099047D02*
X125773809Y-100051428D01*
X125750000Y-100003809D01*
X125726190Y-99980000D01*
X125678571Y-99956190D01*
X125583333Y-99932380D01*
X125464285Y-99932380D01*
X125369047Y-99956190D01*
X125321428Y-99980000D01*
X125297619Y-100003809D01*
X125273809Y-100051428D01*
X125273809Y-100099047D01*
X125297619Y-100146666D01*
X125321428Y-100170476D01*
X125369047Y-100194285D01*
X125464285Y-100218095D01*
X125583333Y-100218095D01*
X125678571Y-100194285D01*
X125726190Y-100170476D01*
X125750000Y-100146666D01*
X125773809Y-100099047D01*
X125321428Y-99718095D02*
X125297619Y-99694285D01*
X125273809Y-99718095D01*
X125297619Y-99741904D01*
X125321428Y-99718095D01*
X125273809Y-99718095D01*
X125273809Y-99265714D02*
X125773809Y-99265714D01*
X125297619Y-99265714D02*
X125273809Y-99313333D01*
X125273809Y-99408571D01*
X125297619Y-99456190D01*
X125321428Y-99480000D01*
X125369047Y-99503809D01*
X125511904Y-99503809D01*
X125559523Y-99480000D01*
X125583333Y-99456190D01*
X125607142Y-99408571D01*
X125607142Y-99313333D01*
X125583333Y-99265714D01*
X125273809Y-99027619D02*
X125773809Y-99027619D01*
X125464285Y-98980000D02*
X125273809Y-98837142D01*
X125607142Y-98837142D02*
X125416666Y-99027619D01*
X126273809Y-103666666D02*
X126511904Y-103833333D01*
X126273809Y-103952380D02*
X126773809Y-103952380D01*
X126773809Y-103761904D01*
X126750000Y-103714285D01*
X126726190Y-103690476D01*
X126678571Y-103666666D01*
X126607142Y-103666666D01*
X126559523Y-103690476D01*
X126535714Y-103714285D01*
X126511904Y-103761904D01*
X126511904Y-103952380D01*
X126273809Y-103380952D02*
X126297619Y-103428571D01*
X126321428Y-103452380D01*
X126369047Y-103476190D01*
X126511904Y-103476190D01*
X126559523Y-103452380D01*
X126583333Y-103428571D01*
X126607142Y-103380952D01*
X126607142Y-103309523D01*
X126583333Y-103261904D01*
X126559523Y-103238095D01*
X126511904Y-103214285D01*
X126369047Y-103214285D01*
X126321428Y-103238095D01*
X126297619Y-103261904D01*
X126273809Y-103309523D01*
X126273809Y-103380952D01*
X126297619Y-103023809D02*
X126273809Y-102976190D01*
X126273809Y-102880952D01*
X126297619Y-102833333D01*
X126345238Y-102809523D01*
X126369047Y-102809523D01*
X126416666Y-102833333D01*
X126440476Y-102880952D01*
X126440476Y-102952380D01*
X126464285Y-103000000D01*
X126511904Y-103023809D01*
X126535714Y-103023809D01*
X126583333Y-103000000D01*
X126607142Y-102952380D01*
X126607142Y-102880952D01*
X126583333Y-102833333D01*
X126273809Y-102380952D02*
X126535714Y-102380952D01*
X126583333Y-102404761D01*
X126607142Y-102452380D01*
X126607142Y-102547619D01*
X126583333Y-102595238D01*
X126297619Y-102380952D02*
X126273809Y-102428571D01*
X126273809Y-102547619D01*
X126297619Y-102595238D01*
X126345238Y-102619047D01*
X126392857Y-102619047D01*
X126440476Y-102595238D01*
X126464285Y-102547619D01*
X126464285Y-102428571D01*
X126488095Y-102380952D01*
X126273809Y-102071428D02*
X126297619Y-102119047D01*
X126345238Y-102142857D01*
X126773809Y-102142857D01*
X126607142Y-101928571D02*
X126273809Y-101809523D01*
X126607142Y-101690476D02*
X126273809Y-101809523D01*
X126154761Y-101857142D01*
X126130952Y-101880952D01*
X126107142Y-101928571D01*
X126607142Y-101500000D02*
X126273809Y-101500000D01*
X126559523Y-101500000D02*
X126583333Y-101476190D01*
X126607142Y-101428571D01*
X126607142Y-101357142D01*
X126583333Y-101309523D01*
X126535714Y-101285714D01*
X126273809Y-101285714D01*
X126297619Y-101071428D02*
X126273809Y-101000000D01*
X126273809Y-100880952D01*
X126297619Y-100833333D01*
X126321428Y-100809523D01*
X126369047Y-100785714D01*
X126416666Y-100785714D01*
X126464285Y-100809523D01*
X126488095Y-100833333D01*
X126511904Y-100880952D01*
X126535714Y-100976190D01*
X126559523Y-101023809D01*
X126583333Y-101047619D01*
X126630952Y-101071428D01*
X126678571Y-101071428D01*
X126726190Y-101047619D01*
X126750000Y-101023809D01*
X126773809Y-100976190D01*
X126773809Y-100857142D01*
X126750000Y-100785714D01*
X126416666Y-100595238D02*
X126416666Y-100357142D01*
X126273809Y-100642857D02*
X126773809Y-100476190D01*
X126273809Y-100309523D01*
X126773809Y-100214285D02*
X126773809Y-99928571D01*
X126273809Y-100071428D02*
X126773809Y-100071428D01*
X126607142Y-99428571D02*
X126273809Y-99309523D01*
X126607142Y-99190476D01*
X126273809Y-98738095D02*
X126273809Y-99023809D01*
X126273809Y-98880952D02*
X126773809Y-98880952D01*
X126702380Y-98928571D01*
X126654761Y-98976190D01*
X126630952Y-99023809D01*
X126321428Y-98523809D02*
X126297619Y-98500000D01*
X126273809Y-98523809D01*
X126297619Y-98547619D01*
X126321428Y-98523809D01*
X126273809Y-98523809D01*
X126773809Y-98190476D02*
X126773809Y-98142857D01*
X126750000Y-98095238D01*
X126726190Y-98071428D01*
X126678571Y-98047619D01*
X126583333Y-98023809D01*
X126464285Y-98023809D01*
X126369047Y-98047619D01*
X126321428Y-98071428D01*
X126297619Y-98095238D01*
X126273809Y-98142857D01*
X126273809Y-98190476D01*
X126297619Y-98238095D01*
X126321428Y-98261904D01*
X126369047Y-98285714D01*
X126464285Y-98309523D01*
X126583333Y-98309523D01*
X126678571Y-98285714D01*
X126726190Y-98261904D01*
X126750000Y-98238095D01*
X126773809Y-98190476D01*
D10*
%TO.C,U2*%
X147164214Y-97550000D02*
G75*
G03*
X147164214Y-97550000I-1414214J0D01*
G01*
X143050000Y-96000000D02*
X129000000Y-96000000D01*
X143050000Y-100000000D02*
X143050000Y-96000000D01*
X147750000Y-100000000D02*
X143050000Y-100000000D01*
X147750000Y-106000000D02*
X147750000Y-100000000D01*
X129000000Y-106000000D02*
X147750000Y-106000000D01*
X129000000Y-96000000D02*
X129000000Y-106000000D01*
X127600000Y-93650000D02*
X127600000Y-108350000D01*
X148300000Y-93650000D02*
X127600000Y-93650000D01*
X148300000Y-108350000D02*
X148300000Y-93650000D01*
X127600000Y-108350000D02*
X148300000Y-108350000D01*
D12*
X135310952Y-97136190D02*
X135310952Y-97540952D01*
X135287142Y-97588571D01*
X135263333Y-97612380D01*
X135215714Y-97636190D01*
X135120476Y-97636190D01*
X135072857Y-97612380D01*
X135049047Y-97588571D01*
X135025238Y-97540952D01*
X135025238Y-97136190D01*
X134810952Y-97183809D02*
X134787142Y-97160000D01*
X134739523Y-97136190D01*
X134620476Y-97136190D01*
X134572857Y-97160000D01*
X134549047Y-97183809D01*
X134525238Y-97231428D01*
X134525238Y-97279047D01*
X134549047Y-97350476D01*
X134834761Y-97636190D01*
X134525238Y-97636190D01*
%TD*%
M02*
