%TF.GenerationSoftware,KiCad,Pcbnew,5.1.8-db9833491~87~ubuntu20.04.1*%
%TF.CreationDate,2020-11-05T18:03:59+01:00*%
%TF.ProjectId,rosalyn-sat,726f7361-6c79-46e2-9d73-61742e6b6963,v1.0*%
%TF.SameCoordinates,Original*%
%TF.FileFunction,Copper,L4,Bot*%
%TF.FilePolarity,Positive*%
%FSLAX46Y46*%
G04 Gerber Fmt 4.6, Leading zero omitted, Abs format (unit mm)*
G04 Created by KiCad (PCBNEW 5.1.8-db9833491~87~ubuntu20.04.1) date 2020-11-05 18:03:59*
%MOMM*%
%LPD*%
G01*
G04 APERTURE LIST*
%TA.AperFunction,SMDPad,CuDef*%
%ADD10R,0.750000X1.500000*%
%TD*%
%TA.AperFunction,ComponentPad*%
%ADD11R,0.850000X0.650000*%
%TD*%
%TA.AperFunction,ViaPad*%
%ADD12C,0.600000*%
%TD*%
%TA.AperFunction,ViaPad*%
%ADD13C,0.800000*%
%TD*%
%TA.AperFunction,Conductor*%
%ADD14C,0.200000*%
%TD*%
%TA.AperFunction,Conductor*%
%ADD15C,0.500000*%
%TD*%
G04 APERTURE END LIST*
D10*
%TO.P,U2,22*%
%TO.N,GND*%
X147000000Y-94500000D03*
%TO.P,U2,21*%
%TO.N,N/C*%
X145730000Y-94500000D03*
%TO.P,U2,20*%
%TO.N,GND*%
X144460000Y-94500000D03*
%TO.P,U2,19*%
%TO.N,Net-(R1-Pad1)*%
X138890000Y-94500000D03*
%TO.P,U2,18*%
%TO.N,Net-(R2-Pad1)*%
X137620000Y-94500000D03*
%TO.P,U2,17*%
%TO.N,Net-(R4-Pad1)*%
X136350000Y-94500000D03*
%TO.P,U2,16*%
%TO.N,Net-(R3-Pad1)*%
X135080000Y-94500000D03*
%TO.P,U2,15*%
%TO.N,Net-(R10-Pad2)*%
X133810000Y-94500000D03*
%TO.P,U2,14*%
%TO.N,Net-(R9-Pad2)*%
X132540000Y-94500000D03*
%TO.P,U2,13*%
%TO.N,Net-(R7-Pad2)*%
X131270000Y-94500000D03*
%TO.P,U2,12*%
%TO.N,GND*%
X130000000Y-94500000D03*
%TO.P,U2,11*%
X130000000Y-107500000D03*
%TO.P,U2,10*%
X131270000Y-107500000D03*
%TO.P,U2,9*%
%TO.N,+3V3*%
X132540000Y-107500000D03*
%TO.P,U2,8*%
%TO.N,Net-(R8-Pad2)*%
X133810000Y-107500000D03*
%TO.P,U2,7*%
%TO.N,Net-(R6-Pad2)*%
X135080000Y-107500000D03*
%TO.P,U2,6*%
%TO.N,Net-(R5-Pad2)*%
X136350000Y-107500000D03*
%TO.P,U2,5*%
%TO.N,GND*%
X137620000Y-107500000D03*
%TO.P,U2,4*%
X138890000Y-107500000D03*
%TO.P,U2,3*%
X144460000Y-107500000D03*
%TO.P,U2,2*%
X145730000Y-107500000D03*
%TO.P,U2,1*%
X147000000Y-107500000D03*
%TD*%
%TO.P,J1,4*%
%TO.N,hmi_error*%
%TA.AperFunction,ComponentPad*%
G36*
G01*
X142255000Y-94337500D02*
X142255000Y-94662500D01*
G75*
G02*
X142092500Y-94825000I-162500J0D01*
G01*
X141567500Y-94825000D01*
G75*
G02*
X141405000Y-94662500I0J162500D01*
G01*
X141405000Y-94337500D01*
G75*
G02*
X141567500Y-94175000I162500J0D01*
G01*
X142092500Y-94175000D01*
G75*
G02*
X142255000Y-94337500I0J-162500D01*
G01*
G37*
%TD.AperFunction*%
%TO.P,J1,3*%
%TO.N,nrst*%
%TA.AperFunction,ComponentPad*%
G36*
G01*
X142255000Y-95337500D02*
X142255000Y-95662500D01*
G75*
G02*
X142092500Y-95825000I-162500J0D01*
G01*
X141567500Y-95825000D01*
G75*
G02*
X141405000Y-95662500I0J162500D01*
G01*
X141405000Y-95337500D01*
G75*
G02*
X141567500Y-95175000I162500J0D01*
G01*
X142092500Y-95175000D01*
G75*
G02*
X142255000Y-95337500I0J-162500D01*
G01*
G37*
%TD.AperFunction*%
%TO.P,J1,2*%
%TO.N,GND*%
%TA.AperFunction,ComponentPad*%
G36*
G01*
X142255000Y-96337500D02*
X142255000Y-96662500D01*
G75*
G02*
X142092500Y-96825000I-162500J0D01*
G01*
X141567500Y-96825000D01*
G75*
G02*
X141405000Y-96662500I0J162500D01*
G01*
X141405000Y-96337500D01*
G75*
G02*
X141567500Y-96175000I162500J0D01*
G01*
X142092500Y-96175000D01*
G75*
G02*
X142255000Y-96337500I0J-162500D01*
G01*
G37*
%TD.AperFunction*%
D11*
%TO.P,J1,1*%
%TO.N,+5V*%
X141830000Y-97500000D03*
%TD*%
D12*
%TO.N,GND*%
X135970000Y-102619992D03*
X130000000Y-95750000D03*
X138890000Y-106249996D03*
X137620000Y-106260000D03*
X144460000Y-106250000D03*
X147000000Y-106250000D03*
X145730000Y-106250000D03*
X147000000Y-95750000D03*
X144460000Y-95750000D03*
X130990000Y-106240000D03*
X143050000Y-103760000D03*
X139254272Y-97764272D03*
X130000000Y-106250000D03*
X144950000Y-100049994D03*
X139240000Y-104200000D03*
X131280000Y-100500002D03*
X139950000Y-97730000D03*
X141050002Y-100050000D03*
%TO.N,+3V3*%
X132540000Y-106250000D03*
X142270006Y-102960000D03*
%TO.N,nrst*%
X134044265Y-102624265D03*
%TO.N,+5V*%
X140220000Y-101700000D03*
X125780000Y-107090000D03*
X145950000Y-104979998D03*
X131260006Y-99500000D03*
D13*
X125680000Y-94900000D03*
D12*
%TO.N,Net-(R1-Pad1)*%
X138890000Y-95750000D03*
%TO.N,Net-(R2-Pad1)*%
X137620000Y-95750000D03*
%TO.N,Net-(R3-Pad1)*%
X135080000Y-95750000D03*
%TO.N,Net-(R4-Pad1)*%
X136350000Y-95750000D03*
%TO.N,Net-(R5-Pad2)*%
X136350000Y-106249992D03*
%TO.N,Net-(R6-Pad2)*%
X135080000Y-106250000D03*
%TO.N,Net-(R7-Pad2)*%
X131270000Y-95750000D03*
%TO.N,Net-(R8-Pad2)*%
X133800000Y-106260000D03*
%TO.N,Net-(R9-Pad2)*%
X132540000Y-95759979D03*
%TO.N,Net-(R10-Pad2)*%
X133810000Y-95750000D03*
%TO.N,hmi_status*%
X136620000Y-99380000D03*
X128320000Y-104650000D03*
%TO.N,hmi_error*%
X133370000Y-99380000D03*
X129230000Y-96370000D03*
%TD*%
D14*
%TO.N,GND*%
X130000000Y-107500000D02*
X131270000Y-107500000D01*
X138890000Y-107500000D02*
X138890000Y-106249996D01*
D15*
X137620000Y-107500000D02*
X137620000Y-106260000D01*
X144460000Y-107500000D02*
X144460000Y-106250000D01*
X147000000Y-107500000D02*
X147000000Y-106250000D01*
X145730000Y-107500000D02*
X145730000Y-106250000D01*
X147000000Y-94500000D02*
X147000000Y-95750000D01*
X144460000Y-94500000D02*
X144460000Y-95750000D01*
X131270000Y-106520000D02*
X130990000Y-106240000D01*
X131270000Y-107500000D02*
X131270000Y-106520000D01*
X130000000Y-107500000D02*
X130000000Y-106250000D01*
X130000000Y-94500000D02*
X130000000Y-95750000D01*
%TO.N,+3V3*%
X132540000Y-107500000D02*
X132540000Y-106250000D01*
X139860006Y-105370000D02*
X142270006Y-102960000D01*
X133420000Y-105370000D02*
X139860006Y-105370000D01*
X132540000Y-106250000D02*
X133420000Y-105370000D01*
D14*
%TO.N,nrst*%
X139329989Y-97100011D02*
X140930000Y-95500000D01*
X136429989Y-97100011D02*
X139329989Y-97100011D01*
X134044265Y-99485735D02*
X136429989Y-97100011D01*
X140930000Y-95500000D02*
X141830000Y-95500000D01*
X134044265Y-102624265D02*
X134044265Y-99485735D01*
%TO.N,Net-(R1-Pad1)*%
X138890000Y-94500000D02*
X138890000Y-95750000D01*
%TO.N,Net-(R2-Pad1)*%
X137620000Y-94500000D02*
X137620000Y-95750000D01*
%TO.N,Net-(R3-Pad1)*%
X135080000Y-95750000D02*
X135080000Y-94500000D01*
%TO.N,Net-(R4-Pad1)*%
X136350000Y-94500000D02*
X136350000Y-95750000D01*
%TO.N,Net-(R5-Pad2)*%
X136350000Y-107500000D02*
X136350000Y-106249992D01*
%TO.N,Net-(R6-Pad2)*%
X135080000Y-107500000D02*
X135080000Y-106250000D01*
%TO.N,Net-(R7-Pad2)*%
X131270000Y-94500000D02*
X131270000Y-95750000D01*
%TO.N,Net-(R8-Pad2)*%
X133810000Y-106270000D02*
X133800000Y-106260000D01*
X133810000Y-107500000D02*
X133810000Y-106270000D01*
%TO.N,Net-(R9-Pad2)*%
X132540000Y-94500000D02*
X132540000Y-95759979D01*
%TO.N,Net-(R10-Pad2)*%
X133810000Y-94500000D02*
X133810000Y-95750000D01*
%TO.N,hmi_status*%
X133540000Y-104650000D02*
X128320000Y-104650000D01*
X135000000Y-103190000D02*
X133540000Y-104650000D01*
X135000000Y-101000000D02*
X135000000Y-103190000D01*
X136620000Y-99380000D02*
X135000000Y-101000000D01*
%TO.N,hmi_error*%
X130360000Y-96370000D02*
X133370000Y-99380000D01*
X129230000Y-96370000D02*
X130360000Y-96370000D01*
X141080000Y-94500000D02*
X141830000Y-94500000D01*
X138880000Y-96700000D02*
X141080000Y-94500000D01*
X136050000Y-96700000D02*
X138880000Y-96700000D01*
X133370000Y-99380000D02*
X136050000Y-96700000D01*
%TD*%
M02*
