%TF.GenerationSoftware,KiCad,Pcbnew,5.1.8-db9833491~87~ubuntu20.04.1*%
%TF.CreationDate,2020-11-23T16:47:10+01:00*%
%TF.ProjectId,rosalyn-sat,726f7361-6c79-46e2-9d73-61742e6b6963,v1.0*%
%TF.SameCoordinates,Original*%
%TF.FileFunction,Legend,Top*%
%TF.FilePolarity,Positive*%
%FSLAX46Y46*%
G04 Gerber Fmt 4.6, Leading zero omitted, Abs format (unit mm)*
G04 Created by KiCad (PCBNEW 5.1.8-db9833491~87~ubuntu20.04.1) date 2020-11-23 16:47:10*
%MOMM*%
%LPD*%
G01*
G04 APERTURE LIST*
%ADD10C,0.062500*%
%ADD11C,0.125000*%
%ADD12C,0.120000*%
%ADD13C,0.100000*%
G04 APERTURE END LIST*
D10*
X151060238Y-93018809D02*
X151036428Y-93006904D01*
X150988809Y-93006904D01*
X150965000Y-93018809D01*
X150953095Y-93042619D01*
X150953095Y-93054523D01*
X150965000Y-93078333D01*
X150988809Y-93090238D01*
X151024523Y-93090238D01*
X151048333Y-93102142D01*
X151060238Y-93125952D01*
X151060238Y-93137857D01*
X151048333Y-93161666D01*
X151024523Y-93173571D01*
X150988809Y-93173571D01*
X150965000Y-93161666D01*
X150869761Y-93173571D02*
X150822142Y-93006904D01*
X150774523Y-93125952D01*
X150726904Y-93006904D01*
X150679285Y-93173571D01*
X150476904Y-93006904D02*
X150476904Y-93256904D01*
X150476904Y-93018809D02*
X150500714Y-93006904D01*
X150548333Y-93006904D01*
X150572142Y-93018809D01*
X150584047Y-93030714D01*
X150595952Y-93054523D01*
X150595952Y-93125952D01*
X150584047Y-93149761D01*
X150572142Y-93161666D01*
X150548333Y-93173571D01*
X150500714Y-93173571D01*
X150476904Y-93161666D01*
X150357857Y-93006904D02*
X150357857Y-93173571D01*
X150357857Y-93256904D02*
X150369761Y-93245000D01*
X150357857Y-93233095D01*
X150345952Y-93245000D01*
X150357857Y-93256904D01*
X150357857Y-93233095D01*
X150203095Y-93006904D02*
X150226904Y-93018809D01*
X150238809Y-93030714D01*
X150250714Y-93054523D01*
X150250714Y-93125952D01*
X150238809Y-93149761D01*
X150226904Y-93161666D01*
X150203095Y-93173571D01*
X150167380Y-93173571D01*
X150143571Y-93161666D01*
X150131666Y-93149761D01*
X150119761Y-93125952D01*
X150119761Y-93054523D01*
X150131666Y-93030714D01*
X150143571Y-93018809D01*
X150167380Y-93006904D01*
X150203095Y-93006904D01*
X144602619Y-93183571D02*
X144602619Y-92981190D01*
X144614523Y-92957380D01*
X144626428Y-92945476D01*
X144650238Y-92933571D01*
X144685952Y-92933571D01*
X144709761Y-92945476D01*
X144602619Y-93028809D02*
X144626428Y-93016904D01*
X144674047Y-93016904D01*
X144697857Y-93028809D01*
X144709761Y-93040714D01*
X144721666Y-93064523D01*
X144721666Y-93135952D01*
X144709761Y-93159761D01*
X144697857Y-93171666D01*
X144674047Y-93183571D01*
X144626428Y-93183571D01*
X144602619Y-93171666D01*
X144483571Y-93183571D02*
X144483571Y-93016904D01*
X144483571Y-93159761D02*
X144471666Y-93171666D01*
X144447857Y-93183571D01*
X144412142Y-93183571D01*
X144388333Y-93171666D01*
X144376428Y-93147857D01*
X144376428Y-93016904D01*
X144150238Y-93016904D02*
X144150238Y-93266904D01*
X144150238Y-93028809D02*
X144174047Y-93016904D01*
X144221666Y-93016904D01*
X144245476Y-93028809D01*
X144257380Y-93040714D01*
X144269285Y-93064523D01*
X144269285Y-93135952D01*
X144257380Y-93159761D01*
X144245476Y-93171666D01*
X144221666Y-93183571D01*
X144174047Y-93183571D01*
X144150238Y-93171666D01*
X148178333Y-93028809D02*
X148154523Y-93016904D01*
X148106904Y-93016904D01*
X148083095Y-93028809D01*
X148071190Y-93052619D01*
X148071190Y-93064523D01*
X148083095Y-93088333D01*
X148106904Y-93100238D01*
X148142619Y-93100238D01*
X148166428Y-93112142D01*
X148178333Y-93135952D01*
X148178333Y-93147857D01*
X148166428Y-93171666D01*
X148142619Y-93183571D01*
X148106904Y-93183571D01*
X148083095Y-93171666D01*
X147987857Y-93183571D02*
X147940238Y-93016904D01*
X147892619Y-93135952D01*
X147845000Y-93016904D01*
X147797380Y-93183571D01*
X147595000Y-93028809D02*
X147618809Y-93016904D01*
X147666428Y-93016904D01*
X147690238Y-93028809D01*
X147702142Y-93040714D01*
X147714047Y-93064523D01*
X147714047Y-93135952D01*
X147702142Y-93159761D01*
X147690238Y-93171666D01*
X147666428Y-93183571D01*
X147618809Y-93183571D01*
X147595000Y-93171666D01*
X147452142Y-93016904D02*
X147475952Y-93028809D01*
X147487857Y-93052619D01*
X147487857Y-93266904D01*
X147356904Y-93016904D02*
X147356904Y-93266904D01*
X147333095Y-93112142D02*
X147261666Y-93016904D01*
X147261666Y-93183571D02*
X147356904Y-93088333D01*
D11*
X159752857Y-102106666D02*
X160086190Y-102011428D01*
X159848095Y-101916190D01*
X160086190Y-101820952D01*
X159752857Y-101725714D01*
X159752857Y-101582857D02*
X160086190Y-101487619D01*
X159848095Y-101392380D01*
X160086190Y-101297142D01*
X159752857Y-101201904D01*
X159752857Y-101059047D02*
X160086190Y-100963809D01*
X159848095Y-100868571D01*
X160086190Y-100773333D01*
X159752857Y-100678095D01*
X160038571Y-100487619D02*
X160062380Y-100463809D01*
X160086190Y-100487619D01*
X160062380Y-100511428D01*
X160038571Y-100487619D01*
X160086190Y-100487619D01*
X159633809Y-100273333D02*
X159610000Y-100249523D01*
X159586190Y-100201904D01*
X159586190Y-100082857D01*
X159610000Y-100035238D01*
X159633809Y-100011428D01*
X159681428Y-99987619D01*
X159729047Y-99987619D01*
X159800476Y-100011428D01*
X160086190Y-100297142D01*
X160086190Y-99987619D01*
X159895714Y-99773333D02*
X159895714Y-99392380D01*
X159586190Y-99059047D02*
X159586190Y-99011428D01*
X159610000Y-98963809D01*
X159633809Y-98940000D01*
X159681428Y-98916190D01*
X159776666Y-98892380D01*
X159895714Y-98892380D01*
X159990952Y-98916190D01*
X160038571Y-98940000D01*
X160062380Y-98963809D01*
X160086190Y-99011428D01*
X160086190Y-99059047D01*
X160062380Y-99106666D01*
X160038571Y-99130476D01*
X159990952Y-99154285D01*
X159895714Y-99178095D01*
X159776666Y-99178095D01*
X159681428Y-99154285D01*
X159633809Y-99130476D01*
X159610000Y-99106666D01*
X159586190Y-99059047D01*
X160038571Y-98678095D02*
X160062380Y-98654285D01*
X160086190Y-98678095D01*
X160062380Y-98701904D01*
X160038571Y-98678095D01*
X160086190Y-98678095D01*
X160086190Y-98225714D02*
X159586190Y-98225714D01*
X160062380Y-98225714D02*
X160086190Y-98273333D01*
X160086190Y-98368571D01*
X160062380Y-98416190D01*
X160038571Y-98440000D01*
X159990952Y-98463809D01*
X159848095Y-98463809D01*
X159800476Y-98440000D01*
X159776666Y-98416190D01*
X159752857Y-98368571D01*
X159752857Y-98273333D01*
X159776666Y-98225714D01*
X160086190Y-97987619D02*
X159586190Y-97987619D01*
X159895714Y-97940000D02*
X160086190Y-97797142D01*
X159752857Y-97797142D02*
X159943333Y-97987619D01*
X159176190Y-102496666D02*
X158938095Y-102663333D01*
X159176190Y-102782380D02*
X158676190Y-102782380D01*
X158676190Y-102591904D01*
X158700000Y-102544285D01*
X158723809Y-102520476D01*
X158771428Y-102496666D01*
X158842857Y-102496666D01*
X158890476Y-102520476D01*
X158914285Y-102544285D01*
X158938095Y-102591904D01*
X158938095Y-102782380D01*
X159176190Y-102210952D02*
X159152380Y-102258571D01*
X159128571Y-102282380D01*
X159080952Y-102306190D01*
X158938095Y-102306190D01*
X158890476Y-102282380D01*
X158866666Y-102258571D01*
X158842857Y-102210952D01*
X158842857Y-102139523D01*
X158866666Y-102091904D01*
X158890476Y-102068095D01*
X158938095Y-102044285D01*
X159080952Y-102044285D01*
X159128571Y-102068095D01*
X159152380Y-102091904D01*
X159176190Y-102139523D01*
X159176190Y-102210952D01*
X159152380Y-101853809D02*
X159176190Y-101806190D01*
X159176190Y-101710952D01*
X159152380Y-101663333D01*
X159104761Y-101639523D01*
X159080952Y-101639523D01*
X159033333Y-101663333D01*
X159009523Y-101710952D01*
X159009523Y-101782380D01*
X158985714Y-101830000D01*
X158938095Y-101853809D01*
X158914285Y-101853809D01*
X158866666Y-101830000D01*
X158842857Y-101782380D01*
X158842857Y-101710952D01*
X158866666Y-101663333D01*
X159176190Y-101210952D02*
X158914285Y-101210952D01*
X158866666Y-101234761D01*
X158842857Y-101282380D01*
X158842857Y-101377619D01*
X158866666Y-101425238D01*
X159152380Y-101210952D02*
X159176190Y-101258571D01*
X159176190Y-101377619D01*
X159152380Y-101425238D01*
X159104761Y-101449047D01*
X159057142Y-101449047D01*
X159009523Y-101425238D01*
X158985714Y-101377619D01*
X158985714Y-101258571D01*
X158961904Y-101210952D01*
X159176190Y-100901428D02*
X159152380Y-100949047D01*
X159104761Y-100972857D01*
X158676190Y-100972857D01*
X158842857Y-100758571D02*
X159176190Y-100639523D01*
X158842857Y-100520476D02*
X159176190Y-100639523D01*
X159295238Y-100687142D01*
X159319047Y-100710952D01*
X159342857Y-100758571D01*
X158842857Y-100330000D02*
X159176190Y-100330000D01*
X158890476Y-100330000D02*
X158866666Y-100306190D01*
X158842857Y-100258571D01*
X158842857Y-100187142D01*
X158866666Y-100139523D01*
X158914285Y-100115714D01*
X159176190Y-100115714D01*
X159152380Y-99901428D02*
X159176190Y-99830000D01*
X159176190Y-99710952D01*
X159152380Y-99663333D01*
X159128571Y-99639523D01*
X159080952Y-99615714D01*
X159033333Y-99615714D01*
X158985714Y-99639523D01*
X158961904Y-99663333D01*
X158938095Y-99710952D01*
X158914285Y-99806190D01*
X158890476Y-99853809D01*
X158866666Y-99877619D01*
X158819047Y-99901428D01*
X158771428Y-99901428D01*
X158723809Y-99877619D01*
X158700000Y-99853809D01*
X158676190Y-99806190D01*
X158676190Y-99687142D01*
X158700000Y-99615714D01*
X159033333Y-99425238D02*
X159033333Y-99187142D01*
X159176190Y-99472857D02*
X158676190Y-99306190D01*
X159176190Y-99139523D01*
X158676190Y-99044285D02*
X158676190Y-98758571D01*
X159176190Y-98901428D02*
X158676190Y-98901428D01*
X158842857Y-98258571D02*
X159176190Y-98139523D01*
X158842857Y-98020476D01*
X159176190Y-97568095D02*
X159176190Y-97853809D01*
X159176190Y-97710952D02*
X158676190Y-97710952D01*
X158747619Y-97758571D01*
X158795238Y-97806190D01*
X158819047Y-97853809D01*
X159128571Y-97353809D02*
X159152380Y-97330000D01*
X159176190Y-97353809D01*
X159152380Y-97377619D01*
X159128571Y-97353809D01*
X159176190Y-97353809D01*
X158676190Y-97020476D02*
X158676190Y-96972857D01*
X158700000Y-96925238D01*
X158723809Y-96901428D01*
X158771428Y-96877619D01*
X158866666Y-96853809D01*
X158985714Y-96853809D01*
X159080952Y-96877619D01*
X159128571Y-96901428D01*
X159152380Y-96925238D01*
X159176190Y-96972857D01*
X159176190Y-97020476D01*
X159152380Y-97068095D01*
X159128571Y-97091904D01*
X159080952Y-97115714D01*
X158985714Y-97139523D01*
X158866666Y-97139523D01*
X158771428Y-97115714D01*
X158723809Y-97091904D01*
X158700000Y-97068095D01*
X158676190Y-97020476D01*
D12*
%TO.C,C6*%
X151354420Y-104240000D02*
X151635580Y-104240000D01*
X151354420Y-105260000D02*
X151635580Y-105260000D01*
%TO.C,U1*%
X153635000Y-100150000D02*
X153635000Y-97950000D01*
X153635000Y-100150000D02*
X153635000Y-102350000D01*
X146865000Y-100150000D02*
X146865000Y-97950000D01*
X146865000Y-100150000D02*
X146865000Y-103750000D01*
%TO.C,J2*%
X140465000Y-98210000D02*
X140465000Y-102090000D01*
X144935000Y-103260000D02*
X144935000Y-102210000D01*
X142435000Y-103260000D02*
X144935000Y-103260000D01*
X144935000Y-98090000D02*
X145925000Y-98090000D01*
X144935000Y-97040000D02*
X144935000Y-98090000D01*
X142435000Y-97040000D02*
X144935000Y-97040000D01*
%TO.C,R12*%
X148097258Y-96002500D02*
X147622742Y-96002500D01*
X148097258Y-94957500D02*
X147622742Y-94957500D01*
%TO.C,D2*%
X141020000Y-96215000D02*
X143305000Y-96215000D01*
X143305000Y-96215000D02*
X143305000Y-94745000D01*
X143305000Y-94745000D02*
X141020000Y-94745000D01*
%TO.C,R11*%
X145087258Y-94967500D02*
X144612742Y-94967500D01*
X145087258Y-96012500D02*
X144612742Y-96012500D01*
%TO.C,D1*%
X143322500Y-104085000D02*
X141037500Y-104085000D01*
X143322500Y-105555000D02*
X143322500Y-104085000D01*
X141037500Y-105555000D02*
X143322500Y-105555000D01*
%TO.C,C5*%
X145000580Y-104330000D02*
X144719420Y-104330000D01*
X145000580Y-105350000D02*
X144719420Y-105350000D01*
%TO.C,C3*%
X155328748Y-103365000D02*
X155851252Y-103365000D01*
X155328748Y-101895000D02*
X155851252Y-101895000D01*
%TO.C,U3*%
X154810000Y-98280000D02*
X156270000Y-98280000D01*
X154810000Y-101440000D02*
X156970000Y-101440000D01*
X154810000Y-101440000D02*
X154810000Y-100510000D01*
X154810000Y-98280000D02*
X154810000Y-99210000D01*
%TO.C,C4*%
X155741252Y-96335000D02*
X155218748Y-96335000D01*
X155741252Y-97805000D02*
X155218748Y-97805000D01*
%TO.C,C2*%
X150689420Y-96000000D02*
X150970580Y-96000000D01*
X150689420Y-94980000D02*
X150970580Y-94980000D01*
%TO.C,R1*%
X147962742Y-104267500D02*
X148437258Y-104267500D01*
X147962742Y-105312500D02*
X148437258Y-105312500D01*
%TO.C,TP1*%
X142630000Y-93000000D02*
X144030000Y-93000000D01*
X144030000Y-93000000D02*
X144030000Y-94400000D01*
X144030000Y-94400000D02*
X142630000Y-94400000D01*
X142630000Y-94400000D02*
X142630000Y-93000000D01*
%TO.C,TP2*%
X145740000Y-94400000D02*
X145740000Y-93000000D01*
X147140000Y-94400000D02*
X145740000Y-94400000D01*
X147140000Y-93000000D02*
X147140000Y-94400000D01*
X145740000Y-93000000D02*
X147140000Y-93000000D01*
%TO.C,TP3*%
X148600000Y-92990000D02*
X150000000Y-92990000D01*
X150000000Y-92990000D02*
X150000000Y-94390000D01*
X150000000Y-94390000D02*
X148600000Y-94390000D01*
X148600000Y-94390000D02*
X148600000Y-92990000D01*
%TO.C,FB1*%
X155989622Y-105050000D02*
X155190378Y-105050000D01*
X155989622Y-103930000D02*
X155190378Y-103930000D01*
%TO.C,C6*%
D11*
X151406666Y-106048571D02*
X151382857Y-106072380D01*
X151311428Y-106096190D01*
X151263809Y-106096190D01*
X151192380Y-106072380D01*
X151144761Y-106024761D01*
X151120952Y-105977142D01*
X151097142Y-105881904D01*
X151097142Y-105810476D01*
X151120952Y-105715238D01*
X151144761Y-105667619D01*
X151192380Y-105620000D01*
X151263809Y-105596190D01*
X151311428Y-105596190D01*
X151382857Y-105620000D01*
X151406666Y-105643809D01*
X151835238Y-105596190D02*
X151740000Y-105596190D01*
X151692380Y-105620000D01*
X151668571Y-105643809D01*
X151620952Y-105715238D01*
X151597142Y-105810476D01*
X151597142Y-106000952D01*
X151620952Y-106048571D01*
X151644761Y-106072380D01*
X151692380Y-106096190D01*
X151787619Y-106096190D01*
X151835238Y-106072380D01*
X151859047Y-106048571D01*
X151882857Y-106000952D01*
X151882857Y-105881904D01*
X151859047Y-105834285D01*
X151835238Y-105810476D01*
X151787619Y-105786666D01*
X151692380Y-105786666D01*
X151644761Y-105810476D01*
X151620952Y-105834285D01*
X151597142Y-105881904D01*
%TO.C,U1*%
X146076190Y-103600952D02*
X146480952Y-103600952D01*
X146528571Y-103577142D01*
X146552380Y-103553333D01*
X146576190Y-103505714D01*
X146576190Y-103410476D01*
X146552380Y-103362857D01*
X146528571Y-103339047D01*
X146480952Y-103315238D01*
X146076190Y-103315238D01*
X146576190Y-102815238D02*
X146576190Y-103100952D01*
X146576190Y-102958095D02*
X146076190Y-102958095D01*
X146147619Y-103005714D01*
X146195238Y-103053333D01*
X146219047Y-103100952D01*
%TO.C,J2*%
X145156190Y-97686666D02*
X145513333Y-97686666D01*
X145584761Y-97710476D01*
X145632380Y-97758095D01*
X145656190Y-97829523D01*
X145656190Y-97877142D01*
X145203809Y-97472380D02*
X145180000Y-97448571D01*
X145156190Y-97400952D01*
X145156190Y-97281904D01*
X145180000Y-97234285D01*
X145203809Y-97210476D01*
X145251428Y-97186666D01*
X145299047Y-97186666D01*
X145370476Y-97210476D01*
X145656190Y-97496190D01*
X145656190Y-97186666D01*
%TO.C,R12*%
X148076190Y-94401428D02*
X147838095Y-94568095D01*
X148076190Y-94687142D02*
X147576190Y-94687142D01*
X147576190Y-94496666D01*
X147600000Y-94449047D01*
X147623809Y-94425238D01*
X147671428Y-94401428D01*
X147742857Y-94401428D01*
X147790476Y-94425238D01*
X147814285Y-94449047D01*
X147838095Y-94496666D01*
X147838095Y-94687142D01*
X148076190Y-93925238D02*
X148076190Y-94210952D01*
X148076190Y-94068095D02*
X147576190Y-94068095D01*
X147647619Y-94115714D01*
X147695238Y-94163333D01*
X147719047Y-94210952D01*
X147623809Y-93734761D02*
X147600000Y-93710952D01*
X147576190Y-93663333D01*
X147576190Y-93544285D01*
X147600000Y-93496666D01*
X147623809Y-93472857D01*
X147671428Y-93449047D01*
X147719047Y-93449047D01*
X147790476Y-93472857D01*
X148076190Y-93758571D01*
X148076190Y-93449047D01*
%TO.C,D2*%
X141450952Y-94606190D02*
X141450952Y-94106190D01*
X141570000Y-94106190D01*
X141641428Y-94130000D01*
X141689047Y-94177619D01*
X141712857Y-94225238D01*
X141736666Y-94320476D01*
X141736666Y-94391904D01*
X141712857Y-94487142D01*
X141689047Y-94534761D01*
X141641428Y-94582380D01*
X141570000Y-94606190D01*
X141450952Y-94606190D01*
X141927142Y-94153809D02*
X141950952Y-94130000D01*
X141998571Y-94106190D01*
X142117619Y-94106190D01*
X142165238Y-94130000D01*
X142189047Y-94153809D01*
X142212857Y-94201428D01*
X142212857Y-94249047D01*
X142189047Y-94320476D01*
X141903333Y-94606190D01*
X142212857Y-94606190D01*
%TO.C,R11*%
X145076190Y-94361428D02*
X144838095Y-94528095D01*
X145076190Y-94647142D02*
X144576190Y-94647142D01*
X144576190Y-94456666D01*
X144600000Y-94409047D01*
X144623809Y-94385238D01*
X144671428Y-94361428D01*
X144742857Y-94361428D01*
X144790476Y-94385238D01*
X144814285Y-94409047D01*
X144838095Y-94456666D01*
X144838095Y-94647142D01*
X145076190Y-93885238D02*
X145076190Y-94170952D01*
X145076190Y-94028095D02*
X144576190Y-94028095D01*
X144647619Y-94075714D01*
X144695238Y-94123333D01*
X144719047Y-94170952D01*
X145076190Y-93409047D02*
X145076190Y-93694761D01*
X145076190Y-93551904D02*
X144576190Y-93551904D01*
X144647619Y-93599523D01*
X144695238Y-93647142D01*
X144719047Y-93694761D01*
%TO.C,D1*%
X141470952Y-106206190D02*
X141470952Y-105706190D01*
X141590000Y-105706190D01*
X141661428Y-105730000D01*
X141709047Y-105777619D01*
X141732857Y-105825238D01*
X141756666Y-105920476D01*
X141756666Y-105991904D01*
X141732857Y-106087142D01*
X141709047Y-106134761D01*
X141661428Y-106182380D01*
X141590000Y-106206190D01*
X141470952Y-106206190D01*
X142232857Y-106206190D02*
X141947142Y-106206190D01*
X142090000Y-106206190D02*
X142090000Y-105706190D01*
X142042380Y-105777619D01*
X141994761Y-105825238D01*
X141947142Y-105849047D01*
%TO.C,C5*%
X144776666Y-106138571D02*
X144752857Y-106162380D01*
X144681428Y-106186190D01*
X144633809Y-106186190D01*
X144562380Y-106162380D01*
X144514761Y-106114761D01*
X144490952Y-106067142D01*
X144467142Y-105971904D01*
X144467142Y-105900476D01*
X144490952Y-105805238D01*
X144514761Y-105757619D01*
X144562380Y-105710000D01*
X144633809Y-105686190D01*
X144681428Y-105686190D01*
X144752857Y-105710000D01*
X144776666Y-105733809D01*
X145229047Y-105686190D02*
X144990952Y-105686190D01*
X144967142Y-105924285D01*
X144990952Y-105900476D01*
X145038571Y-105876666D01*
X145157619Y-105876666D01*
X145205238Y-105900476D01*
X145229047Y-105924285D01*
X145252857Y-105971904D01*
X145252857Y-106090952D01*
X145229047Y-106138571D01*
X145205238Y-106162380D01*
X145157619Y-106186190D01*
X145038571Y-106186190D01*
X144990952Y-106162380D01*
X144967142Y-106138571D01*
%TO.C,C3*%
D13*
X157776666Y-103378571D02*
X157752857Y-103402380D01*
X157681428Y-103426190D01*
X157633809Y-103426190D01*
X157562380Y-103402380D01*
X157514761Y-103354761D01*
X157490952Y-103307142D01*
X157467142Y-103211904D01*
X157467142Y-103140476D01*
X157490952Y-103045238D01*
X157514761Y-102997619D01*
X157562380Y-102950000D01*
X157633809Y-102926190D01*
X157681428Y-102926190D01*
X157752857Y-102950000D01*
X157776666Y-102973809D01*
X157943333Y-102926190D02*
X158252857Y-102926190D01*
X158086190Y-103116666D01*
X158157619Y-103116666D01*
X158205238Y-103140476D01*
X158229047Y-103164285D01*
X158252857Y-103211904D01*
X158252857Y-103330952D01*
X158229047Y-103378571D01*
X158205238Y-103402380D01*
X158157619Y-103426190D01*
X158014761Y-103426190D01*
X157967142Y-103402380D01*
X157943333Y-103378571D01*
%TO.C,U3*%
D11*
X157286190Y-100240952D02*
X157690952Y-100240952D01*
X157738571Y-100217142D01*
X157762380Y-100193333D01*
X157786190Y-100145714D01*
X157786190Y-100050476D01*
X157762380Y-100002857D01*
X157738571Y-99979047D01*
X157690952Y-99955238D01*
X157286190Y-99955238D01*
X157286190Y-99764761D02*
X157286190Y-99455238D01*
X157476666Y-99621904D01*
X157476666Y-99550476D01*
X157500476Y-99502857D01*
X157524285Y-99479047D01*
X157571904Y-99455238D01*
X157690952Y-99455238D01*
X157738571Y-99479047D01*
X157762380Y-99502857D01*
X157786190Y-99550476D01*
X157786190Y-99693333D01*
X157762380Y-99740952D01*
X157738571Y-99764761D01*
%TO.C,C4*%
X157668571Y-97153333D02*
X157692380Y-97177142D01*
X157716190Y-97248571D01*
X157716190Y-97296190D01*
X157692380Y-97367619D01*
X157644761Y-97415238D01*
X157597142Y-97439047D01*
X157501904Y-97462857D01*
X157430476Y-97462857D01*
X157335238Y-97439047D01*
X157287619Y-97415238D01*
X157240000Y-97367619D01*
X157216190Y-97296190D01*
X157216190Y-97248571D01*
X157240000Y-97177142D01*
X157263809Y-97153333D01*
X157382857Y-96724761D02*
X157716190Y-96724761D01*
X157192380Y-96843809D02*
X157549523Y-96962857D01*
X157549523Y-96653333D01*
%TO.C,C2*%
X150998571Y-94333333D02*
X151022380Y-94357142D01*
X151046190Y-94428571D01*
X151046190Y-94476190D01*
X151022380Y-94547619D01*
X150974761Y-94595238D01*
X150927142Y-94619047D01*
X150831904Y-94642857D01*
X150760476Y-94642857D01*
X150665238Y-94619047D01*
X150617619Y-94595238D01*
X150570000Y-94547619D01*
X150546190Y-94476190D01*
X150546190Y-94428571D01*
X150570000Y-94357142D01*
X150593809Y-94333333D01*
X150593809Y-94142857D02*
X150570000Y-94119047D01*
X150546190Y-94071428D01*
X150546190Y-93952380D01*
X150570000Y-93904761D01*
X150593809Y-93880952D01*
X150641428Y-93857142D01*
X150689047Y-93857142D01*
X150760476Y-93880952D01*
X151046190Y-94166666D01*
X151046190Y-93857142D01*
%TO.C,R1*%
D13*
X148116666Y-106126190D02*
X147950000Y-105888095D01*
X147830952Y-106126190D02*
X147830952Y-105626190D01*
X148021428Y-105626190D01*
X148069047Y-105650000D01*
X148092857Y-105673809D01*
X148116666Y-105721428D01*
X148116666Y-105792857D01*
X148092857Y-105840476D01*
X148069047Y-105864285D01*
X148021428Y-105888095D01*
X147830952Y-105888095D01*
X148592857Y-106126190D02*
X148307142Y-106126190D01*
X148450000Y-106126190D02*
X148450000Y-105626190D01*
X148402380Y-105697619D01*
X148354761Y-105745238D01*
X148307142Y-105769047D01*
%TO.C,FB1*%
X157663333Y-104474285D02*
X157496666Y-104474285D01*
X157496666Y-104736190D02*
X157496666Y-104236190D01*
X157734761Y-104236190D01*
X158091904Y-104474285D02*
X158163333Y-104498095D01*
X158187142Y-104521904D01*
X158210952Y-104569523D01*
X158210952Y-104640952D01*
X158187142Y-104688571D01*
X158163333Y-104712380D01*
X158115714Y-104736190D01*
X157925238Y-104736190D01*
X157925238Y-104236190D01*
X158091904Y-104236190D01*
X158139523Y-104260000D01*
X158163333Y-104283809D01*
X158187142Y-104331428D01*
X158187142Y-104379047D01*
X158163333Y-104426666D01*
X158139523Y-104450476D01*
X158091904Y-104474285D01*
X157925238Y-104474285D01*
X158687142Y-104736190D02*
X158401428Y-104736190D01*
X158544285Y-104736190D02*
X158544285Y-104236190D01*
X158496666Y-104307619D01*
X158449047Y-104355238D01*
X158401428Y-104379047D01*
%TD*%
M02*
