%TF.GenerationSoftware,KiCad,Pcbnew,5.1.8-db9833491~87~ubuntu20.04.1*%
%TF.CreationDate,2020-11-23T16:47:10+01:00*%
%TF.ProjectId,rosalyn-sat,726f7361-6c79-46e2-9d73-61742e6b6963,v1.0*%
%TF.SameCoordinates,Original*%
%TF.FileFunction,Copper,L1,Top*%
%TF.FilePolarity,Positive*%
%FSLAX46Y46*%
G04 Gerber Fmt 4.6, Leading zero omitted, Abs format (unit mm)*
G04 Created by KiCad (PCBNEW 5.1.8-db9833491~87~ubuntu20.04.1) date 2020-11-23 16:47:10*
%MOMM*%
%LPD*%
G01*
G04 APERTURE LIST*
%TA.AperFunction,SMDPad,CuDef*%
%ADD10R,0.900000X0.800000*%
%TD*%
%TA.AperFunction,SMDPad,CuDef*%
%ADD11R,1.000000X1.000000*%
%TD*%
%TA.AperFunction,ViaPad*%
%ADD12C,0.800000*%
%TD*%
%TA.AperFunction,ViaPad*%
%ADD13C,0.600000*%
%TD*%
%TA.AperFunction,Conductor*%
%ADD14C,0.200000*%
%TD*%
%TA.AperFunction,Conductor*%
%ADD15C,0.250000*%
%TD*%
%TA.AperFunction,Conductor*%
%ADD16C,0.500000*%
%TD*%
G04 APERTURE END LIST*
%TO.P,C6,1*%
%TO.N,nrst*%
%TA.AperFunction,SMDPad,CuDef*%
G36*
G01*
X150270000Y-105000000D02*
X150270000Y-104500000D01*
G75*
G02*
X150495000Y-104275000I225000J0D01*
G01*
X150945000Y-104275000D01*
G75*
G02*
X151170000Y-104500000I0J-225000D01*
G01*
X151170000Y-105000000D01*
G75*
G02*
X150945000Y-105225000I-225000J0D01*
G01*
X150495000Y-105225000D01*
G75*
G02*
X150270000Y-105000000I0J225000D01*
G01*
G37*
%TD.AperFunction*%
%TO.P,C6,2*%
%TO.N,GND*%
%TA.AperFunction,SMDPad,CuDef*%
G36*
G01*
X151820000Y-105000000D02*
X151820000Y-104500000D01*
G75*
G02*
X152045000Y-104275000I225000J0D01*
G01*
X152495000Y-104275000D01*
G75*
G02*
X152720000Y-104500000I0J-225000D01*
G01*
X152720000Y-105000000D01*
G75*
G02*
X152495000Y-105225000I-225000J0D01*
G01*
X152045000Y-105225000D01*
G75*
G02*
X151820000Y-105000000I0J225000D01*
G01*
G37*
%TD.AperFunction*%
%TD*%
%TO.P,U1,1*%
%TO.N,boot0*%
%TA.AperFunction,SMDPad,CuDef*%
G36*
G01*
X147425000Y-103750000D02*
X147225000Y-103750000D01*
G75*
G02*
X147125000Y-103650000I0J100000D01*
G01*
X147125000Y-102375000D01*
G75*
G02*
X147225000Y-102275000I100000J0D01*
G01*
X147425000Y-102275000D01*
G75*
G02*
X147525000Y-102375000I0J-100000D01*
G01*
X147525000Y-103650000D01*
G75*
G02*
X147425000Y-103750000I-100000J0D01*
G01*
G37*
%TD.AperFunction*%
%TO.P,U1,2*%
%TO.N,e22_dio1*%
%TA.AperFunction,SMDPad,CuDef*%
G36*
G01*
X148075000Y-103750000D02*
X147875000Y-103750000D01*
G75*
G02*
X147775000Y-103650000I0J100000D01*
G01*
X147775000Y-102375000D01*
G75*
G02*
X147875000Y-102275000I100000J0D01*
G01*
X148075000Y-102275000D01*
G75*
G02*
X148175000Y-102375000I0J-100000D01*
G01*
X148175000Y-103650000D01*
G75*
G02*
X148075000Y-103750000I-100000J0D01*
G01*
G37*
%TD.AperFunction*%
%TO.P,U1,3*%
%TO.N,e22_busy*%
%TA.AperFunction,SMDPad,CuDef*%
G36*
G01*
X148725000Y-103750000D02*
X148525000Y-103750000D01*
G75*
G02*
X148425000Y-103650000I0J100000D01*
G01*
X148425000Y-102375000D01*
G75*
G02*
X148525000Y-102275000I100000J0D01*
G01*
X148725000Y-102275000D01*
G75*
G02*
X148825000Y-102375000I0J-100000D01*
G01*
X148825000Y-103650000D01*
G75*
G02*
X148725000Y-103750000I-100000J0D01*
G01*
G37*
%TD.AperFunction*%
%TO.P,U1,4*%
%TO.N,nrst*%
%TA.AperFunction,SMDPad,CuDef*%
G36*
G01*
X149375000Y-103750000D02*
X149175000Y-103750000D01*
G75*
G02*
X149075000Y-103650000I0J100000D01*
G01*
X149075000Y-102375000D01*
G75*
G02*
X149175000Y-102275000I100000J0D01*
G01*
X149375000Y-102275000D01*
G75*
G02*
X149475000Y-102375000I0J-100000D01*
G01*
X149475000Y-103650000D01*
G75*
G02*
X149375000Y-103750000I-100000J0D01*
G01*
G37*
%TD.AperFunction*%
%TO.P,U1,5*%
%TO.N,+3V3*%
%TA.AperFunction,SMDPad,CuDef*%
G36*
G01*
X150025000Y-103750000D02*
X149825000Y-103750000D01*
G75*
G02*
X149725000Y-103650000I0J100000D01*
G01*
X149725000Y-102375000D01*
G75*
G02*
X149825000Y-102275000I100000J0D01*
G01*
X150025000Y-102275000D01*
G75*
G02*
X150125000Y-102375000I0J-100000D01*
G01*
X150125000Y-103650000D01*
G75*
G02*
X150025000Y-103750000I-100000J0D01*
G01*
G37*
%TD.AperFunction*%
%TO.P,U1,6*%
%TO.N,e22_nrst*%
%TA.AperFunction,SMDPad,CuDef*%
G36*
G01*
X150675000Y-103750000D02*
X150475000Y-103750000D01*
G75*
G02*
X150375000Y-103650000I0J100000D01*
G01*
X150375000Y-102375000D01*
G75*
G02*
X150475000Y-102275000I100000J0D01*
G01*
X150675000Y-102275000D01*
G75*
G02*
X150775000Y-102375000I0J-100000D01*
G01*
X150775000Y-103650000D01*
G75*
G02*
X150675000Y-103750000I-100000J0D01*
G01*
G37*
%TD.AperFunction*%
%TO.P,U1,7*%
%TO.N,e22_dio2*%
%TA.AperFunction,SMDPad,CuDef*%
G36*
G01*
X151325000Y-103750000D02*
X151125000Y-103750000D01*
G75*
G02*
X151025000Y-103650000I0J100000D01*
G01*
X151025000Y-102375000D01*
G75*
G02*
X151125000Y-102275000I100000J0D01*
G01*
X151325000Y-102275000D01*
G75*
G02*
X151425000Y-102375000I0J-100000D01*
G01*
X151425000Y-103650000D01*
G75*
G02*
X151325000Y-103750000I-100000J0D01*
G01*
G37*
%TD.AperFunction*%
%TO.P,U1,8*%
%TO.N,e22_txen*%
%TA.AperFunction,SMDPad,CuDef*%
G36*
G01*
X151975000Y-103750000D02*
X151775000Y-103750000D01*
G75*
G02*
X151675000Y-103650000I0J100000D01*
G01*
X151675000Y-102375000D01*
G75*
G02*
X151775000Y-102275000I100000J0D01*
G01*
X151975000Y-102275000D01*
G75*
G02*
X152075000Y-102375000I0J-100000D01*
G01*
X152075000Y-103650000D01*
G75*
G02*
X151975000Y-103750000I-100000J0D01*
G01*
G37*
%TD.AperFunction*%
%TO.P,U1,9*%
%TO.N,e22_rxen*%
%TA.AperFunction,SMDPad,CuDef*%
G36*
G01*
X152625000Y-103750000D02*
X152425000Y-103750000D01*
G75*
G02*
X152325000Y-103650000I0J100000D01*
G01*
X152325000Y-102375000D01*
G75*
G02*
X152425000Y-102275000I100000J0D01*
G01*
X152625000Y-102275000D01*
G75*
G02*
X152725000Y-102375000I0J-100000D01*
G01*
X152725000Y-103650000D01*
G75*
G02*
X152625000Y-103750000I-100000J0D01*
G01*
G37*
%TD.AperFunction*%
%TO.P,U1,10*%
%TO.N,N/C*%
%TA.AperFunction,SMDPad,CuDef*%
G36*
G01*
X153275000Y-103750000D02*
X153075000Y-103750000D01*
G75*
G02*
X152975000Y-103650000I0J100000D01*
G01*
X152975000Y-102375000D01*
G75*
G02*
X153075000Y-102275000I100000J0D01*
G01*
X153275000Y-102275000D01*
G75*
G02*
X153375000Y-102375000I0J-100000D01*
G01*
X153375000Y-103650000D01*
G75*
G02*
X153275000Y-103750000I-100000J0D01*
G01*
G37*
%TD.AperFunction*%
%TO.P,U1,11*%
%TO.N,spi_sck*%
%TA.AperFunction,SMDPad,CuDef*%
G36*
G01*
X153275000Y-98025000D02*
X153075000Y-98025000D01*
G75*
G02*
X152975000Y-97925000I0J100000D01*
G01*
X152975000Y-96650000D01*
G75*
G02*
X153075000Y-96550000I100000J0D01*
G01*
X153275000Y-96550000D01*
G75*
G02*
X153375000Y-96650000I0J-100000D01*
G01*
X153375000Y-97925000D01*
G75*
G02*
X153275000Y-98025000I-100000J0D01*
G01*
G37*
%TD.AperFunction*%
%TO.P,U1,12*%
%TO.N,spi_miso*%
%TA.AperFunction,SMDPad,CuDef*%
G36*
G01*
X152625000Y-98025000D02*
X152425000Y-98025000D01*
G75*
G02*
X152325000Y-97925000I0J100000D01*
G01*
X152325000Y-96650000D01*
G75*
G02*
X152425000Y-96550000I100000J0D01*
G01*
X152625000Y-96550000D01*
G75*
G02*
X152725000Y-96650000I0J-100000D01*
G01*
X152725000Y-97925000D01*
G75*
G02*
X152625000Y-98025000I-100000J0D01*
G01*
G37*
%TD.AperFunction*%
%TO.P,U1,13*%
%TO.N,spi_mosi*%
%TA.AperFunction,SMDPad,CuDef*%
G36*
G01*
X151975000Y-98025000D02*
X151775000Y-98025000D01*
G75*
G02*
X151675000Y-97925000I0J100000D01*
G01*
X151675000Y-96650000D01*
G75*
G02*
X151775000Y-96550000I100000J0D01*
G01*
X151975000Y-96550000D01*
G75*
G02*
X152075000Y-96650000I0J-100000D01*
G01*
X152075000Y-97925000D01*
G75*
G02*
X151975000Y-98025000I-100000J0D01*
G01*
G37*
%TD.AperFunction*%
%TO.P,U1,14*%
%TO.N,e22_nss*%
%TA.AperFunction,SMDPad,CuDef*%
G36*
G01*
X151325000Y-98025000D02*
X151125000Y-98025000D01*
G75*
G02*
X151025000Y-97925000I0J100000D01*
G01*
X151025000Y-96650000D01*
G75*
G02*
X151125000Y-96550000I100000J0D01*
G01*
X151325000Y-96550000D01*
G75*
G02*
X151425000Y-96650000I0J-100000D01*
G01*
X151425000Y-97925000D01*
G75*
G02*
X151325000Y-98025000I-100000J0D01*
G01*
G37*
%TD.AperFunction*%
%TO.P,U1,15*%
%TO.N,GND*%
%TA.AperFunction,SMDPad,CuDef*%
G36*
G01*
X150675000Y-98025000D02*
X150475000Y-98025000D01*
G75*
G02*
X150375000Y-97925000I0J100000D01*
G01*
X150375000Y-96650000D01*
G75*
G02*
X150475000Y-96550000I100000J0D01*
G01*
X150675000Y-96550000D01*
G75*
G02*
X150775000Y-96650000I0J-100000D01*
G01*
X150775000Y-97925000D01*
G75*
G02*
X150675000Y-98025000I-100000J0D01*
G01*
G37*
%TD.AperFunction*%
%TO.P,U1,16*%
%TO.N,+3V3*%
%TA.AperFunction,SMDPad,CuDef*%
G36*
G01*
X150025000Y-98025000D02*
X149825000Y-98025000D01*
G75*
G02*
X149725000Y-97925000I0J100000D01*
G01*
X149725000Y-96650000D01*
G75*
G02*
X149825000Y-96550000I100000J0D01*
G01*
X150025000Y-96550000D01*
G75*
G02*
X150125000Y-96650000I0J-100000D01*
G01*
X150125000Y-97925000D01*
G75*
G02*
X150025000Y-98025000I-100000J0D01*
G01*
G37*
%TD.AperFunction*%
%TO.P,U1,17*%
%TO.N,uart1_tx*%
%TA.AperFunction,SMDPad,CuDef*%
G36*
G01*
X149375000Y-98025000D02*
X149175000Y-98025000D01*
G75*
G02*
X149075000Y-97925000I0J100000D01*
G01*
X149075000Y-96650000D01*
G75*
G02*
X149175000Y-96550000I100000J0D01*
G01*
X149375000Y-96550000D01*
G75*
G02*
X149475000Y-96650000I0J-100000D01*
G01*
X149475000Y-97925000D01*
G75*
G02*
X149375000Y-98025000I-100000J0D01*
G01*
G37*
%TD.AperFunction*%
%TO.P,U1,18*%
%TO.N,uart1_rx*%
%TA.AperFunction,SMDPad,CuDef*%
G36*
G01*
X148725000Y-98025000D02*
X148525000Y-98025000D01*
G75*
G02*
X148425000Y-97925000I0J100000D01*
G01*
X148425000Y-96650000D01*
G75*
G02*
X148525000Y-96550000I100000J0D01*
G01*
X148725000Y-96550000D01*
G75*
G02*
X148825000Y-96650000I0J-100000D01*
G01*
X148825000Y-97925000D01*
G75*
G02*
X148725000Y-98025000I-100000J0D01*
G01*
G37*
%TD.AperFunction*%
%TO.P,U1,19*%
%TO.N,hmi_error*%
%TA.AperFunction,SMDPad,CuDef*%
G36*
G01*
X148075000Y-98025000D02*
X147875000Y-98025000D01*
G75*
G02*
X147775000Y-97925000I0J100000D01*
G01*
X147775000Y-96650000D01*
G75*
G02*
X147875000Y-96550000I100000J0D01*
G01*
X148075000Y-96550000D01*
G75*
G02*
X148175000Y-96650000I0J-100000D01*
G01*
X148175000Y-97925000D01*
G75*
G02*
X148075000Y-98025000I-100000J0D01*
G01*
G37*
%TD.AperFunction*%
%TO.P,U1,20*%
%TO.N,hmi_status*%
%TA.AperFunction,SMDPad,CuDef*%
G36*
G01*
X147425000Y-98025000D02*
X147225000Y-98025000D01*
G75*
G02*
X147125000Y-97925000I0J100000D01*
G01*
X147125000Y-96650000D01*
G75*
G02*
X147225000Y-96550000I100000J0D01*
G01*
X147425000Y-96550000D01*
G75*
G02*
X147525000Y-96650000I0J-100000D01*
G01*
X147525000Y-97925000D01*
G75*
G02*
X147425000Y-98025000I-100000J0D01*
G01*
G37*
%TD.AperFunction*%
%TD*%
%TO.P,J2,1*%
%TO.N,+5V*%
%TA.AperFunction,SMDPad,CuDef*%
G36*
G01*
X144525000Y-98350000D02*
X145775000Y-98350000D01*
G75*
G02*
X145925000Y-98500000I0J-150000D01*
G01*
X145925000Y-98800000D01*
G75*
G02*
X145775000Y-98950000I-150000J0D01*
G01*
X144525000Y-98950000D01*
G75*
G02*
X144375000Y-98800000I0J150000D01*
G01*
X144375000Y-98500000D01*
G75*
G02*
X144525000Y-98350000I150000J0D01*
G01*
G37*
%TD.AperFunction*%
%TO.P,J2,2*%
%TO.N,GND*%
%TA.AperFunction,SMDPad,CuDef*%
G36*
G01*
X144525000Y-99350000D02*
X145775000Y-99350000D01*
G75*
G02*
X145925000Y-99500000I0J-150000D01*
G01*
X145925000Y-99800000D01*
G75*
G02*
X145775000Y-99950000I-150000J0D01*
G01*
X144525000Y-99950000D01*
G75*
G02*
X144375000Y-99800000I0J150000D01*
G01*
X144375000Y-99500000D01*
G75*
G02*
X144525000Y-99350000I150000J0D01*
G01*
G37*
%TD.AperFunction*%
%TO.P,J2,3*%
%TO.N,uart1_tx*%
%TA.AperFunction,SMDPad,CuDef*%
G36*
G01*
X144525000Y-100350000D02*
X145775000Y-100350000D01*
G75*
G02*
X145925000Y-100500000I0J-150000D01*
G01*
X145925000Y-100800000D01*
G75*
G02*
X145775000Y-100950000I-150000J0D01*
G01*
X144525000Y-100950000D01*
G75*
G02*
X144375000Y-100800000I0J150000D01*
G01*
X144375000Y-100500000D01*
G75*
G02*
X144525000Y-100350000I150000J0D01*
G01*
G37*
%TD.AperFunction*%
%TO.P,J2,4*%
%TO.N,uart1_rx*%
%TA.AperFunction,SMDPad,CuDef*%
G36*
G01*
X144525000Y-101350000D02*
X145775000Y-101350000D01*
G75*
G02*
X145925000Y-101500000I0J-150000D01*
G01*
X145925000Y-101800000D01*
G75*
G02*
X145775000Y-101950000I-150000J0D01*
G01*
X144525000Y-101950000D01*
G75*
G02*
X144375000Y-101800000I0J150000D01*
G01*
X144375000Y-101500000D01*
G75*
G02*
X144525000Y-101350000I150000J0D01*
G01*
G37*
%TD.AperFunction*%
%TO.P,J2,MP*%
%TO.N,N/C*%
%TA.AperFunction,SMDPad,CuDef*%
G36*
G01*
X140624999Y-96750000D02*
X141925001Y-96750000D01*
G75*
G02*
X142175000Y-96999999I0J-249999D01*
G01*
X142175000Y-97700001D01*
G75*
G02*
X141925001Y-97950000I-249999J0D01*
G01*
X140624999Y-97950000D01*
G75*
G02*
X140375000Y-97700001I0J249999D01*
G01*
X140375000Y-96999999D01*
G75*
G02*
X140624999Y-96750000I249999J0D01*
G01*
G37*
%TD.AperFunction*%
%TA.AperFunction,SMDPad,CuDef*%
G36*
G01*
X140624999Y-102350000D02*
X141925001Y-102350000D01*
G75*
G02*
X142175000Y-102599999I0J-249999D01*
G01*
X142175000Y-103300001D01*
G75*
G02*
X141925001Y-103550000I-249999J0D01*
G01*
X140624999Y-103550000D01*
G75*
G02*
X140375000Y-103300001I0J249999D01*
G01*
X140375000Y-102599999D01*
G75*
G02*
X140624999Y-102350000I249999J0D01*
G01*
G37*
%TD.AperFunction*%
%TD*%
%TO.P,R12,2*%
%TO.N,Net-(D2-Pad1)*%
%TA.AperFunction,SMDPad,CuDef*%
G36*
G01*
X147435000Y-95205000D02*
X147435000Y-95755000D01*
G75*
G02*
X147235000Y-95955000I-200000J0D01*
G01*
X146835000Y-95955000D01*
G75*
G02*
X146635000Y-95755000I0J200000D01*
G01*
X146635000Y-95205000D01*
G75*
G02*
X146835000Y-95005000I200000J0D01*
G01*
X147235000Y-95005000D01*
G75*
G02*
X147435000Y-95205000I0J-200000D01*
G01*
G37*
%TD.AperFunction*%
%TO.P,R12,1*%
%TO.N,hmi_error*%
%TA.AperFunction,SMDPad,CuDef*%
G36*
G01*
X149085000Y-95205000D02*
X149085000Y-95755000D01*
G75*
G02*
X148885000Y-95955000I-200000J0D01*
G01*
X148485000Y-95955000D01*
G75*
G02*
X148285000Y-95755000I0J200000D01*
G01*
X148285000Y-95205000D01*
G75*
G02*
X148485000Y-95005000I200000J0D01*
G01*
X148885000Y-95005000D01*
G75*
G02*
X149085000Y-95205000I0J-200000D01*
G01*
G37*
%TD.AperFunction*%
%TD*%
%TO.P,D2,2*%
%TO.N,+3V3*%
%TA.AperFunction,SMDPad,CuDef*%
G36*
G01*
X141470000Y-95223750D02*
X141470000Y-95736250D01*
G75*
G02*
X141251250Y-95955000I-218750J0D01*
G01*
X140813750Y-95955000D01*
G75*
G02*
X140595000Y-95736250I0J218750D01*
G01*
X140595000Y-95223750D01*
G75*
G02*
X140813750Y-95005000I218750J0D01*
G01*
X141251250Y-95005000D01*
G75*
G02*
X141470000Y-95223750I0J-218750D01*
G01*
G37*
%TD.AperFunction*%
%TO.P,D2,1*%
%TO.N,Net-(D2-Pad1)*%
%TA.AperFunction,SMDPad,CuDef*%
G36*
G01*
X143045000Y-95223750D02*
X143045000Y-95736250D01*
G75*
G02*
X142826250Y-95955000I-218750J0D01*
G01*
X142388750Y-95955000D01*
G75*
G02*
X142170000Y-95736250I0J218750D01*
G01*
X142170000Y-95223750D01*
G75*
G02*
X142388750Y-95005000I218750J0D01*
G01*
X142826250Y-95005000D01*
G75*
G02*
X143045000Y-95223750I0J-218750D01*
G01*
G37*
%TD.AperFunction*%
%TD*%
%TO.P,R11,2*%
%TO.N,Net-(D1-Pad1)*%
%TA.AperFunction,SMDPad,CuDef*%
G36*
G01*
X144425000Y-95215000D02*
X144425000Y-95765000D01*
G75*
G02*
X144225000Y-95965000I-200000J0D01*
G01*
X143825000Y-95965000D01*
G75*
G02*
X143625000Y-95765000I0J200000D01*
G01*
X143625000Y-95215000D01*
G75*
G02*
X143825000Y-95015000I200000J0D01*
G01*
X144225000Y-95015000D01*
G75*
G02*
X144425000Y-95215000I0J-200000D01*
G01*
G37*
%TD.AperFunction*%
%TO.P,R11,1*%
%TO.N,hmi_status*%
%TA.AperFunction,SMDPad,CuDef*%
G36*
G01*
X146075000Y-95215000D02*
X146075000Y-95765000D01*
G75*
G02*
X145875000Y-95965000I-200000J0D01*
G01*
X145475000Y-95965000D01*
G75*
G02*
X145275000Y-95765000I0J200000D01*
G01*
X145275000Y-95215000D01*
G75*
G02*
X145475000Y-95015000I200000J0D01*
G01*
X145875000Y-95015000D01*
G75*
G02*
X146075000Y-95215000I0J-200000D01*
G01*
G37*
%TD.AperFunction*%
%TD*%
%TO.P,D1,2*%
%TO.N,+3V3*%
%TA.AperFunction,SMDPad,CuDef*%
G36*
G01*
X141487500Y-104563750D02*
X141487500Y-105076250D01*
G75*
G02*
X141268750Y-105295000I-218750J0D01*
G01*
X140831250Y-105295000D01*
G75*
G02*
X140612500Y-105076250I0J218750D01*
G01*
X140612500Y-104563750D01*
G75*
G02*
X140831250Y-104345000I218750J0D01*
G01*
X141268750Y-104345000D01*
G75*
G02*
X141487500Y-104563750I0J-218750D01*
G01*
G37*
%TD.AperFunction*%
%TO.P,D1,1*%
%TO.N,Net-(D1-Pad1)*%
%TA.AperFunction,SMDPad,CuDef*%
G36*
G01*
X143062500Y-104563750D02*
X143062500Y-105076250D01*
G75*
G02*
X142843750Y-105295000I-218750J0D01*
G01*
X142406250Y-105295000D01*
G75*
G02*
X142187500Y-105076250I0J218750D01*
G01*
X142187500Y-104563750D01*
G75*
G02*
X142406250Y-104345000I218750J0D01*
G01*
X142843750Y-104345000D01*
G75*
G02*
X143062500Y-104563750I0J-218750D01*
G01*
G37*
%TD.AperFunction*%
%TD*%
%TO.P,C5,2*%
%TO.N,GND*%
%TA.AperFunction,SMDPad,CuDef*%
G36*
G01*
X144535000Y-104590000D02*
X144535000Y-105090000D01*
G75*
G02*
X144310000Y-105315000I-225000J0D01*
G01*
X143860000Y-105315000D01*
G75*
G02*
X143635000Y-105090000I0J225000D01*
G01*
X143635000Y-104590000D01*
G75*
G02*
X143860000Y-104365000I225000J0D01*
G01*
X144310000Y-104365000D01*
G75*
G02*
X144535000Y-104590000I0J-225000D01*
G01*
G37*
%TD.AperFunction*%
%TO.P,C5,1*%
%TO.N,+3V3*%
%TA.AperFunction,SMDPad,CuDef*%
G36*
G01*
X146085000Y-104590000D02*
X146085000Y-105090000D01*
G75*
G02*
X145860000Y-105315000I-225000J0D01*
G01*
X145410000Y-105315000D01*
G75*
G02*
X145185000Y-105090000I0J225000D01*
G01*
X145185000Y-104590000D01*
G75*
G02*
X145410000Y-104365000I225000J0D01*
G01*
X145860000Y-104365000D01*
G75*
G02*
X146085000Y-104590000I0J-225000D01*
G01*
G37*
%TD.AperFunction*%
%TD*%
%TO.P,C3,2*%
%TO.N,GND*%
%TA.AperFunction,SMDPad,CuDef*%
G36*
G01*
X156040000Y-103105000D02*
X156040000Y-102155000D01*
G75*
G02*
X156290000Y-101905000I250000J0D01*
G01*
X156790000Y-101905000D01*
G75*
G02*
X157040000Y-102155000I0J-250000D01*
G01*
X157040000Y-103105000D01*
G75*
G02*
X156790000Y-103355000I-250000J0D01*
G01*
X156290000Y-103355000D01*
G75*
G02*
X156040000Y-103105000I0J250000D01*
G01*
G37*
%TD.AperFunction*%
%TO.P,C3,1*%
%TO.N,Net-(C3-Pad1)*%
%TA.AperFunction,SMDPad,CuDef*%
G36*
G01*
X154140000Y-103105000D02*
X154140000Y-102155000D01*
G75*
G02*
X154390000Y-101905000I250000J0D01*
G01*
X154890000Y-101905000D01*
G75*
G02*
X155140000Y-102155000I0J-250000D01*
G01*
X155140000Y-103105000D01*
G75*
G02*
X154890000Y-103355000I-250000J0D01*
G01*
X154390000Y-103355000D01*
G75*
G02*
X154140000Y-103105000I0J250000D01*
G01*
G37*
%TD.AperFunction*%
%TD*%
D10*
%TO.P,U3,3*%
%TO.N,Net-(C3-Pad1)*%
X154570000Y-99860000D03*
%TO.P,U3,2*%
%TO.N,+3V3*%
X156570000Y-98910000D03*
%TO.P,U3,1*%
%TO.N,GND*%
X156570000Y-100810000D03*
%TD*%
%TO.P,C4,2*%
%TO.N,GND*%
%TA.AperFunction,SMDPad,CuDef*%
G36*
G01*
X155030000Y-96595000D02*
X155030000Y-97545000D01*
G75*
G02*
X154780000Y-97795000I-250000J0D01*
G01*
X154280000Y-97795000D01*
G75*
G02*
X154030000Y-97545000I0J250000D01*
G01*
X154030000Y-96595000D01*
G75*
G02*
X154280000Y-96345000I250000J0D01*
G01*
X154780000Y-96345000D01*
G75*
G02*
X155030000Y-96595000I0J-250000D01*
G01*
G37*
%TD.AperFunction*%
%TO.P,C4,1*%
%TO.N,+3V3*%
%TA.AperFunction,SMDPad,CuDef*%
G36*
G01*
X156930000Y-96595000D02*
X156930000Y-97545000D01*
G75*
G02*
X156680000Y-97795000I-250000J0D01*
G01*
X156180000Y-97795000D01*
G75*
G02*
X155930000Y-97545000I0J250000D01*
G01*
X155930000Y-96595000D01*
G75*
G02*
X156180000Y-96345000I250000J0D01*
G01*
X156680000Y-96345000D01*
G75*
G02*
X156930000Y-96595000I0J-250000D01*
G01*
G37*
%TD.AperFunction*%
%TD*%
%TO.P,C2,2*%
%TO.N,GND*%
%TA.AperFunction,SMDPad,CuDef*%
G36*
G01*
X151155000Y-95740000D02*
X151155000Y-95240000D01*
G75*
G02*
X151380000Y-95015000I225000J0D01*
G01*
X151830000Y-95015000D01*
G75*
G02*
X152055000Y-95240000I0J-225000D01*
G01*
X152055000Y-95740000D01*
G75*
G02*
X151830000Y-95965000I-225000J0D01*
G01*
X151380000Y-95965000D01*
G75*
G02*
X151155000Y-95740000I0J225000D01*
G01*
G37*
%TD.AperFunction*%
%TO.P,C2,1*%
%TO.N,+3V3*%
%TA.AperFunction,SMDPad,CuDef*%
G36*
G01*
X149605000Y-95740000D02*
X149605000Y-95240000D01*
G75*
G02*
X149830000Y-95015000I225000J0D01*
G01*
X150280000Y-95015000D01*
G75*
G02*
X150505000Y-95240000I0J-225000D01*
G01*
X150505000Y-95740000D01*
G75*
G02*
X150280000Y-95965000I-225000J0D01*
G01*
X149830000Y-95965000D01*
G75*
G02*
X149605000Y-95740000I0J225000D01*
G01*
G37*
%TD.AperFunction*%
%TD*%
%TO.P,R1,1*%
%TO.N,boot0*%
%TA.AperFunction,SMDPad,CuDef*%
G36*
G01*
X146975000Y-105065000D02*
X146975000Y-104515000D01*
G75*
G02*
X147175000Y-104315000I200000J0D01*
G01*
X147575000Y-104315000D01*
G75*
G02*
X147775000Y-104515000I0J-200000D01*
G01*
X147775000Y-105065000D01*
G75*
G02*
X147575000Y-105265000I-200000J0D01*
G01*
X147175000Y-105265000D01*
G75*
G02*
X146975000Y-105065000I0J200000D01*
G01*
G37*
%TD.AperFunction*%
%TO.P,R1,2*%
%TO.N,GND*%
%TA.AperFunction,SMDPad,CuDef*%
G36*
G01*
X148625000Y-105065000D02*
X148625000Y-104515000D01*
G75*
G02*
X148825000Y-104315000I200000J0D01*
G01*
X149225000Y-104315000D01*
G75*
G02*
X149425000Y-104515000I0J-200000D01*
G01*
X149425000Y-105065000D01*
G75*
G02*
X149225000Y-105265000I-200000J0D01*
G01*
X148825000Y-105265000D01*
G75*
G02*
X148625000Y-105065000I0J200000D01*
G01*
G37*
%TD.AperFunction*%
%TD*%
D11*
%TO.P,TP1,1*%
%TO.N,GND*%
X143330000Y-93700000D03*
%TD*%
%TO.P,TP2,1*%
%TO.N,hmi_status*%
X146440000Y-93700000D03*
%TD*%
%TO.P,TP3,1*%
%TO.N,hmi_error*%
X149300000Y-93690000D03*
%TD*%
%TO.P,FB1,1*%
%TO.N,Net-(C3-Pad1)*%
%TA.AperFunction,SMDPad,CuDef*%
G36*
G01*
X157090000Y-104108750D02*
X157090000Y-104871250D01*
G75*
G02*
X156871250Y-105090000I-218750J0D01*
G01*
X156433750Y-105090000D01*
G75*
G02*
X156215000Y-104871250I0J218750D01*
G01*
X156215000Y-104108750D01*
G75*
G02*
X156433750Y-103890000I218750J0D01*
G01*
X156871250Y-103890000D01*
G75*
G02*
X157090000Y-104108750I0J-218750D01*
G01*
G37*
%TD.AperFunction*%
%TO.P,FB1,2*%
%TO.N,+5V*%
%TA.AperFunction,SMDPad,CuDef*%
G36*
G01*
X154965000Y-104108750D02*
X154965000Y-104871250D01*
G75*
G02*
X154746250Y-105090000I-218750J0D01*
G01*
X154308750Y-105090000D01*
G75*
G02*
X154090000Y-104871250I0J218750D01*
G01*
X154090000Y-104108750D01*
G75*
G02*
X154308750Y-103890000I218750J0D01*
G01*
X154746250Y-103890000D01*
G75*
G02*
X154965000Y-104108750I0J-218750D01*
G01*
G37*
%TD.AperFunction*%
%TD*%
D12*
%TO.N,GND*%
X159650000Y-105400000D03*
X158380000Y-105400000D03*
X141770000Y-93640000D03*
D13*
X152450000Y-95500000D03*
D12*
X141759998Y-106600000D03*
X144080000Y-103760000D03*
X152400000Y-106649998D03*
X143800000Y-99640000D03*
X157640000Y-102680000D03*
X156240000Y-106610000D03*
X156139998Y-93650000D03*
X159650000Y-95000000D03*
X154684994Y-95740006D03*
X155520000Y-100810004D03*
D13*
%TO.N,spi_sck*%
X152940000Y-94460000D03*
%TO.N,spi_mosi*%
X151750000Y-99100000D03*
%TO.N,spi_miso*%
X152610000Y-98550000D03*
%TO.N,e22_rxen*%
X152850000Y-101760001D03*
D12*
%TO.N,+3V3*%
X154110000Y-93510000D03*
X145630000Y-103760000D03*
X141030000Y-94410000D03*
X141040000Y-105900000D03*
X156420000Y-95750002D03*
D13*
%TO.N,e22_dio1*%
X147810000Y-101659996D03*
%TO.N,e22_busy*%
X148680000Y-101670000D03*
%TO.N,e22_nrst*%
X150250000Y-101570000D03*
%TO.N,e22_nss*%
X150890000Y-98560000D03*
D12*
%TO.N,+5V*%
X147850000Y-98820000D03*
X153420000Y-104410000D03*
D13*
%TO.N,e22_dio2*%
X151210000Y-101520000D03*
%TO.N,e22_txen*%
X151994061Y-101755260D03*
%TD*%
D14*
%TO.N,GND*%
X143929998Y-99650000D02*
X143930000Y-99650002D01*
D15*
X152440000Y-95490000D02*
X152450000Y-95500000D01*
D16*
X151605000Y-95490000D02*
X152440000Y-95490000D01*
D15*
X152270000Y-104750000D02*
X152189996Y-104750000D01*
X144085000Y-103765000D02*
X144080000Y-103760000D01*
D16*
X144085000Y-104840000D02*
X144085000Y-103765000D01*
D15*
X152270000Y-104750000D02*
X152270000Y-106240000D01*
X152400000Y-106370000D02*
X152400000Y-106649998D01*
X152270000Y-106240000D02*
X152400000Y-106370000D01*
D14*
X143810000Y-99650000D02*
X143800000Y-99640000D01*
D16*
X145150000Y-99650000D02*
X143810000Y-99650000D01*
D14*
X157590000Y-102630000D02*
X157640000Y-102680000D01*
D16*
X156540000Y-102630000D02*
X157590000Y-102630000D01*
D14*
X143220000Y-93640000D02*
X143330000Y-93750000D01*
X141770000Y-93640000D02*
X143220000Y-93640000D01*
D15*
X151410000Y-95490000D02*
X151605000Y-95490000D01*
X150575000Y-96325000D02*
X151410000Y-95490000D01*
X150575000Y-97287500D02*
X150575000Y-96325000D01*
D16*
X154530000Y-97070000D02*
X154530000Y-95895000D01*
X154530000Y-95895000D02*
X154684994Y-95740006D01*
D15*
X150884998Y-106649998D02*
X152400000Y-106649998D01*
X149025000Y-104790000D02*
X150884998Y-106649998D01*
D16*
X156570000Y-100810000D02*
X155520004Y-100810000D01*
X155520004Y-100810000D02*
X155520000Y-100810004D01*
D15*
%TO.N,spi_sck*%
X153175000Y-94695000D02*
X152940000Y-94460000D01*
X153175000Y-97287500D02*
X153175000Y-94695000D01*
%TO.N,spi_mosi*%
X151875000Y-98975000D02*
X151750000Y-99100000D01*
X151875000Y-97287500D02*
X151875000Y-98975000D01*
%TO.N,spi_miso*%
X152525000Y-98465000D02*
X152610000Y-98550000D01*
X152525000Y-97287500D02*
X152525000Y-98465000D01*
%TO.N,e22_rxen*%
X152830001Y-101780000D02*
X152850000Y-101760001D01*
X152525000Y-102085001D02*
X152850000Y-101760001D01*
X152525000Y-103012500D02*
X152525000Y-102085001D01*
%TO.N,+3V3*%
X149925000Y-95620000D02*
X150055000Y-95490000D01*
X149925000Y-97287500D02*
X149925000Y-95620000D01*
X149560000Y-101910000D02*
X149560000Y-101580000D01*
X149925000Y-102275000D02*
X149560000Y-101910000D01*
X149925000Y-103012500D02*
X149925000Y-102275000D01*
X145635000Y-103765000D02*
X145630000Y-103760000D01*
D16*
X145635000Y-104840000D02*
X145635000Y-103765000D01*
D15*
X141032500Y-94412500D02*
X141030000Y-94410000D01*
X141032500Y-95480000D02*
X141032500Y-94412500D01*
X141050000Y-105890000D02*
X141040000Y-105900000D01*
X141050000Y-104820000D02*
X141050000Y-105890000D01*
X150055000Y-95490000D02*
X150055000Y-94675000D01*
X151220000Y-93510000D02*
X154110000Y-93510000D01*
X150055000Y-94675000D02*
X151220000Y-93510000D01*
D14*
X156570000Y-97210000D02*
X156430000Y-97070000D01*
D16*
X156570000Y-98910000D02*
X156570000Y-97210000D01*
D14*
X156430000Y-97070000D02*
X156430000Y-97350000D01*
X156570000Y-98910000D02*
X156520000Y-98910000D01*
X149925000Y-97287500D02*
X149925000Y-99755000D01*
X149560000Y-100120000D02*
X149560000Y-101580000D01*
X149925000Y-99755000D02*
X149560000Y-100120000D01*
D16*
X156430000Y-97350000D02*
X156430000Y-95760002D01*
X156430000Y-95760002D02*
X156420000Y-95750002D01*
D15*
%TO.N,e22_dio1*%
X147975000Y-101824996D02*
X147810000Y-101659996D01*
X147975000Y-103012500D02*
X147975000Y-101824996D01*
%TO.N,e22_busy*%
X148625000Y-101725000D02*
X148680000Y-101670000D01*
X148625000Y-103012500D02*
X148625000Y-101725000D01*
%TO.N,e22_nrst*%
X150575000Y-101895000D02*
X150250000Y-101570000D01*
X150575000Y-103012500D02*
X150575000Y-101895000D01*
%TO.N,e22_nss*%
X151225000Y-97287500D02*
X151225000Y-98225000D01*
X151225000Y-98225000D02*
X150890000Y-98560000D01*
%TO.N,nrst*%
X149600010Y-104075010D02*
X150045010Y-104075010D01*
X149275000Y-103750000D02*
X149600010Y-104075010D01*
X149275000Y-103012500D02*
X149275000Y-103750000D01*
X150045010Y-104075010D02*
X150720000Y-104750000D01*
D16*
%TO.N,+5V*%
X147680000Y-98650000D02*
X147850000Y-98820000D01*
X145150000Y-98650000D02*
X147680000Y-98650000D01*
X153500000Y-104490000D02*
X153420000Y-104410000D01*
X154527500Y-104490000D02*
X153500000Y-104490000D01*
D14*
%TO.N,hmi_status*%
X147220000Y-93750000D02*
X146440000Y-93750000D01*
X147860000Y-94390000D02*
X147220000Y-93750000D01*
X147860000Y-95870000D02*
X147860000Y-94390000D01*
X147325000Y-96405000D02*
X147860000Y-95870000D01*
X147325000Y-97287500D02*
X147325000Y-96405000D01*
D15*
X145675000Y-96235000D02*
X145675000Y-95490000D01*
X146727500Y-97287500D02*
X145675000Y-96235000D01*
X147325000Y-97287500D02*
X146727500Y-97287500D01*
%TO.N,Net-(D1-Pad1)*%
X142850549Y-104549450D02*
X142625000Y-104774999D01*
X142850549Y-97409451D02*
X142850549Y-104549450D01*
X144025000Y-96235000D02*
X142850549Y-97409451D01*
X144025000Y-95490000D02*
X144025000Y-96235000D01*
%TO.N,Net-(D2-Pad1)*%
X142607500Y-95480000D02*
X142607500Y-95525001D01*
X143447500Y-94640000D02*
X142607500Y-95480000D01*
X146195000Y-94640000D02*
X143447500Y-94640000D01*
X147035000Y-95480000D02*
X146195000Y-94640000D01*
%TO.N,hmi_error*%
X147975000Y-97287500D02*
X147975000Y-96895000D01*
X148685000Y-94385000D02*
X149300000Y-93770000D01*
X148685000Y-95480000D02*
X148685000Y-94385000D01*
D14*
X148685000Y-95610698D02*
X148685000Y-95480000D01*
X147975000Y-96320698D02*
X148685000Y-95610698D01*
X147975000Y-96895000D02*
X147975000Y-96320698D01*
D15*
%TO.N,uart1_tx*%
X144120000Y-100650000D02*
X145150000Y-100650000D01*
X143980000Y-100790000D02*
X144120000Y-100650000D01*
X144310000Y-102360000D02*
X143980000Y-102030000D01*
X143980000Y-102030000D02*
X143980000Y-100790000D01*
X146216411Y-102360000D02*
X144310000Y-102360000D01*
X149275000Y-99301411D02*
X146216411Y-102360000D01*
X149275000Y-97287500D02*
X149275000Y-99301411D01*
%TO.N,uart1_rx*%
X148625000Y-99315000D02*
X146290000Y-101650000D01*
X146290000Y-101650000D02*
X145150000Y-101650000D01*
X148625000Y-97287500D02*
X148625000Y-99315000D01*
%TO.N,boot0*%
X147325000Y-104740000D02*
X147375000Y-104790000D01*
X147325000Y-103012500D02*
X147325000Y-104740000D01*
%TO.N,e22_dio2*%
X151210000Y-102997500D02*
X151225000Y-103012500D01*
X151210000Y-101520000D02*
X151210000Y-102997500D01*
%TO.N,e22_txen*%
X151875000Y-101874321D02*
X151994061Y-101755260D01*
X151875000Y-103012500D02*
X151875000Y-101874321D01*
D16*
%TO.N,Net-(C3-Pad1)*%
X154640000Y-99930000D02*
X154570000Y-99860000D01*
X154640000Y-102630000D02*
X154640000Y-99930000D01*
D15*
X154640000Y-102710000D02*
X154640000Y-102630000D01*
D16*
X156420000Y-104490000D02*
X154640000Y-102710000D01*
X156652500Y-104490000D02*
X156420000Y-104490000D01*
%TD*%
M02*
