%TF.GenerationSoftware,KiCad,Pcbnew,5.1.8-db9833491~87~ubuntu20.04.1*%
%TF.CreationDate,2020-11-05T18:03:58+01:00*%
%TF.ProjectId,rosalyn-sat,726f7361-6c79-46e2-9d73-61742e6b6963,v1.0*%
%TF.SameCoordinates,Original*%
%TF.FileFunction,Copper,L1,Top*%
%TF.FilePolarity,Positive*%
%FSLAX46Y46*%
G04 Gerber Fmt 4.6, Leading zero omitted, Abs format (unit mm)*
G04 Created by KiCad (PCBNEW 5.1.8-db9833491~87~ubuntu20.04.1) date 2020-11-05 18:03:58*
%MOMM*%
%LPD*%
G01*
G04 APERTURE LIST*
%TA.AperFunction,ComponentPad*%
%ADD10R,0.850000X0.650000*%
%TD*%
%TA.AperFunction,SMDPad,CuDef*%
%ADD11R,0.900000X0.800000*%
%TD*%
%TA.AperFunction,ViaPad*%
%ADD12C,0.600000*%
%TD*%
%TA.AperFunction,ViaPad*%
%ADD13C,0.800000*%
%TD*%
%TA.AperFunction,Conductor*%
%ADD14C,0.200000*%
%TD*%
%TA.AperFunction,Conductor*%
%ADD15C,0.500000*%
%TD*%
%TA.AperFunction,Conductor*%
%ADD16C,0.250000*%
%TD*%
G04 APERTURE END LIST*
%TO.P,J2,1*%
%TO.N,+5V*%
%TA.AperFunction,SMDPad,CuDef*%
G36*
G01*
X129375000Y-99200000D02*
X130625000Y-99200000D01*
G75*
G02*
X130775000Y-99350000I0J-150000D01*
G01*
X130775000Y-99650000D01*
G75*
G02*
X130625000Y-99800000I-150000J0D01*
G01*
X129375000Y-99800000D01*
G75*
G02*
X129225000Y-99650000I0J150000D01*
G01*
X129225000Y-99350000D01*
G75*
G02*
X129375000Y-99200000I150000J0D01*
G01*
G37*
%TD.AperFunction*%
%TO.P,J2,2*%
%TO.N,GND*%
%TA.AperFunction,SMDPad,CuDef*%
G36*
G01*
X129375000Y-100200000D02*
X130625000Y-100200000D01*
G75*
G02*
X130775000Y-100350000I0J-150000D01*
G01*
X130775000Y-100650000D01*
G75*
G02*
X130625000Y-100800000I-150000J0D01*
G01*
X129375000Y-100800000D01*
G75*
G02*
X129225000Y-100650000I0J150000D01*
G01*
X129225000Y-100350000D01*
G75*
G02*
X129375000Y-100200000I150000J0D01*
G01*
G37*
%TD.AperFunction*%
%TO.P,J2,3*%
%TO.N,i2c_scl*%
%TA.AperFunction,SMDPad,CuDef*%
G36*
G01*
X129375000Y-101200000D02*
X130625000Y-101200000D01*
G75*
G02*
X130775000Y-101350000I0J-150000D01*
G01*
X130775000Y-101650000D01*
G75*
G02*
X130625000Y-101800000I-150000J0D01*
G01*
X129375000Y-101800000D01*
G75*
G02*
X129225000Y-101650000I0J150000D01*
G01*
X129225000Y-101350000D01*
G75*
G02*
X129375000Y-101200000I150000J0D01*
G01*
G37*
%TD.AperFunction*%
%TO.P,J2,4*%
%TO.N,i2c_sda*%
%TA.AperFunction,SMDPad,CuDef*%
G36*
G01*
X129375000Y-102200000D02*
X130625000Y-102200000D01*
G75*
G02*
X130775000Y-102350000I0J-150000D01*
G01*
X130775000Y-102650000D01*
G75*
G02*
X130625000Y-102800000I-150000J0D01*
G01*
X129375000Y-102800000D01*
G75*
G02*
X129225000Y-102650000I0J150000D01*
G01*
X129225000Y-102350000D01*
G75*
G02*
X129375000Y-102200000I150000J0D01*
G01*
G37*
%TD.AperFunction*%
%TO.P,J2,MP*%
%TO.N,N/C*%
%TA.AperFunction,SMDPad,CuDef*%
G36*
G01*
X125474999Y-97600000D02*
X126775001Y-97600000D01*
G75*
G02*
X127025000Y-97849999I0J-249999D01*
G01*
X127025000Y-98550001D01*
G75*
G02*
X126775001Y-98800000I-249999J0D01*
G01*
X125474999Y-98800000D01*
G75*
G02*
X125225000Y-98550001I0J249999D01*
G01*
X125225000Y-97849999D01*
G75*
G02*
X125474999Y-97600000I249999J0D01*
G01*
G37*
%TD.AperFunction*%
%TA.AperFunction,SMDPad,CuDef*%
G36*
G01*
X125474999Y-103200000D02*
X126775001Y-103200000D01*
G75*
G02*
X127025000Y-103449999I0J-249999D01*
G01*
X127025000Y-104150001D01*
G75*
G02*
X126775001Y-104400000I-249999J0D01*
G01*
X125474999Y-104400000D01*
G75*
G02*
X125225000Y-104150001I0J249999D01*
G01*
X125225000Y-103449999D01*
G75*
G02*
X125474999Y-103200000I249999J0D01*
G01*
G37*
%TD.AperFunction*%
%TD*%
%TO.P,J1,4*%
%TO.N,hmi_error*%
%TA.AperFunction,ComponentPad*%
G36*
G01*
X142255000Y-94337500D02*
X142255000Y-94662500D01*
G75*
G02*
X142092500Y-94825000I-162500J0D01*
G01*
X141567500Y-94825000D01*
G75*
G02*
X141405000Y-94662500I0J162500D01*
G01*
X141405000Y-94337500D01*
G75*
G02*
X141567500Y-94175000I162500J0D01*
G01*
X142092500Y-94175000D01*
G75*
G02*
X142255000Y-94337500I0J-162500D01*
G01*
G37*
%TD.AperFunction*%
%TO.P,J1,3*%
%TO.N,nrst*%
%TA.AperFunction,ComponentPad*%
G36*
G01*
X142255000Y-95337500D02*
X142255000Y-95662500D01*
G75*
G02*
X142092500Y-95825000I-162500J0D01*
G01*
X141567500Y-95825000D01*
G75*
G02*
X141405000Y-95662500I0J162500D01*
G01*
X141405000Y-95337500D01*
G75*
G02*
X141567500Y-95175000I162500J0D01*
G01*
X142092500Y-95175000D01*
G75*
G02*
X142255000Y-95337500I0J-162500D01*
G01*
G37*
%TD.AperFunction*%
%TO.P,J1,2*%
%TO.N,GND*%
%TA.AperFunction,ComponentPad*%
G36*
G01*
X142255000Y-96337500D02*
X142255000Y-96662500D01*
G75*
G02*
X142092500Y-96825000I-162500J0D01*
G01*
X141567500Y-96825000D01*
G75*
G02*
X141405000Y-96662500I0J162500D01*
G01*
X141405000Y-96337500D01*
G75*
G02*
X141567500Y-96175000I162500J0D01*
G01*
X142092500Y-96175000D01*
G75*
G02*
X142255000Y-96337500I0J-162500D01*
G01*
G37*
%TD.AperFunction*%
D10*
%TO.P,J1,1*%
%TO.N,+5V*%
X141830000Y-97500000D03*
%TD*%
%TO.P,R12,2*%
%TO.N,Net-(D2-Pad1)*%
%TA.AperFunction,SMDPad,CuDef*%
G36*
G01*
X127075000Y-96095000D02*
X127075000Y-96645000D01*
G75*
G02*
X126875000Y-96845000I-200000J0D01*
G01*
X126475000Y-96845000D01*
G75*
G02*
X126275000Y-96645000I0J200000D01*
G01*
X126275000Y-96095000D01*
G75*
G02*
X126475000Y-95895000I200000J0D01*
G01*
X126875000Y-95895000D01*
G75*
G02*
X127075000Y-96095000I0J-200000D01*
G01*
G37*
%TD.AperFunction*%
%TO.P,R12,1*%
%TO.N,hmi_error*%
%TA.AperFunction,SMDPad,CuDef*%
G36*
G01*
X128725000Y-96095000D02*
X128725000Y-96645000D01*
G75*
G02*
X128525000Y-96845000I-200000J0D01*
G01*
X128125000Y-96845000D01*
G75*
G02*
X127925000Y-96645000I0J200000D01*
G01*
X127925000Y-96095000D01*
G75*
G02*
X128125000Y-95895000I200000J0D01*
G01*
X128525000Y-95895000D01*
G75*
G02*
X128725000Y-96095000I0J-200000D01*
G01*
G37*
%TD.AperFunction*%
%TD*%
%TO.P,D2,2*%
%TO.N,+5V*%
%TA.AperFunction,SMDPad,CuDef*%
G36*
G01*
X127150000Y-94643750D02*
X127150000Y-95156250D01*
G75*
G02*
X126931250Y-95375000I-218750J0D01*
G01*
X126493750Y-95375000D01*
G75*
G02*
X126275000Y-95156250I0J218750D01*
G01*
X126275000Y-94643750D01*
G75*
G02*
X126493750Y-94425000I218750J0D01*
G01*
X126931250Y-94425000D01*
G75*
G02*
X127150000Y-94643750I0J-218750D01*
G01*
G37*
%TD.AperFunction*%
%TO.P,D2,1*%
%TO.N,Net-(D2-Pad1)*%
%TA.AperFunction,SMDPad,CuDef*%
G36*
G01*
X128725000Y-94643750D02*
X128725000Y-95156250D01*
G75*
G02*
X128506250Y-95375000I-218750J0D01*
G01*
X128068750Y-95375000D01*
G75*
G02*
X127850000Y-95156250I0J218750D01*
G01*
X127850000Y-94643750D01*
G75*
G02*
X128068750Y-94425000I218750J0D01*
G01*
X128506250Y-94425000D01*
G75*
G02*
X128725000Y-94643750I0J-218750D01*
G01*
G37*
%TD.AperFunction*%
%TD*%
%TO.P,R11,2*%
%TO.N,Net-(D1-Pad1)*%
%TA.AperFunction,SMDPad,CuDef*%
G36*
G01*
X127075000Y-105355000D02*
X127075000Y-105905000D01*
G75*
G02*
X126875000Y-106105000I-200000J0D01*
G01*
X126475000Y-106105000D01*
G75*
G02*
X126275000Y-105905000I0J200000D01*
G01*
X126275000Y-105355000D01*
G75*
G02*
X126475000Y-105155000I200000J0D01*
G01*
X126875000Y-105155000D01*
G75*
G02*
X127075000Y-105355000I0J-200000D01*
G01*
G37*
%TD.AperFunction*%
%TO.P,R11,1*%
%TO.N,hmi_status*%
%TA.AperFunction,SMDPad,CuDef*%
G36*
G01*
X128725000Y-105355000D02*
X128725000Y-105905000D01*
G75*
G02*
X128525000Y-106105000I-200000J0D01*
G01*
X128125000Y-106105000D01*
G75*
G02*
X127925000Y-105905000I0J200000D01*
G01*
X127925000Y-105355000D01*
G75*
G02*
X128125000Y-105155000I200000J0D01*
G01*
X128525000Y-105155000D01*
G75*
G02*
X128725000Y-105355000I0J-200000D01*
G01*
G37*
%TD.AperFunction*%
%TD*%
%TO.P,D1,2*%
%TO.N,+5V*%
%TA.AperFunction,SMDPad,CuDef*%
G36*
G01*
X127150000Y-106833750D02*
X127150000Y-107346250D01*
G75*
G02*
X126931250Y-107565000I-218750J0D01*
G01*
X126493750Y-107565000D01*
G75*
G02*
X126275000Y-107346250I0J218750D01*
G01*
X126275000Y-106833750D01*
G75*
G02*
X126493750Y-106615000I218750J0D01*
G01*
X126931250Y-106615000D01*
G75*
G02*
X127150000Y-106833750I0J-218750D01*
G01*
G37*
%TD.AperFunction*%
%TO.P,D1,1*%
%TO.N,Net-(D1-Pad1)*%
%TA.AperFunction,SMDPad,CuDef*%
G36*
G01*
X128725000Y-106833750D02*
X128725000Y-107346250D01*
G75*
G02*
X128506250Y-107565000I-218750J0D01*
G01*
X128068750Y-107565000D01*
G75*
G02*
X127850000Y-107346250I0J218750D01*
G01*
X127850000Y-106833750D01*
G75*
G02*
X128068750Y-106615000I218750J0D01*
G01*
X128506250Y-106615000D01*
G75*
G02*
X128725000Y-106833750I0J-218750D01*
G01*
G37*
%TD.AperFunction*%
%TD*%
%TO.P,R10,2*%
%TO.N,Net-(R10-Pad2)*%
%TA.AperFunction,SMDPad,CuDef*%
G36*
G01*
X133365000Y-94390000D02*
X132995000Y-94390000D01*
G75*
G02*
X132860000Y-94255000I0J135000D01*
G01*
X132860000Y-93985000D01*
G75*
G02*
X132995000Y-93850000I135000J0D01*
G01*
X133365000Y-93850000D01*
G75*
G02*
X133500000Y-93985000I0J-135000D01*
G01*
X133500000Y-94255000D01*
G75*
G02*
X133365000Y-94390000I-135000J0D01*
G01*
G37*
%TD.AperFunction*%
%TO.P,R10,1*%
%TO.N,e22_nrst*%
%TA.AperFunction,SMDPad,CuDef*%
G36*
G01*
X133365000Y-95410000D02*
X132995000Y-95410000D01*
G75*
G02*
X132860000Y-95275000I0J135000D01*
G01*
X132860000Y-95005000D01*
G75*
G02*
X132995000Y-94870000I135000J0D01*
G01*
X133365000Y-94870000D01*
G75*
G02*
X133500000Y-95005000I0J-135000D01*
G01*
X133500000Y-95275000D01*
G75*
G02*
X133365000Y-95410000I-135000J0D01*
G01*
G37*
%TD.AperFunction*%
%TD*%
%TO.P,R9,2*%
%TO.N,Net-(R9-Pad2)*%
%TA.AperFunction,SMDPad,CuDef*%
G36*
G01*
X132105000Y-94380000D02*
X131735000Y-94380000D01*
G75*
G02*
X131600000Y-94245000I0J135000D01*
G01*
X131600000Y-93975000D01*
G75*
G02*
X131735000Y-93840000I135000J0D01*
G01*
X132105000Y-93840000D01*
G75*
G02*
X132240000Y-93975000I0J-135000D01*
G01*
X132240000Y-94245000D01*
G75*
G02*
X132105000Y-94380000I-135000J0D01*
G01*
G37*
%TD.AperFunction*%
%TO.P,R9,1*%
%TO.N,e22_busy*%
%TA.AperFunction,SMDPad,CuDef*%
G36*
G01*
X132105000Y-95400000D02*
X131735000Y-95400000D01*
G75*
G02*
X131600000Y-95265000I0J135000D01*
G01*
X131600000Y-94995000D01*
G75*
G02*
X131735000Y-94860000I135000J0D01*
G01*
X132105000Y-94860000D01*
G75*
G02*
X132240000Y-94995000I0J-135000D01*
G01*
X132240000Y-95265000D01*
G75*
G02*
X132105000Y-95400000I-135000J0D01*
G01*
G37*
%TD.AperFunction*%
%TD*%
%TO.P,R8,2*%
%TO.N,Net-(R8-Pad2)*%
%TA.AperFunction,SMDPad,CuDef*%
G36*
G01*
X134255000Y-107610000D02*
X134625000Y-107610000D01*
G75*
G02*
X134760000Y-107745000I0J-135000D01*
G01*
X134760000Y-108015000D01*
G75*
G02*
X134625000Y-108150000I-135000J0D01*
G01*
X134255000Y-108150000D01*
G75*
G02*
X134120000Y-108015000I0J135000D01*
G01*
X134120000Y-107745000D01*
G75*
G02*
X134255000Y-107610000I135000J0D01*
G01*
G37*
%TD.AperFunction*%
%TO.P,R8,1*%
%TO.N,e22_dio2*%
%TA.AperFunction,SMDPad,CuDef*%
G36*
G01*
X134255000Y-106590000D02*
X134625000Y-106590000D01*
G75*
G02*
X134760000Y-106725000I0J-135000D01*
G01*
X134760000Y-106995000D01*
G75*
G02*
X134625000Y-107130000I-135000J0D01*
G01*
X134255000Y-107130000D01*
G75*
G02*
X134120000Y-106995000I0J135000D01*
G01*
X134120000Y-106725000D01*
G75*
G02*
X134255000Y-106590000I135000J0D01*
G01*
G37*
%TD.AperFunction*%
%TD*%
%TO.P,R7,2*%
%TO.N,Net-(R7-Pad2)*%
%TA.AperFunction,SMDPad,CuDef*%
G36*
G01*
X130815000Y-94390000D02*
X130445000Y-94390000D01*
G75*
G02*
X130310000Y-94255000I0J135000D01*
G01*
X130310000Y-93985000D01*
G75*
G02*
X130445000Y-93850000I135000J0D01*
G01*
X130815000Y-93850000D01*
G75*
G02*
X130950000Y-93985000I0J-135000D01*
G01*
X130950000Y-94255000D01*
G75*
G02*
X130815000Y-94390000I-135000J0D01*
G01*
G37*
%TD.AperFunction*%
%TO.P,R7,1*%
%TO.N,e22_dio1*%
%TA.AperFunction,SMDPad,CuDef*%
G36*
G01*
X130815000Y-95410000D02*
X130445000Y-95410000D01*
G75*
G02*
X130310000Y-95275000I0J135000D01*
G01*
X130310000Y-95005000D01*
G75*
G02*
X130445000Y-94870000I135000J0D01*
G01*
X130815000Y-94870000D01*
G75*
G02*
X130950000Y-95005000I0J-135000D01*
G01*
X130950000Y-95275000D01*
G75*
G02*
X130815000Y-95410000I-135000J0D01*
G01*
G37*
%TD.AperFunction*%
%TD*%
%TO.P,R6,2*%
%TO.N,Net-(R6-Pad2)*%
%TA.AperFunction,SMDPad,CuDef*%
G36*
G01*
X135525000Y-107600000D02*
X135895000Y-107600000D01*
G75*
G02*
X136030000Y-107735000I0J-135000D01*
G01*
X136030000Y-108005000D01*
G75*
G02*
X135895000Y-108140000I-135000J0D01*
G01*
X135525000Y-108140000D01*
G75*
G02*
X135390000Y-108005000I0J135000D01*
G01*
X135390000Y-107735000D01*
G75*
G02*
X135525000Y-107600000I135000J0D01*
G01*
G37*
%TD.AperFunction*%
%TO.P,R6,1*%
%TO.N,e22_txen*%
%TA.AperFunction,SMDPad,CuDef*%
G36*
G01*
X135525000Y-106580000D02*
X135895000Y-106580000D01*
G75*
G02*
X136030000Y-106715000I0J-135000D01*
G01*
X136030000Y-106985000D01*
G75*
G02*
X135895000Y-107120000I-135000J0D01*
G01*
X135525000Y-107120000D01*
G75*
G02*
X135390000Y-106985000I0J135000D01*
G01*
X135390000Y-106715000D01*
G75*
G02*
X135525000Y-106580000I135000J0D01*
G01*
G37*
%TD.AperFunction*%
%TD*%
%TO.P,R5,2*%
%TO.N,Net-(R5-Pad2)*%
%TA.AperFunction,SMDPad,CuDef*%
G36*
G01*
X136795000Y-107620000D02*
X137165000Y-107620000D01*
G75*
G02*
X137300000Y-107755000I0J-135000D01*
G01*
X137300000Y-108025000D01*
G75*
G02*
X137165000Y-108160000I-135000J0D01*
G01*
X136795000Y-108160000D01*
G75*
G02*
X136660000Y-108025000I0J135000D01*
G01*
X136660000Y-107755000D01*
G75*
G02*
X136795000Y-107620000I135000J0D01*
G01*
G37*
%TD.AperFunction*%
%TO.P,R5,1*%
%TO.N,e22_rxen*%
%TA.AperFunction,SMDPad,CuDef*%
G36*
G01*
X136795000Y-106600000D02*
X137165000Y-106600000D01*
G75*
G02*
X137300000Y-106735000I0J-135000D01*
G01*
X137300000Y-107005000D01*
G75*
G02*
X137165000Y-107140000I-135000J0D01*
G01*
X136795000Y-107140000D01*
G75*
G02*
X136660000Y-107005000I0J135000D01*
G01*
X136660000Y-106735000D01*
G75*
G02*
X136795000Y-106600000I135000J0D01*
G01*
G37*
%TD.AperFunction*%
%TD*%
%TO.P,R4,2*%
%TO.N,spi_mosi*%
%TA.AperFunction,SMDPad,CuDef*%
G36*
G01*
X135525000Y-94870000D02*
X135895000Y-94870000D01*
G75*
G02*
X136030000Y-95005000I0J-135000D01*
G01*
X136030000Y-95275000D01*
G75*
G02*
X135895000Y-95410000I-135000J0D01*
G01*
X135525000Y-95410000D01*
G75*
G02*
X135390000Y-95275000I0J135000D01*
G01*
X135390000Y-95005000D01*
G75*
G02*
X135525000Y-94870000I135000J0D01*
G01*
G37*
%TD.AperFunction*%
%TO.P,R4,1*%
%TO.N,Net-(R4-Pad1)*%
%TA.AperFunction,SMDPad,CuDef*%
G36*
G01*
X135525000Y-93850000D02*
X135895000Y-93850000D01*
G75*
G02*
X136030000Y-93985000I0J-135000D01*
G01*
X136030000Y-94255000D01*
G75*
G02*
X135895000Y-94390000I-135000J0D01*
G01*
X135525000Y-94390000D01*
G75*
G02*
X135390000Y-94255000I0J135000D01*
G01*
X135390000Y-93985000D01*
G75*
G02*
X135525000Y-93850000I135000J0D01*
G01*
G37*
%TD.AperFunction*%
%TD*%
%TO.P,R3,2*%
%TO.N,spi_miso*%
%TA.AperFunction,SMDPad,CuDef*%
G36*
G01*
X134265000Y-94860000D02*
X134635000Y-94860000D01*
G75*
G02*
X134770000Y-94995000I0J-135000D01*
G01*
X134770000Y-95265000D01*
G75*
G02*
X134635000Y-95400000I-135000J0D01*
G01*
X134265000Y-95400000D01*
G75*
G02*
X134130000Y-95265000I0J135000D01*
G01*
X134130000Y-94995000D01*
G75*
G02*
X134265000Y-94860000I135000J0D01*
G01*
G37*
%TD.AperFunction*%
%TO.P,R3,1*%
%TO.N,Net-(R3-Pad1)*%
%TA.AperFunction,SMDPad,CuDef*%
G36*
G01*
X134265000Y-93840000D02*
X134635000Y-93840000D01*
G75*
G02*
X134770000Y-93975000I0J-135000D01*
G01*
X134770000Y-94245000D01*
G75*
G02*
X134635000Y-94380000I-135000J0D01*
G01*
X134265000Y-94380000D01*
G75*
G02*
X134130000Y-94245000I0J135000D01*
G01*
X134130000Y-93975000D01*
G75*
G02*
X134265000Y-93840000I135000J0D01*
G01*
G37*
%TD.AperFunction*%
%TD*%
%TO.P,R2,2*%
%TO.N,spi_sck*%
%TA.AperFunction,SMDPad,CuDef*%
G36*
G01*
X136795000Y-94860000D02*
X137165000Y-94860000D01*
G75*
G02*
X137300000Y-94995000I0J-135000D01*
G01*
X137300000Y-95265000D01*
G75*
G02*
X137165000Y-95400000I-135000J0D01*
G01*
X136795000Y-95400000D01*
G75*
G02*
X136660000Y-95265000I0J135000D01*
G01*
X136660000Y-94995000D01*
G75*
G02*
X136795000Y-94860000I135000J0D01*
G01*
G37*
%TD.AperFunction*%
%TO.P,R2,1*%
%TO.N,Net-(R2-Pad1)*%
%TA.AperFunction,SMDPad,CuDef*%
G36*
G01*
X136795000Y-93840000D02*
X137165000Y-93840000D01*
G75*
G02*
X137300000Y-93975000I0J-135000D01*
G01*
X137300000Y-94245000D01*
G75*
G02*
X137165000Y-94380000I-135000J0D01*
G01*
X136795000Y-94380000D01*
G75*
G02*
X136660000Y-94245000I0J135000D01*
G01*
X136660000Y-93975000D01*
G75*
G02*
X136795000Y-93840000I135000J0D01*
G01*
G37*
%TD.AperFunction*%
%TD*%
%TO.P,R1,2*%
%TO.N,e22_nss*%
%TA.AperFunction,SMDPad,CuDef*%
G36*
G01*
X138065000Y-94860000D02*
X138435000Y-94860000D01*
G75*
G02*
X138570000Y-94995000I0J-135000D01*
G01*
X138570000Y-95265000D01*
G75*
G02*
X138435000Y-95400000I-135000J0D01*
G01*
X138065000Y-95400000D01*
G75*
G02*
X137930000Y-95265000I0J135000D01*
G01*
X137930000Y-94995000D01*
G75*
G02*
X138065000Y-94860000I135000J0D01*
G01*
G37*
%TD.AperFunction*%
%TO.P,R1,1*%
%TO.N,Net-(R1-Pad1)*%
%TA.AperFunction,SMDPad,CuDef*%
G36*
G01*
X138065000Y-93840000D02*
X138435000Y-93840000D01*
G75*
G02*
X138570000Y-93975000I0J-135000D01*
G01*
X138570000Y-94245000D01*
G75*
G02*
X138435000Y-94380000I-135000J0D01*
G01*
X138065000Y-94380000D01*
G75*
G02*
X137930000Y-94245000I0J135000D01*
G01*
X137930000Y-93975000D01*
G75*
G02*
X138065000Y-93840000I135000J0D01*
G01*
G37*
%TD.AperFunction*%
%TD*%
%TO.P,C5,2*%
%TO.N,GND*%
%TA.AperFunction,SMDPad,CuDef*%
G36*
G01*
X131435000Y-106970000D02*
X131435000Y-107470000D01*
G75*
G02*
X131210000Y-107695000I-225000J0D01*
G01*
X130760000Y-107695000D01*
G75*
G02*
X130535000Y-107470000I0J225000D01*
G01*
X130535000Y-106970000D01*
G75*
G02*
X130760000Y-106745000I225000J0D01*
G01*
X131210000Y-106745000D01*
G75*
G02*
X131435000Y-106970000I0J-225000D01*
G01*
G37*
%TD.AperFunction*%
%TO.P,C5,1*%
%TO.N,+3V3*%
%TA.AperFunction,SMDPad,CuDef*%
G36*
G01*
X132985000Y-106970000D02*
X132985000Y-107470000D01*
G75*
G02*
X132760000Y-107695000I-225000J0D01*
G01*
X132310000Y-107695000D01*
G75*
G02*
X132085000Y-107470000I0J225000D01*
G01*
X132085000Y-106970000D01*
G75*
G02*
X132310000Y-106745000I225000J0D01*
G01*
X132760000Y-106745000D01*
G75*
G02*
X132985000Y-106970000I0J-225000D01*
G01*
G37*
%TD.AperFunction*%
%TD*%
%TO.P,C3,2*%
%TO.N,GND*%
%TA.AperFunction,SMDPad,CuDef*%
G36*
G01*
X144550000Y-103285000D02*
X144550000Y-104235000D01*
G75*
G02*
X144300000Y-104485000I-250000J0D01*
G01*
X143800000Y-104485000D01*
G75*
G02*
X143550000Y-104235000I0J250000D01*
G01*
X143550000Y-103285000D01*
G75*
G02*
X143800000Y-103035000I250000J0D01*
G01*
X144300000Y-103035000D01*
G75*
G02*
X144550000Y-103285000I0J-250000D01*
G01*
G37*
%TD.AperFunction*%
%TO.P,C3,1*%
%TO.N,+5V*%
%TA.AperFunction,SMDPad,CuDef*%
G36*
G01*
X146450000Y-103285000D02*
X146450000Y-104235000D01*
G75*
G02*
X146200000Y-104485000I-250000J0D01*
G01*
X145700000Y-104485000D01*
G75*
G02*
X145450000Y-104235000I0J250000D01*
G01*
X145450000Y-103285000D01*
G75*
G02*
X145700000Y-103035000I250000J0D01*
G01*
X146200000Y-103035000D01*
G75*
G02*
X146450000Y-103285000I0J-250000D01*
G01*
G37*
%TD.AperFunction*%
%TD*%
D11*
%TO.P,U3,3*%
%TO.N,+5V*%
X146000000Y-101000000D03*
%TO.P,U3,2*%
%TO.N,+3V3*%
X144000000Y-101950000D03*
%TO.P,U3,1*%
%TO.N,GND*%
X144000000Y-100050000D03*
%TD*%
%TO.P,C4,2*%
%TO.N,GND*%
%TA.AperFunction,SMDPad,CuDef*%
G36*
G01*
X142745000Y-100560000D02*
X141795000Y-100560000D01*
G75*
G02*
X141545000Y-100310000I0J250000D01*
G01*
X141545000Y-99810000D01*
G75*
G02*
X141795000Y-99560000I250000J0D01*
G01*
X142745000Y-99560000D01*
G75*
G02*
X142995000Y-99810000I0J-250000D01*
G01*
X142995000Y-100310000D01*
G75*
G02*
X142745000Y-100560000I-250000J0D01*
G01*
G37*
%TD.AperFunction*%
%TO.P,C4,1*%
%TO.N,+3V3*%
%TA.AperFunction,SMDPad,CuDef*%
G36*
G01*
X142745000Y-102460000D02*
X141795000Y-102460000D01*
G75*
G02*
X141545000Y-102210000I0J250000D01*
G01*
X141545000Y-101710000D01*
G75*
G02*
X141795000Y-101460000I250000J0D01*
G01*
X142745000Y-101460000D01*
G75*
G02*
X142995000Y-101710000I0J-250000D01*
G01*
X142995000Y-102210000D01*
G75*
G02*
X142745000Y-102460000I-250000J0D01*
G01*
G37*
%TD.AperFunction*%
%TD*%
%TO.P,C2,2*%
%TO.N,GND*%
%TA.AperFunction,SMDPad,CuDef*%
G36*
G01*
X138990000Y-102795000D02*
X139490000Y-102795000D01*
G75*
G02*
X139715000Y-103020000I0J-225000D01*
G01*
X139715000Y-103470000D01*
G75*
G02*
X139490000Y-103695000I-225000J0D01*
G01*
X138990000Y-103695000D01*
G75*
G02*
X138765000Y-103470000I0J225000D01*
G01*
X138765000Y-103020000D01*
G75*
G02*
X138990000Y-102795000I225000J0D01*
G01*
G37*
%TD.AperFunction*%
%TO.P,C2,1*%
%TO.N,+5V*%
%TA.AperFunction,SMDPad,CuDef*%
G36*
G01*
X138990000Y-101245000D02*
X139490000Y-101245000D01*
G75*
G02*
X139715000Y-101470000I0J-225000D01*
G01*
X139715000Y-101920000D01*
G75*
G02*
X139490000Y-102145000I-225000J0D01*
G01*
X138990000Y-102145000D01*
G75*
G02*
X138765000Y-101920000I0J225000D01*
G01*
X138765000Y-101470000D01*
G75*
G02*
X138990000Y-101245000I225000J0D01*
G01*
G37*
%TD.AperFunction*%
%TD*%
%TO.P,C1,2*%
%TO.N,GND*%
%TA.AperFunction,SMDPad,CuDef*%
G36*
G01*
X139490000Y-99145000D02*
X138990000Y-99145000D01*
G75*
G02*
X138765000Y-98920000I0J225000D01*
G01*
X138765000Y-98470000D01*
G75*
G02*
X138990000Y-98245000I225000J0D01*
G01*
X139490000Y-98245000D01*
G75*
G02*
X139715000Y-98470000I0J-225000D01*
G01*
X139715000Y-98920000D01*
G75*
G02*
X139490000Y-99145000I-225000J0D01*
G01*
G37*
%TD.AperFunction*%
%TO.P,C1,1*%
%TO.N,vcap*%
%TA.AperFunction,SMDPad,CuDef*%
G36*
G01*
X139490000Y-100695000D02*
X138990000Y-100695000D01*
G75*
G02*
X138765000Y-100470000I0J225000D01*
G01*
X138765000Y-100020000D01*
G75*
G02*
X138990000Y-99795000I225000J0D01*
G01*
X139490000Y-99795000D01*
G75*
G02*
X139715000Y-100020000I0J-225000D01*
G01*
X139715000Y-100470000D01*
G75*
G02*
X139490000Y-100695000I-225000J0D01*
G01*
G37*
%TD.AperFunction*%
%TD*%
%TO.P,U1,1*%
%TO.N,e22_dio1*%
%TA.AperFunction,SMDPad,CuDef*%
G36*
G01*
X132175000Y-104600000D02*
X131975000Y-104600000D01*
G75*
G02*
X131875000Y-104500000I0J100000D01*
G01*
X131875000Y-103225000D01*
G75*
G02*
X131975000Y-103125000I100000J0D01*
G01*
X132175000Y-103125000D01*
G75*
G02*
X132275000Y-103225000I0J-100000D01*
G01*
X132275000Y-104500000D01*
G75*
G02*
X132175000Y-104600000I-100000J0D01*
G01*
G37*
%TD.AperFunction*%
%TO.P,U1,2*%
%TO.N,i2c_scl*%
%TA.AperFunction,SMDPad,CuDef*%
G36*
G01*
X132825000Y-104600000D02*
X132625000Y-104600000D01*
G75*
G02*
X132525000Y-104500000I0J100000D01*
G01*
X132525000Y-103225000D01*
G75*
G02*
X132625000Y-103125000I100000J0D01*
G01*
X132825000Y-103125000D01*
G75*
G02*
X132925000Y-103225000I0J-100000D01*
G01*
X132925000Y-104500000D01*
G75*
G02*
X132825000Y-104600000I-100000J0D01*
G01*
G37*
%TD.AperFunction*%
%TO.P,U1,3*%
%TO.N,i2c_sda*%
%TA.AperFunction,SMDPad,CuDef*%
G36*
G01*
X133475000Y-104600000D02*
X133275000Y-104600000D01*
G75*
G02*
X133175000Y-104500000I0J100000D01*
G01*
X133175000Y-103225000D01*
G75*
G02*
X133275000Y-103125000I100000J0D01*
G01*
X133475000Y-103125000D01*
G75*
G02*
X133575000Y-103225000I0J-100000D01*
G01*
X133575000Y-104500000D01*
G75*
G02*
X133475000Y-104600000I-100000J0D01*
G01*
G37*
%TD.AperFunction*%
%TO.P,U1,4*%
%TO.N,nrst*%
%TA.AperFunction,SMDPad,CuDef*%
G36*
G01*
X134125000Y-104600000D02*
X133925000Y-104600000D01*
G75*
G02*
X133825000Y-104500000I0J100000D01*
G01*
X133825000Y-103225000D01*
G75*
G02*
X133925000Y-103125000I100000J0D01*
G01*
X134125000Y-103125000D01*
G75*
G02*
X134225000Y-103225000I0J-100000D01*
G01*
X134225000Y-104500000D01*
G75*
G02*
X134125000Y-104600000I-100000J0D01*
G01*
G37*
%TD.AperFunction*%
%TO.P,U1,5*%
%TO.N,e22_dio2*%
%TA.AperFunction,SMDPad,CuDef*%
G36*
G01*
X134775000Y-104600000D02*
X134575000Y-104600000D01*
G75*
G02*
X134475000Y-104500000I0J100000D01*
G01*
X134475000Y-103225000D01*
G75*
G02*
X134575000Y-103125000I100000J0D01*
G01*
X134775000Y-103125000D01*
G75*
G02*
X134875000Y-103225000I0J-100000D01*
G01*
X134875000Y-104500000D01*
G75*
G02*
X134775000Y-104600000I-100000J0D01*
G01*
G37*
%TD.AperFunction*%
%TO.P,U1,6*%
%TO.N,e22_txen*%
%TA.AperFunction,SMDPad,CuDef*%
G36*
G01*
X135425000Y-104600000D02*
X135225000Y-104600000D01*
G75*
G02*
X135125000Y-104500000I0J100000D01*
G01*
X135125000Y-103225000D01*
G75*
G02*
X135225000Y-103125000I100000J0D01*
G01*
X135425000Y-103125000D01*
G75*
G02*
X135525000Y-103225000I0J-100000D01*
G01*
X135525000Y-104500000D01*
G75*
G02*
X135425000Y-104600000I-100000J0D01*
G01*
G37*
%TD.AperFunction*%
%TO.P,U1,7*%
%TO.N,GND*%
%TA.AperFunction,SMDPad,CuDef*%
G36*
G01*
X136075000Y-104600000D02*
X135875000Y-104600000D01*
G75*
G02*
X135775000Y-104500000I0J100000D01*
G01*
X135775000Y-103225000D01*
G75*
G02*
X135875000Y-103125000I100000J0D01*
G01*
X136075000Y-103125000D01*
G75*
G02*
X136175000Y-103225000I0J-100000D01*
G01*
X136175000Y-104500000D01*
G75*
G02*
X136075000Y-104600000I-100000J0D01*
G01*
G37*
%TD.AperFunction*%
%TO.P,U1,8*%
%TO.N,vcap*%
%TA.AperFunction,SMDPad,CuDef*%
G36*
G01*
X136725000Y-104600000D02*
X136525000Y-104600000D01*
G75*
G02*
X136425000Y-104500000I0J100000D01*
G01*
X136425000Y-103225000D01*
G75*
G02*
X136525000Y-103125000I100000J0D01*
G01*
X136725000Y-103125000D01*
G75*
G02*
X136825000Y-103225000I0J-100000D01*
G01*
X136825000Y-104500000D01*
G75*
G02*
X136725000Y-104600000I-100000J0D01*
G01*
G37*
%TD.AperFunction*%
%TO.P,U1,9*%
%TO.N,+5V*%
%TA.AperFunction,SMDPad,CuDef*%
G36*
G01*
X137375000Y-104600000D02*
X137175000Y-104600000D01*
G75*
G02*
X137075000Y-104500000I0J100000D01*
G01*
X137075000Y-103225000D01*
G75*
G02*
X137175000Y-103125000I100000J0D01*
G01*
X137375000Y-103125000D01*
G75*
G02*
X137475000Y-103225000I0J-100000D01*
G01*
X137475000Y-104500000D01*
G75*
G02*
X137375000Y-104600000I-100000J0D01*
G01*
G37*
%TD.AperFunction*%
%TO.P,U1,10*%
%TO.N,e22_rxen*%
%TA.AperFunction,SMDPad,CuDef*%
G36*
G01*
X138025000Y-104600000D02*
X137825000Y-104600000D01*
G75*
G02*
X137725000Y-104500000I0J100000D01*
G01*
X137725000Y-103225000D01*
G75*
G02*
X137825000Y-103125000I100000J0D01*
G01*
X138025000Y-103125000D01*
G75*
G02*
X138125000Y-103225000I0J-100000D01*
G01*
X138125000Y-104500000D01*
G75*
G02*
X138025000Y-104600000I-100000J0D01*
G01*
G37*
%TD.AperFunction*%
%TO.P,U1,11*%
%TO.N,i2c_sda*%
%TA.AperFunction,SMDPad,CuDef*%
G36*
G01*
X138025000Y-98875000D02*
X137825000Y-98875000D01*
G75*
G02*
X137725000Y-98775000I0J100000D01*
G01*
X137725000Y-97500000D01*
G75*
G02*
X137825000Y-97400000I100000J0D01*
G01*
X138025000Y-97400000D01*
G75*
G02*
X138125000Y-97500000I0J-100000D01*
G01*
X138125000Y-98775000D01*
G75*
G02*
X138025000Y-98875000I-100000J0D01*
G01*
G37*
%TD.AperFunction*%
%TO.P,U1,12*%
%TO.N,i2c_scl*%
%TA.AperFunction,SMDPad,CuDef*%
G36*
G01*
X137375000Y-98875000D02*
X137175000Y-98875000D01*
G75*
G02*
X137075000Y-98775000I0J100000D01*
G01*
X137075000Y-97500000D01*
G75*
G02*
X137175000Y-97400000I100000J0D01*
G01*
X137375000Y-97400000D01*
G75*
G02*
X137475000Y-97500000I0J-100000D01*
G01*
X137475000Y-98775000D01*
G75*
G02*
X137375000Y-98875000I-100000J0D01*
G01*
G37*
%TD.AperFunction*%
%TO.P,U1,13*%
%TO.N,hmi_status*%
%TA.AperFunction,SMDPad,CuDef*%
G36*
G01*
X136725000Y-98875000D02*
X136525000Y-98875000D01*
G75*
G02*
X136425000Y-98775000I0J100000D01*
G01*
X136425000Y-97500000D01*
G75*
G02*
X136525000Y-97400000I100000J0D01*
G01*
X136725000Y-97400000D01*
G75*
G02*
X136825000Y-97500000I0J-100000D01*
G01*
X136825000Y-98775000D01*
G75*
G02*
X136725000Y-98875000I-100000J0D01*
G01*
G37*
%TD.AperFunction*%
%TO.P,U1,14*%
%TO.N,e22_nss*%
%TA.AperFunction,SMDPad,CuDef*%
G36*
G01*
X136075000Y-98875000D02*
X135875000Y-98875000D01*
G75*
G02*
X135775000Y-98775000I0J100000D01*
G01*
X135775000Y-97500000D01*
G75*
G02*
X135875000Y-97400000I100000J0D01*
G01*
X136075000Y-97400000D01*
G75*
G02*
X136175000Y-97500000I0J-100000D01*
G01*
X136175000Y-98775000D01*
G75*
G02*
X136075000Y-98875000I-100000J0D01*
G01*
G37*
%TD.AperFunction*%
%TO.P,U1,15*%
%TO.N,spi_sck*%
%TA.AperFunction,SMDPad,CuDef*%
G36*
G01*
X135425000Y-98875000D02*
X135225000Y-98875000D01*
G75*
G02*
X135125000Y-98775000I0J100000D01*
G01*
X135125000Y-97500000D01*
G75*
G02*
X135225000Y-97400000I100000J0D01*
G01*
X135425000Y-97400000D01*
G75*
G02*
X135525000Y-97500000I0J-100000D01*
G01*
X135525000Y-98775000D01*
G75*
G02*
X135425000Y-98875000I-100000J0D01*
G01*
G37*
%TD.AperFunction*%
%TO.P,U1,16*%
%TO.N,spi_mosi*%
%TA.AperFunction,SMDPad,CuDef*%
G36*
G01*
X134775000Y-98875000D02*
X134575000Y-98875000D01*
G75*
G02*
X134475000Y-98775000I0J100000D01*
G01*
X134475000Y-97500000D01*
G75*
G02*
X134575000Y-97400000I100000J0D01*
G01*
X134775000Y-97400000D01*
G75*
G02*
X134875000Y-97500000I0J-100000D01*
G01*
X134875000Y-98775000D01*
G75*
G02*
X134775000Y-98875000I-100000J0D01*
G01*
G37*
%TD.AperFunction*%
%TO.P,U1,17*%
%TO.N,spi_miso*%
%TA.AperFunction,SMDPad,CuDef*%
G36*
G01*
X134125000Y-98875000D02*
X133925000Y-98875000D01*
G75*
G02*
X133825000Y-98775000I0J100000D01*
G01*
X133825000Y-97500000D01*
G75*
G02*
X133925000Y-97400000I100000J0D01*
G01*
X134125000Y-97400000D01*
G75*
G02*
X134225000Y-97500000I0J-100000D01*
G01*
X134225000Y-98775000D01*
G75*
G02*
X134125000Y-98875000I-100000J0D01*
G01*
G37*
%TD.AperFunction*%
%TO.P,U1,18*%
%TO.N,hmi_error*%
%TA.AperFunction,SMDPad,CuDef*%
G36*
G01*
X133475000Y-98875000D02*
X133275000Y-98875000D01*
G75*
G02*
X133175000Y-98775000I0J100000D01*
G01*
X133175000Y-97500000D01*
G75*
G02*
X133275000Y-97400000I100000J0D01*
G01*
X133475000Y-97400000D01*
G75*
G02*
X133575000Y-97500000I0J-100000D01*
G01*
X133575000Y-98775000D01*
G75*
G02*
X133475000Y-98875000I-100000J0D01*
G01*
G37*
%TD.AperFunction*%
%TO.P,U1,19*%
%TO.N,e22_nrst*%
%TA.AperFunction,SMDPad,CuDef*%
G36*
G01*
X132825000Y-98875000D02*
X132625000Y-98875000D01*
G75*
G02*
X132525000Y-98775000I0J100000D01*
G01*
X132525000Y-97500000D01*
G75*
G02*
X132625000Y-97400000I100000J0D01*
G01*
X132825000Y-97400000D01*
G75*
G02*
X132925000Y-97500000I0J-100000D01*
G01*
X132925000Y-98775000D01*
G75*
G02*
X132825000Y-98875000I-100000J0D01*
G01*
G37*
%TD.AperFunction*%
%TO.P,U1,20*%
%TO.N,e22_busy*%
%TA.AperFunction,SMDPad,CuDef*%
G36*
G01*
X132175000Y-98875000D02*
X131975000Y-98875000D01*
G75*
G02*
X131875000Y-98775000I0J100000D01*
G01*
X131875000Y-97500000D01*
G75*
G02*
X131975000Y-97400000I100000J0D01*
G01*
X132175000Y-97400000D01*
G75*
G02*
X132275000Y-97500000I0J-100000D01*
G01*
X132275000Y-98775000D01*
G75*
G02*
X132175000Y-98875000I-100000J0D01*
G01*
G37*
%TD.AperFunction*%
%TD*%
%TO.P,C6,1*%
%TO.N,nrst*%
%TA.AperFunction,SMDPad,CuDef*%
G36*
G01*
X139700000Y-94775000D02*
X140200000Y-94775000D01*
G75*
G02*
X140425000Y-95000000I0J-225000D01*
G01*
X140425000Y-95450000D01*
G75*
G02*
X140200000Y-95675000I-225000J0D01*
G01*
X139700000Y-95675000D01*
G75*
G02*
X139475000Y-95450000I0J225000D01*
G01*
X139475000Y-95000000D01*
G75*
G02*
X139700000Y-94775000I225000J0D01*
G01*
G37*
%TD.AperFunction*%
%TO.P,C6,2*%
%TO.N,GND*%
%TA.AperFunction,SMDPad,CuDef*%
G36*
G01*
X139700000Y-96325000D02*
X140200000Y-96325000D01*
G75*
G02*
X140425000Y-96550000I0J-225000D01*
G01*
X140425000Y-97000000D01*
G75*
G02*
X140200000Y-97225000I-225000J0D01*
G01*
X139700000Y-97225000D01*
G75*
G02*
X139475000Y-97000000I0J225000D01*
G01*
X139475000Y-96550000D01*
G75*
G02*
X139700000Y-96325000I225000J0D01*
G01*
G37*
%TD.AperFunction*%
%TD*%
D12*
%TO.N,GND*%
X135970000Y-102619992D03*
X130000000Y-95750000D03*
X138890000Y-106249996D03*
X137620000Y-106260000D03*
X144460000Y-106250000D03*
X147000000Y-106250000D03*
X145730000Y-106250000D03*
X147000000Y-95750000D03*
X144460000Y-95750000D03*
X130990000Y-106240000D03*
X143050000Y-103760000D03*
X139254272Y-97764272D03*
X130000000Y-106250000D03*
X144950000Y-100049994D03*
X139240000Y-104200000D03*
X131280000Y-100500002D03*
X139950000Y-97730000D03*
X141050002Y-100050000D03*
%TO.N,+3V3*%
X132540000Y-106250000D03*
X142270006Y-102960000D03*
%TO.N,nrst*%
X134044265Y-102624265D03*
%TO.N,+5V*%
X140220000Y-101700000D03*
X125780000Y-107090000D03*
X145950000Y-104979998D03*
X131260006Y-99500000D03*
D13*
X125680000Y-94900000D03*
D12*
%TO.N,Net-(R1-Pad1)*%
X138890000Y-95750000D03*
%TO.N,Net-(R2-Pad1)*%
X137620000Y-95750000D03*
%TO.N,Net-(R3-Pad1)*%
X135080000Y-95750000D03*
%TO.N,Net-(R4-Pad1)*%
X136350000Y-95750000D03*
%TO.N,Net-(R5-Pad2)*%
X136350000Y-106249992D03*
%TO.N,Net-(R6-Pad2)*%
X135080000Y-106250000D03*
%TO.N,Net-(R7-Pad2)*%
X131270000Y-95750000D03*
%TO.N,Net-(R8-Pad2)*%
X133800000Y-106260000D03*
%TO.N,Net-(R9-Pad2)*%
X132540000Y-95759979D03*
%TO.N,Net-(R10-Pad2)*%
X133810000Y-95750000D03*
%TO.N,hmi_status*%
X136620000Y-99380000D03*
X128320000Y-104650000D03*
%TO.N,hmi_error*%
X133370000Y-99380000D03*
X129230000Y-96370000D03*
%TD*%
D14*
%TO.N,GND*%
X135975000Y-103862500D02*
X135975000Y-102624992D01*
X135975000Y-102624992D02*
X135970000Y-102619992D01*
X130985000Y-106245000D02*
X130990000Y-106240000D01*
D15*
X130985000Y-107220000D02*
X130985000Y-106245000D01*
D14*
X139240000Y-98695000D02*
X139240000Y-97778544D01*
X139240000Y-97778544D02*
X139254272Y-97764272D01*
D15*
X144050000Y-103760000D02*
X143050000Y-103760000D01*
X144000000Y-100050000D02*
X144949994Y-100050000D01*
D14*
X144949994Y-100050000D02*
X144950000Y-100049994D01*
X139240000Y-103245000D02*
X139240000Y-104200000D01*
D15*
X130000000Y-100500000D02*
X131279998Y-100500000D01*
D14*
X131279998Y-100500000D02*
X131280000Y-100500002D01*
D16*
X139950000Y-96775000D02*
X139950000Y-97730000D01*
D15*
X142270000Y-100060000D02*
X141060002Y-100060000D01*
X141060002Y-100060000D02*
X141050002Y-100050000D01*
D14*
%TO.N,spi_sck*%
X136233629Y-96359989D02*
X135325000Y-97268618D01*
X136980000Y-95130000D02*
X136980000Y-96008002D01*
X136980000Y-96008002D02*
X136628013Y-96359989D01*
X136628013Y-96359989D02*
X136233629Y-96359989D01*
X135325000Y-97268618D02*
X135325000Y-98137500D01*
%TO.N,spi_mosi*%
X135710000Y-96120000D02*
X134675000Y-97155000D01*
X134675000Y-97155000D02*
X134675000Y-98137500D01*
X135710000Y-95140000D02*
X135710000Y-96120000D01*
%TO.N,spi_miso*%
X134025000Y-97125000D02*
X134025000Y-98137500D01*
X134450000Y-96700000D02*
X134025000Y-97125000D01*
X134450000Y-95130000D02*
X134450000Y-96700000D01*
%TO.N,e22_rxen*%
X137925000Y-104875000D02*
X137925000Y-103862500D01*
X136980000Y-105820000D02*
X137925000Y-104875000D01*
X136980000Y-106870000D02*
X136980000Y-105820000D01*
%TO.N,e22_txen*%
X135325000Y-104855000D02*
X135325000Y-103862500D01*
X135710000Y-105240000D02*
X135325000Y-104855000D01*
X135710000Y-106850000D02*
X135710000Y-105240000D01*
%TO.N,e22_dio2*%
X134675000Y-104845000D02*
X134675000Y-103862500D01*
X134440000Y-105080000D02*
X134675000Y-104845000D01*
X134440000Y-106860000D02*
X134440000Y-105080000D01*
D15*
%TO.N,+3V3*%
X132540000Y-106250000D02*
X132540000Y-107215000D01*
D14*
X142280000Y-101950000D02*
X142270000Y-101960000D01*
D15*
X144000000Y-101950000D02*
X142280000Y-101950000D01*
X142270000Y-101960000D02*
X142270000Y-102959994D01*
D14*
X142270000Y-102959994D02*
X142270006Y-102960000D01*
%TO.N,e22_dio1*%
X132075000Y-99465000D02*
X132075000Y-103862500D01*
X130630000Y-98020000D02*
X132075000Y-99465000D01*
X130630000Y-95140000D02*
X130630000Y-98020000D01*
%TO.N,e22_busy*%
X132075000Y-97145000D02*
X132075000Y-98137500D01*
X131920000Y-96990000D02*
X132075000Y-97145000D01*
X131920000Y-95130000D02*
X131920000Y-96990000D01*
%TO.N,e22_nrst*%
X132725000Y-97135000D02*
X132725000Y-98137500D01*
X133180000Y-96680000D02*
X132725000Y-97135000D01*
X133180000Y-95140000D02*
X133180000Y-96680000D01*
%TO.N,e22_nss*%
X135975000Y-98137500D02*
X136010000Y-98102500D01*
X135975000Y-97184318D02*
X135975000Y-98137500D01*
X138250000Y-95130000D02*
X138250000Y-96008002D01*
X138250000Y-96008002D02*
X137498002Y-96760000D01*
X136399318Y-96760000D02*
X135975000Y-97184318D01*
X137498002Y-96760000D02*
X136399318Y-96760000D01*
%TO.N,nrst*%
X134025000Y-102643530D02*
X134044265Y-102624265D01*
X134025000Y-103862500D02*
X134025000Y-102643530D01*
D16*
X141830000Y-95500000D02*
X141080000Y-95500000D01*
X140805000Y-95225000D02*
X139950000Y-95225000D01*
X141080000Y-95500000D02*
X140805000Y-95225000D01*
D14*
%TO.N,vcap*%
X136625000Y-103181488D02*
X136625000Y-103862500D01*
X136625000Y-102165000D02*
X136625000Y-103862500D01*
X138545000Y-100245000D02*
X136625000Y-102165000D01*
X139240000Y-100245000D02*
X138545000Y-100245000D01*
%TO.N,+5V*%
X140215000Y-101695000D02*
X140220000Y-101700000D01*
X139240000Y-101695000D02*
X140215000Y-101695000D01*
X138465000Y-101695000D02*
X139240000Y-101695000D01*
X137275000Y-102885000D02*
X138465000Y-101695000D01*
X137275000Y-103862500D02*
X137275000Y-102885000D01*
D16*
X145950000Y-101050000D02*
X146000000Y-101000000D01*
D15*
X145950000Y-103760000D02*
X145950000Y-101050000D01*
X145950000Y-103760000D02*
X145950000Y-104979998D01*
X130000000Y-99500000D02*
X131260006Y-99500000D01*
D14*
X126712500Y-94900000D02*
X125680000Y-94900000D01*
X126712500Y-107090000D02*
X125780000Y-107090000D01*
%TO.N,Net-(R1-Pad1)*%
X138890000Y-94750000D02*
X138890000Y-95750000D01*
X138250000Y-94110000D02*
X138890000Y-94750000D01*
%TO.N,Net-(R2-Pad1)*%
X137620000Y-94750000D02*
X137620000Y-95750000D01*
X136980000Y-94110000D02*
X137620000Y-94750000D01*
%TO.N,Net-(R3-Pad1)*%
X135080000Y-94740000D02*
X135080000Y-95750000D01*
X134450000Y-94110000D02*
X135080000Y-94740000D01*
%TO.N,Net-(R4-Pad1)*%
X136350000Y-94760000D02*
X136350000Y-95750000D01*
X135710000Y-94120000D02*
X136350000Y-94760000D01*
%TO.N,Net-(R5-Pad2)*%
X136350000Y-107260000D02*
X136350000Y-106249992D01*
X136980000Y-107890000D02*
X136350000Y-107260000D01*
%TO.N,Net-(R6-Pad2)*%
X135080000Y-107240000D02*
X135080000Y-106250000D01*
X135710000Y-107870000D02*
X135080000Y-107240000D01*
%TO.N,Net-(R7-Pad2)*%
X131270000Y-94760000D02*
X131270000Y-95750000D01*
X130630000Y-94120000D02*
X131270000Y-94760000D01*
%TO.N,Net-(R8-Pad2)*%
X133800000Y-107240000D02*
X133800000Y-106260000D01*
X134440000Y-107880000D02*
X133800000Y-107240000D01*
%TO.N,Net-(R9-Pad2)*%
X132550000Y-95769979D02*
X132540000Y-95759979D01*
X132540000Y-94730000D02*
X132540000Y-95759979D01*
X131920000Y-94110000D02*
X132540000Y-94730000D01*
%TO.N,Net-(R10-Pad2)*%
X133810000Y-94750000D02*
X133180000Y-94120000D01*
X133810000Y-95750000D02*
X133810000Y-94750000D01*
%TO.N,hmi_status*%
X136625000Y-99375000D02*
X136620000Y-99380000D01*
X136625000Y-98137500D02*
X136625000Y-99375000D01*
X128325000Y-105630000D02*
X128325000Y-104655000D01*
X128325000Y-104655000D02*
X128320000Y-104650000D01*
%TO.N,Net-(D1-Pad1)*%
X126760000Y-105630000D02*
X126675000Y-105630000D01*
X128220000Y-107090000D02*
X126760000Y-105630000D01*
X128287500Y-107090000D02*
X128220000Y-107090000D01*
%TO.N,i2c_sda*%
X136415689Y-101190011D02*
X137925000Y-99680700D01*
X133375000Y-103862500D02*
X133375000Y-102435000D01*
X133375000Y-102435000D02*
X134619989Y-101190011D01*
X134619989Y-101190011D02*
X136415689Y-101190011D01*
X137925000Y-99680700D02*
X137925000Y-98137500D01*
X130990000Y-102500000D02*
X130000000Y-102500000D01*
X131150000Y-102660000D02*
X130990000Y-102500000D01*
X131150000Y-104895001D02*
X131150000Y-102660000D01*
X131625010Y-105370011D02*
X131150000Y-104895001D01*
X132859989Y-105370011D02*
X131625010Y-105370011D01*
X133375000Y-104855000D02*
X132859989Y-105370011D01*
X133375000Y-103862500D02*
X133375000Y-104855000D01*
%TO.N,i2c_scl*%
X137275000Y-99765000D02*
X136250000Y-100790000D01*
X136250000Y-100790000D02*
X134310000Y-100790000D01*
X134310000Y-100790000D02*
X132725000Y-102375000D01*
X132725000Y-102375000D02*
X132725000Y-103862500D01*
X137275000Y-98137500D02*
X137275000Y-99765000D01*
X131260000Y-101500000D02*
X130000000Y-101500000D01*
X131550011Y-101790011D02*
X131260000Y-101500000D01*
X131820000Y-104970000D02*
X131550011Y-104700011D01*
X132600000Y-104970000D02*
X131820000Y-104970000D01*
X132725000Y-104845000D02*
X132600000Y-104970000D01*
X131550011Y-104700011D02*
X131550011Y-101790011D01*
X132725000Y-103862500D02*
X132725000Y-104845000D01*
%TO.N,Net-(D2-Pad1)*%
X128200000Y-94900000D02*
X128287500Y-94900000D01*
X126730000Y-96370000D02*
X128200000Y-94900000D01*
X126675000Y-96370000D02*
X126730000Y-96370000D01*
%TO.N,hmi_error*%
X133375000Y-99375000D02*
X133370000Y-99380000D01*
X133375000Y-98137500D02*
X133375000Y-99375000D01*
X128325000Y-96370000D02*
X129230000Y-96370000D01*
%TD*%
M02*
