%TF.GenerationSoftware,KiCad,Pcbnew,5.1.8-db9833491~87~ubuntu20.04.1*%
%TF.CreationDate,2020-11-23T16:47:10+01:00*%
%TF.ProjectId,rosalyn-sat,726f7361-6c79-46e2-9d73-61742e6b6963,v1.0*%
%TF.SameCoordinates,Original*%
%TF.FileFunction,Copper,L4,Bot*%
%TF.FilePolarity,Positive*%
%FSLAX46Y46*%
G04 Gerber Fmt 4.6, Leading zero omitted, Abs format (unit mm)*
G04 Created by KiCad (PCBNEW 5.1.8-db9833491~87~ubuntu20.04.1) date 2020-11-23 16:47:10*
%MOMM*%
%LPD*%
G01*
G04 APERTURE LIST*
%TA.AperFunction,SMDPad,CuDef*%
%ADD10R,0.750000X1.500000*%
%TD*%
%TA.AperFunction,ViaPad*%
%ADD11C,0.800000*%
%TD*%
%TA.AperFunction,ViaPad*%
%ADD12C,0.600000*%
%TD*%
%TA.AperFunction,Conductor*%
%ADD13C,0.500000*%
%TD*%
%TA.AperFunction,Conductor*%
%ADD14C,0.200000*%
%TD*%
%TA.AperFunction,Conductor*%
%ADD15C,0.250000*%
%TD*%
G04 APERTURE END LIST*
D10*
%TO.P,U2,22*%
%TO.N,GND*%
X159650000Y-93650000D03*
%TO.P,U2,21*%
%TO.N,N/C*%
X158380000Y-93650000D03*
%TO.P,U2,20*%
%TO.N,GND*%
X157110000Y-93650000D03*
%TO.P,U2,19*%
%TO.N,e22_nss*%
X151540000Y-93650000D03*
%TO.P,U2,18*%
%TO.N,spi_sck*%
X150270000Y-93650000D03*
%TO.P,U2,17*%
%TO.N,spi_mosi*%
X149000000Y-93650000D03*
%TO.P,U2,16*%
%TO.N,spi_miso*%
X147730000Y-93650000D03*
%TO.P,U2,15*%
%TO.N,e22_nrst*%
X146460000Y-93650000D03*
%TO.P,U2,14*%
%TO.N,e22_busy*%
X145190000Y-93650000D03*
%TO.P,U2,13*%
%TO.N,e22_dio1*%
X143920000Y-93650000D03*
%TO.P,U2,12*%
%TO.N,GND*%
X142650000Y-93650000D03*
%TO.P,U2,11*%
X142650000Y-106650000D03*
%TO.P,U2,10*%
X143920000Y-106650000D03*
%TO.P,U2,9*%
%TO.N,+3V3*%
X145190000Y-106650000D03*
%TO.P,U2,8*%
%TO.N,e22_dio2*%
X146460000Y-106650000D03*
%TO.P,U2,7*%
%TO.N,e22_txen*%
X147730000Y-106650000D03*
%TO.P,U2,6*%
%TO.N,e22_rxen*%
X149000000Y-106650000D03*
%TO.P,U2,5*%
%TO.N,GND*%
X150270000Y-106650000D03*
%TO.P,U2,4*%
X151540000Y-106650000D03*
%TO.P,U2,3*%
X157110000Y-106650000D03*
%TO.P,U2,2*%
X158380000Y-106650000D03*
%TO.P,U2,1*%
X159650000Y-106650000D03*
%TD*%
D11*
%TO.N,GND*%
X159650000Y-105400000D03*
X158380000Y-105400000D03*
X141770000Y-93640000D03*
D12*
X152450000Y-95500000D03*
D11*
X141759998Y-106600000D03*
X144080000Y-103760000D03*
X152400000Y-106649998D03*
X143800000Y-99640000D03*
X157640000Y-102680000D03*
X156240000Y-106610000D03*
X156139998Y-93650000D03*
X159650000Y-95000000D03*
X154684994Y-95740006D03*
X155520000Y-100810004D03*
D12*
%TO.N,spi_sck*%
X152940000Y-94460000D03*
%TO.N,spi_mosi*%
X151750000Y-99100000D03*
%TO.N,spi_miso*%
X152610000Y-98550000D03*
%TO.N,e22_rxen*%
X152850000Y-101760001D03*
D11*
%TO.N,+3V3*%
X154110000Y-93510000D03*
X145630000Y-103760000D03*
X141030000Y-94410000D03*
X141040000Y-105900000D03*
X156420000Y-95750002D03*
D12*
%TO.N,e22_dio1*%
X147810000Y-101659996D03*
%TO.N,e22_busy*%
X148680000Y-101670000D03*
%TO.N,e22_nrst*%
X150250000Y-101570000D03*
%TO.N,e22_nss*%
X150890000Y-98560000D03*
D11*
%TO.N,+5V*%
X147850000Y-98820000D03*
X153420000Y-104410000D03*
D12*
%TO.N,e22_dio2*%
X151210000Y-101520000D03*
%TO.N,e22_txen*%
X151994061Y-101755260D03*
%TD*%
D13*
%TO.N,GND*%
X142650000Y-106650000D02*
X143920000Y-106650000D01*
X159650000Y-106650000D02*
X159650000Y-105400000D01*
X158380000Y-106650000D02*
X158380000Y-105400000D01*
X141780000Y-93650000D02*
X141770000Y-93640000D01*
X142650000Y-93650000D02*
X141780000Y-93650000D01*
X142650000Y-106650000D02*
X141809998Y-106650000D01*
X141809998Y-106650000D02*
X141759998Y-106600000D01*
X144080000Y-106490000D02*
X143920000Y-106650000D01*
X144080000Y-103760000D02*
X144080000Y-106490000D01*
D14*
X152399998Y-106650000D02*
X152400000Y-106649998D01*
D13*
X151540000Y-106650000D02*
X152399998Y-106650000D01*
X150270000Y-106650000D02*
X151540000Y-106650000D01*
X157110000Y-106650000D02*
X156280000Y-106650000D01*
X156280000Y-106650000D02*
X156240000Y-106610000D01*
X157110000Y-93650000D02*
X156139998Y-93650000D01*
X159650000Y-93650000D02*
X159650000Y-95000000D01*
D15*
%TO.N,spi_sck*%
X152674999Y-94725001D02*
X152940000Y-94460000D01*
X150345001Y-94725001D02*
X152674999Y-94725001D01*
X150270000Y-94650000D02*
X150345001Y-94725001D01*
X150270000Y-93650000D02*
X150270000Y-94650000D01*
%TO.N,spi_mosi*%
X152049999Y-99399999D02*
X151750000Y-99100000D01*
X152880001Y-99399999D02*
X152049999Y-99399999D01*
X153350000Y-97590000D02*
X153350000Y-98930000D01*
X150570000Y-96740000D02*
X152500000Y-96740000D01*
X149000000Y-95170000D02*
X150570000Y-96740000D01*
X153350000Y-98930000D02*
X152880001Y-99399999D01*
X152500000Y-96740000D02*
X153350000Y-97590000D01*
X149000000Y-93650000D02*
X149000000Y-95170000D01*
%TO.N,spi_miso*%
X152610000Y-97750000D02*
X152610000Y-98550000D01*
X152150000Y-97290000D02*
X152610000Y-97750000D01*
X148910000Y-97290000D02*
X152150000Y-97290000D01*
X147730000Y-96110000D02*
X148910000Y-97290000D01*
X147730000Y-93650000D02*
X147730000Y-96110000D01*
D14*
%TO.N,e22_rxen*%
X149000000Y-106650000D02*
X149000000Y-106275000D01*
X149000000Y-106275000D02*
X152850000Y-102425000D01*
X152850000Y-102425000D02*
X152850000Y-101760001D01*
D13*
%TO.N,+3V3*%
X145190000Y-104200000D02*
X145190000Y-106650000D01*
X145630000Y-103760000D02*
X145190000Y-104200000D01*
D15*
%TO.N,e22_dio1*%
X145040000Y-99400000D02*
X147299996Y-101659996D01*
X147299996Y-101659996D02*
X147810000Y-101659996D01*
X145040000Y-94770000D02*
X145040000Y-99400000D01*
X144995001Y-94725001D02*
X145040000Y-94770000D01*
X144554999Y-94725001D02*
X144995001Y-94725001D01*
X144489999Y-94660001D02*
X144554999Y-94725001D01*
X144489999Y-94219999D02*
X144489999Y-94660001D01*
X143920000Y-93650000D02*
X144489999Y-94219999D01*
%TO.N,e22_busy*%
X148680000Y-101630000D02*
X148680000Y-101670000D01*
X145900000Y-98850000D02*
X148680000Y-101630000D01*
X145824999Y-94725001D02*
X145900000Y-94725001D01*
X145900000Y-94725001D02*
X145900000Y-98850000D01*
X145759999Y-94660001D02*
X145824999Y-94725001D01*
X145759999Y-94219999D02*
X145759999Y-94660001D01*
X145190000Y-93650000D02*
X145759999Y-94219999D01*
%TO.N,e22_nrst*%
X149054999Y-100374999D02*
X150250000Y-101570000D01*
X148094999Y-100374999D02*
X149054999Y-100374999D01*
X146460000Y-98740000D02*
X148094999Y-100374999D01*
X146460000Y-93650000D02*
X146460000Y-98740000D01*
%TO.N,e22_nss*%
X151090000Y-99900000D02*
X150890000Y-99700000D01*
X151540000Y-93650000D02*
X153150000Y-93650000D01*
X153320000Y-99900000D02*
X151090000Y-99900000D01*
X150890000Y-99700000D02*
X150890000Y-98560000D01*
X153804972Y-99415028D02*
X153320000Y-99900000D01*
X153804972Y-94304972D02*
X153804972Y-99415028D01*
X153150000Y-93650000D02*
X153804972Y-94304972D01*
D13*
%TO.N,+5V*%
X153819999Y-101449999D02*
X153819999Y-104010001D01*
X153100000Y-100730000D02*
X153819999Y-101449999D01*
X153819999Y-104010001D02*
X153420000Y-104410000D01*
X150646410Y-100730000D02*
X153100000Y-100730000D01*
X148736410Y-98820000D02*
X150646410Y-100730000D01*
X147850000Y-98820000D02*
X148736410Y-98820000D01*
D15*
%TO.N,e22_dio2*%
X146460000Y-106650000D02*
X146460000Y-104840000D01*
X146460000Y-104840000D02*
X148829279Y-102470721D01*
X148829279Y-102470721D02*
X150875008Y-102470721D01*
X150875008Y-102470721D02*
X151200008Y-102145721D01*
X151200008Y-101529992D02*
X151210000Y-101520000D01*
X151200008Y-102145721D02*
X151200008Y-101529992D01*
%TO.N,e22_txen*%
X147730000Y-105560000D02*
X147730000Y-106650000D01*
X148150000Y-105140000D02*
X147730000Y-105560000D01*
X151994061Y-102225939D02*
X149080000Y-105140000D01*
X149080000Y-105140000D02*
X148150000Y-105140000D01*
X151994061Y-101755260D02*
X151994061Y-102225939D01*
%TD*%
M02*
