%TF.GenerationSoftware,KiCad,Pcbnew,5.1.8-db9833491~87~ubuntu20.04.1*%
%TF.CreationDate,2020-11-05T18:03:59+01:00*%
%TF.ProjectId,rosalyn-sat,726f7361-6c79-46e2-9d73-61742e6b6963,v1.0*%
%TF.SameCoordinates,Original*%
%TF.FileFunction,Legend,Top*%
%TF.FilePolarity,Positive*%
%FSLAX46Y46*%
G04 Gerber Fmt 4.6, Leading zero omitted, Abs format (unit mm)*
G04 Created by KiCad (PCBNEW 5.1.8-db9833491~87~ubuntu20.04.1) date 2020-11-05 18:03:59*
%MOMM*%
%LPD*%
G01*
G04 APERTURE LIST*
%ADD10C,0.125000*%
%ADD11C,0.120000*%
G04 APERTURE END LIST*
D10*
X142698571Y-94962380D02*
X142746190Y-94986190D01*
X142841428Y-94986190D01*
X142889047Y-94962380D01*
X142912857Y-94914761D01*
X142912857Y-94890952D01*
X142889047Y-94843333D01*
X142841428Y-94819523D01*
X142770000Y-94819523D01*
X142722380Y-94795714D01*
X142698571Y-94748095D01*
X142698571Y-94724285D01*
X142722380Y-94676666D01*
X142770000Y-94652857D01*
X142841428Y-94652857D01*
X142889047Y-94676666D01*
X143079523Y-94652857D02*
X143174761Y-94986190D01*
X143270000Y-94748095D01*
X143365238Y-94986190D01*
X143460476Y-94652857D01*
X143650952Y-94986190D02*
X143650952Y-94652857D01*
X143650952Y-94486190D02*
X143627142Y-94510000D01*
X143650952Y-94533809D01*
X143674761Y-94510000D01*
X143650952Y-94486190D01*
X143650952Y-94533809D01*
X143889047Y-94986190D02*
X143889047Y-94652857D01*
X143889047Y-94700476D02*
X143912857Y-94676666D01*
X143960476Y-94652857D01*
X144031904Y-94652857D01*
X144079523Y-94676666D01*
X144103333Y-94724285D01*
X144103333Y-94986190D01*
X144103333Y-94724285D02*
X144127142Y-94676666D01*
X144174761Y-94652857D01*
X144246190Y-94652857D01*
X144293809Y-94676666D01*
X144317619Y-94724285D01*
X144317619Y-94986190D01*
X142692857Y-95662857D02*
X142692857Y-95996190D01*
X142692857Y-95710476D02*
X142716666Y-95686666D01*
X142764285Y-95662857D01*
X142835714Y-95662857D01*
X142883333Y-95686666D01*
X142907142Y-95734285D01*
X142907142Y-95996190D01*
X143145238Y-95996190D02*
X143145238Y-95662857D01*
X143145238Y-95758095D02*
X143169047Y-95710476D01*
X143192857Y-95686666D01*
X143240476Y-95662857D01*
X143288095Y-95662857D01*
X143430952Y-95972380D02*
X143478571Y-95996190D01*
X143573809Y-95996190D01*
X143621428Y-95972380D01*
X143645238Y-95924761D01*
X143645238Y-95900952D01*
X143621428Y-95853333D01*
X143573809Y-95829523D01*
X143502380Y-95829523D01*
X143454761Y-95805714D01*
X143430952Y-95758095D01*
X143430952Y-95734285D01*
X143454761Y-95686666D01*
X143502380Y-95662857D01*
X143573809Y-95662857D01*
X143621428Y-95686666D01*
X143788095Y-95662857D02*
X143978571Y-95662857D01*
X143859523Y-95496190D02*
X143859523Y-95924761D01*
X143883333Y-95972380D01*
X143930952Y-95996190D01*
X143978571Y-95996190D01*
X142934761Y-96662857D02*
X142934761Y-97067619D01*
X142910952Y-97115238D01*
X142887142Y-97139047D01*
X142839523Y-97162857D01*
X142768095Y-97162857D01*
X142720476Y-97139047D01*
X142934761Y-96972380D02*
X142887142Y-96996190D01*
X142791904Y-96996190D01*
X142744285Y-96972380D01*
X142720476Y-96948571D01*
X142696666Y-96900952D01*
X142696666Y-96758095D01*
X142720476Y-96710476D01*
X142744285Y-96686666D01*
X142791904Y-96662857D01*
X142887142Y-96662857D01*
X142934761Y-96686666D01*
X143172857Y-96662857D02*
X143172857Y-96996190D01*
X143172857Y-96710476D02*
X143196666Y-96686666D01*
X143244285Y-96662857D01*
X143315714Y-96662857D01*
X143363333Y-96686666D01*
X143387142Y-96734285D01*
X143387142Y-96996190D01*
X143839523Y-96996190D02*
X143839523Y-96496190D01*
X143839523Y-96972380D02*
X143791904Y-96996190D01*
X143696666Y-96996190D01*
X143649047Y-96972380D01*
X143625238Y-96948571D01*
X143601428Y-96900952D01*
X143601428Y-96758095D01*
X143625238Y-96710476D01*
X143649047Y-96686666D01*
X143696666Y-96662857D01*
X143791904Y-96662857D01*
X143839523Y-96686666D01*
X142670952Y-97825714D02*
X143051904Y-97825714D01*
X142861428Y-98016190D02*
X142861428Y-97635238D01*
X143528095Y-97516190D02*
X143290000Y-97516190D01*
X143266190Y-97754285D01*
X143290000Y-97730476D01*
X143337619Y-97706666D01*
X143456666Y-97706666D01*
X143504285Y-97730476D01*
X143528095Y-97754285D01*
X143551904Y-97801904D01*
X143551904Y-97920952D01*
X143528095Y-97968571D01*
X143504285Y-97992380D01*
X143456666Y-98016190D01*
X143337619Y-98016190D01*
X143290000Y-97992380D01*
X143266190Y-97968571D01*
X143718571Y-97682857D02*
X143837619Y-98016190D01*
X143956666Y-97682857D01*
X139333333Y-106392857D02*
X139428571Y-106726190D01*
X139523809Y-106488095D01*
X139619047Y-106726190D01*
X139714285Y-106392857D01*
X139857142Y-106392857D02*
X139952380Y-106726190D01*
X140047619Y-106488095D01*
X140142857Y-106726190D01*
X140238095Y-106392857D01*
X140380952Y-106392857D02*
X140476190Y-106726190D01*
X140571428Y-106488095D01*
X140666666Y-106726190D01*
X140761904Y-106392857D01*
X140952380Y-106678571D02*
X140976190Y-106702380D01*
X140952380Y-106726190D01*
X140928571Y-106702380D01*
X140952380Y-106678571D01*
X140952380Y-106726190D01*
X141166666Y-106273809D02*
X141190476Y-106250000D01*
X141238095Y-106226190D01*
X141357142Y-106226190D01*
X141404761Y-106250000D01*
X141428571Y-106273809D01*
X141452380Y-106321428D01*
X141452380Y-106369047D01*
X141428571Y-106440476D01*
X141142857Y-106726190D01*
X141452380Y-106726190D01*
X141666666Y-106535714D02*
X142047619Y-106535714D01*
X142380952Y-106226190D02*
X142428571Y-106226190D01*
X142476190Y-106250000D01*
X142500000Y-106273809D01*
X142523809Y-106321428D01*
X142547619Y-106416666D01*
X142547619Y-106535714D01*
X142523809Y-106630952D01*
X142500000Y-106678571D01*
X142476190Y-106702380D01*
X142428571Y-106726190D01*
X142380952Y-106726190D01*
X142333333Y-106702380D01*
X142309523Y-106678571D01*
X142285714Y-106630952D01*
X142261904Y-106535714D01*
X142261904Y-106416666D01*
X142285714Y-106321428D01*
X142309523Y-106273809D01*
X142333333Y-106250000D01*
X142380952Y-106226190D01*
X142761904Y-106678571D02*
X142785714Y-106702380D01*
X142761904Y-106726190D01*
X142738095Y-106702380D01*
X142761904Y-106678571D01*
X142761904Y-106726190D01*
X143214285Y-106726190D02*
X143214285Y-106226190D01*
X143214285Y-106702380D02*
X143166666Y-106726190D01*
X143071428Y-106726190D01*
X143023809Y-106702380D01*
X143000000Y-106678571D01*
X142976190Y-106630952D01*
X142976190Y-106488095D01*
X143000000Y-106440476D01*
X143023809Y-106416666D01*
X143071428Y-106392857D01*
X143166666Y-106392857D01*
X143214285Y-106416666D01*
X143452380Y-106726190D02*
X143452380Y-106226190D01*
X143500000Y-106535714D02*
X143642857Y-106726190D01*
X143642857Y-106392857D02*
X143452380Y-106583333D01*
X138833333Y-105726190D02*
X138666666Y-105488095D01*
X138547619Y-105726190D02*
X138547619Y-105226190D01*
X138738095Y-105226190D01*
X138785714Y-105250000D01*
X138809523Y-105273809D01*
X138833333Y-105321428D01*
X138833333Y-105392857D01*
X138809523Y-105440476D01*
X138785714Y-105464285D01*
X138738095Y-105488095D01*
X138547619Y-105488095D01*
X139119047Y-105726190D02*
X139071428Y-105702380D01*
X139047619Y-105678571D01*
X139023809Y-105630952D01*
X139023809Y-105488095D01*
X139047619Y-105440476D01*
X139071428Y-105416666D01*
X139119047Y-105392857D01*
X139190476Y-105392857D01*
X139238095Y-105416666D01*
X139261904Y-105440476D01*
X139285714Y-105488095D01*
X139285714Y-105630952D01*
X139261904Y-105678571D01*
X139238095Y-105702380D01*
X139190476Y-105726190D01*
X139119047Y-105726190D01*
X139476190Y-105702380D02*
X139523809Y-105726190D01*
X139619047Y-105726190D01*
X139666666Y-105702380D01*
X139690476Y-105654761D01*
X139690476Y-105630952D01*
X139666666Y-105583333D01*
X139619047Y-105559523D01*
X139547619Y-105559523D01*
X139500000Y-105535714D01*
X139476190Y-105488095D01*
X139476190Y-105464285D01*
X139500000Y-105416666D01*
X139547619Y-105392857D01*
X139619047Y-105392857D01*
X139666666Y-105416666D01*
X140119047Y-105726190D02*
X140119047Y-105464285D01*
X140095238Y-105416666D01*
X140047619Y-105392857D01*
X139952380Y-105392857D01*
X139904761Y-105416666D01*
X140119047Y-105702380D02*
X140071428Y-105726190D01*
X139952380Y-105726190D01*
X139904761Y-105702380D01*
X139880952Y-105654761D01*
X139880952Y-105607142D01*
X139904761Y-105559523D01*
X139952380Y-105535714D01*
X140071428Y-105535714D01*
X140119047Y-105511904D01*
X140428571Y-105726190D02*
X140380952Y-105702380D01*
X140357142Y-105654761D01*
X140357142Y-105226190D01*
X140571428Y-105392857D02*
X140690476Y-105726190D01*
X140809523Y-105392857D02*
X140690476Y-105726190D01*
X140642857Y-105845238D01*
X140619047Y-105869047D01*
X140571428Y-105892857D01*
X141000000Y-105392857D02*
X141000000Y-105726190D01*
X141000000Y-105440476D02*
X141023809Y-105416666D01*
X141071428Y-105392857D01*
X141142857Y-105392857D01*
X141190476Y-105416666D01*
X141214285Y-105464285D01*
X141214285Y-105726190D01*
X141428571Y-105702380D02*
X141500000Y-105726190D01*
X141619047Y-105726190D01*
X141666666Y-105702380D01*
X141690476Y-105678571D01*
X141714285Y-105630952D01*
X141714285Y-105583333D01*
X141690476Y-105535714D01*
X141666666Y-105511904D01*
X141619047Y-105488095D01*
X141523809Y-105464285D01*
X141476190Y-105440476D01*
X141452380Y-105416666D01*
X141428571Y-105369047D01*
X141428571Y-105321428D01*
X141452380Y-105273809D01*
X141476190Y-105250000D01*
X141523809Y-105226190D01*
X141642857Y-105226190D01*
X141714285Y-105250000D01*
X141904761Y-105583333D02*
X142142857Y-105583333D01*
X141857142Y-105726190D02*
X142023809Y-105226190D01*
X142190476Y-105726190D01*
X142285714Y-105226190D02*
X142571428Y-105226190D01*
X142428571Y-105726190D02*
X142428571Y-105226190D01*
X143071428Y-105392857D02*
X143190476Y-105726190D01*
X143309523Y-105392857D01*
X143761904Y-105726190D02*
X143476190Y-105726190D01*
X143619047Y-105726190D02*
X143619047Y-105226190D01*
X143571428Y-105297619D01*
X143523809Y-105345238D01*
X143476190Y-105369047D01*
X143976190Y-105678571D02*
X144000000Y-105702380D01*
X143976190Y-105726190D01*
X143952380Y-105702380D01*
X143976190Y-105678571D01*
X143976190Y-105726190D01*
X144309523Y-105226190D02*
X144357142Y-105226190D01*
X144404761Y-105250000D01*
X144428571Y-105273809D01*
X144452380Y-105321428D01*
X144476190Y-105416666D01*
X144476190Y-105535714D01*
X144452380Y-105630952D01*
X144428571Y-105678571D01*
X144404761Y-105702380D01*
X144357142Y-105726190D01*
X144309523Y-105726190D01*
X144261904Y-105702380D01*
X144238095Y-105678571D01*
X144214285Y-105630952D01*
X144190476Y-105535714D01*
X144190476Y-105416666D01*
X144214285Y-105321428D01*
X144238095Y-105273809D01*
X144261904Y-105250000D01*
X144309523Y-105226190D01*
D11*
%TO.C,J2*%
X125315000Y-99060000D02*
X125315000Y-102940000D01*
X129785000Y-104110000D02*
X129785000Y-103060000D01*
X127285000Y-104110000D02*
X129785000Y-104110000D01*
X129785000Y-98940000D02*
X130775000Y-98940000D01*
X129785000Y-97890000D02*
X129785000Y-98940000D01*
X127285000Y-97890000D02*
X129785000Y-97890000D01*
%TO.C,J1*%
X142525000Y-93940000D02*
X142224493Y-93940000D01*
X141435507Y-93940000D02*
X141135000Y-93940000D01*
X142525000Y-96815000D02*
X142525000Y-93940000D01*
X141135000Y-96815000D02*
X141135000Y-93940000D01*
X142525000Y-96815000D02*
X142438276Y-96815000D01*
X141221724Y-96815000D02*
X141135000Y-96815000D01*
X142525000Y-97500000D02*
X142525000Y-98185000D01*
X142525000Y-98185000D02*
X141830000Y-98185000D01*
%TO.C,R12*%
X127737258Y-96892500D02*
X127262742Y-96892500D01*
X127737258Y-95847500D02*
X127262742Y-95847500D01*
%TO.C,D2*%
X126700000Y-95635000D02*
X128985000Y-95635000D01*
X128985000Y-95635000D02*
X128985000Y-94165000D01*
X128985000Y-94165000D02*
X126700000Y-94165000D01*
%TO.C,R11*%
X127737258Y-105107500D02*
X127262742Y-105107500D01*
X127737258Y-106152500D02*
X127262742Y-106152500D01*
%TO.C,D1*%
X128985000Y-106355000D02*
X126700000Y-106355000D01*
X128985000Y-107825000D02*
X128985000Y-106355000D01*
X126700000Y-107825000D02*
X128985000Y-107825000D01*
%TO.C,R10*%
X133560000Y-94783641D02*
X133560000Y-94476359D01*
X132800000Y-94783641D02*
X132800000Y-94476359D01*
%TO.C,R9*%
X132300000Y-94773641D02*
X132300000Y-94466359D01*
X131540000Y-94773641D02*
X131540000Y-94466359D01*
%TO.C,R8*%
X134060000Y-107216359D02*
X134060000Y-107523641D01*
X134820000Y-107216359D02*
X134820000Y-107523641D01*
%TO.C,R7*%
X131010000Y-94783641D02*
X131010000Y-94476359D01*
X130250000Y-94783641D02*
X130250000Y-94476359D01*
%TO.C,R6*%
X135330000Y-107206359D02*
X135330000Y-107513641D01*
X136090000Y-107206359D02*
X136090000Y-107513641D01*
%TO.C,R5*%
X136600000Y-107226359D02*
X136600000Y-107533641D01*
X137360000Y-107226359D02*
X137360000Y-107533641D01*
%TO.C,R4*%
X135330000Y-94476359D02*
X135330000Y-94783641D01*
X136090000Y-94476359D02*
X136090000Y-94783641D01*
%TO.C,R3*%
X134070000Y-94466359D02*
X134070000Y-94773641D01*
X134830000Y-94466359D02*
X134830000Y-94773641D01*
%TO.C,R2*%
X136600000Y-94466359D02*
X136600000Y-94773641D01*
X137360000Y-94466359D02*
X137360000Y-94773641D01*
%TO.C,R1*%
X137870000Y-94466359D02*
X137870000Y-94773641D01*
X138630000Y-94466359D02*
X138630000Y-94773641D01*
%TO.C,C5*%
X131900580Y-106710000D02*
X131619420Y-106710000D01*
X131900580Y-107730000D02*
X131619420Y-107730000D01*
%TO.C,C3*%
X145261252Y-103025000D02*
X144738748Y-103025000D01*
X145261252Y-104495000D02*
X144738748Y-104495000D01*
%TO.C,U3*%
X145760000Y-102580000D02*
X144300000Y-102580000D01*
X145760000Y-99420000D02*
X143600000Y-99420000D01*
X145760000Y-99420000D02*
X145760000Y-100350000D01*
X145760000Y-102580000D02*
X145760000Y-101650000D01*
%TO.C,C4*%
X143005000Y-101271252D02*
X143005000Y-100748748D01*
X141535000Y-101271252D02*
X141535000Y-100748748D01*
%TO.C,C2*%
X138730000Y-102329420D02*
X138730000Y-102610580D01*
X139750000Y-102329420D02*
X139750000Y-102610580D01*
%TO.C,C1*%
X139750000Y-99610580D02*
X139750000Y-99329420D01*
X138730000Y-99610580D02*
X138730000Y-99329420D01*
%TO.C,U1*%
X138385000Y-101000000D02*
X138385000Y-98800000D01*
X138385000Y-101000000D02*
X138385000Y-103200000D01*
X131615000Y-101000000D02*
X131615000Y-98800000D01*
X131615000Y-101000000D02*
X131615000Y-104600000D01*
%TO.C,C6*%
X140460000Y-95859420D02*
X140460000Y-96140580D01*
X139440000Y-95859420D02*
X139440000Y-96140580D01*
%TO.C,J2*%
D10*
X130006190Y-98536666D02*
X130363333Y-98536666D01*
X130434761Y-98560476D01*
X130482380Y-98608095D01*
X130506190Y-98679523D01*
X130506190Y-98727142D01*
X130053809Y-98322380D02*
X130030000Y-98298571D01*
X130006190Y-98250952D01*
X130006190Y-98131904D01*
X130030000Y-98084285D01*
X130053809Y-98060476D01*
X130101428Y-98036666D01*
X130149047Y-98036666D01*
X130220476Y-98060476D01*
X130506190Y-98346190D01*
X130506190Y-98036666D01*
%TO.C,J1*%
X141663333Y-98626190D02*
X141663333Y-98983333D01*
X141639523Y-99054761D01*
X141591904Y-99102380D01*
X141520476Y-99126190D01*
X141472857Y-99126190D01*
X142163333Y-99126190D02*
X141877619Y-99126190D01*
X142020476Y-99126190D02*
X142020476Y-98626190D01*
X141972857Y-98697619D01*
X141925238Y-98745238D01*
X141877619Y-98769047D01*
%TO.C,R12*%
X125896190Y-96691428D02*
X125658095Y-96858095D01*
X125896190Y-96977142D02*
X125396190Y-96977142D01*
X125396190Y-96786666D01*
X125420000Y-96739047D01*
X125443809Y-96715238D01*
X125491428Y-96691428D01*
X125562857Y-96691428D01*
X125610476Y-96715238D01*
X125634285Y-96739047D01*
X125658095Y-96786666D01*
X125658095Y-96977142D01*
X125896190Y-96215238D02*
X125896190Y-96500952D01*
X125896190Y-96358095D02*
X125396190Y-96358095D01*
X125467619Y-96405714D01*
X125515238Y-96453333D01*
X125539047Y-96500952D01*
X125443809Y-96024761D02*
X125420000Y-96000952D01*
X125396190Y-95953333D01*
X125396190Y-95834285D01*
X125420000Y-95786666D01*
X125443809Y-95762857D01*
X125491428Y-95739047D01*
X125539047Y-95739047D01*
X125610476Y-95762857D01*
X125896190Y-96048571D01*
X125896190Y-95739047D01*
%TO.C,D2*%
X129716190Y-95269047D02*
X129216190Y-95269047D01*
X129216190Y-95150000D01*
X129240000Y-95078571D01*
X129287619Y-95030952D01*
X129335238Y-95007142D01*
X129430476Y-94983333D01*
X129501904Y-94983333D01*
X129597142Y-95007142D01*
X129644761Y-95030952D01*
X129692380Y-95078571D01*
X129716190Y-95150000D01*
X129716190Y-95269047D01*
X129263809Y-94792857D02*
X129240000Y-94769047D01*
X129216190Y-94721428D01*
X129216190Y-94602380D01*
X129240000Y-94554761D01*
X129263809Y-94530952D01*
X129311428Y-94507142D01*
X129359047Y-94507142D01*
X129430476Y-94530952D01*
X129716190Y-94816666D01*
X129716190Y-94507142D01*
%TO.C,R11*%
X125906190Y-105951428D02*
X125668095Y-106118095D01*
X125906190Y-106237142D02*
X125406190Y-106237142D01*
X125406190Y-106046666D01*
X125430000Y-105999047D01*
X125453809Y-105975238D01*
X125501428Y-105951428D01*
X125572857Y-105951428D01*
X125620476Y-105975238D01*
X125644285Y-105999047D01*
X125668095Y-106046666D01*
X125668095Y-106237142D01*
X125906190Y-105475238D02*
X125906190Y-105760952D01*
X125906190Y-105618095D02*
X125406190Y-105618095D01*
X125477619Y-105665714D01*
X125525238Y-105713333D01*
X125549047Y-105760952D01*
X125906190Y-104999047D02*
X125906190Y-105284761D01*
X125906190Y-105141904D02*
X125406190Y-105141904D01*
X125477619Y-105189523D01*
X125525238Y-105237142D01*
X125549047Y-105284761D01*
%TO.C,D1*%
X129766190Y-107459047D02*
X129266190Y-107459047D01*
X129266190Y-107340000D01*
X129290000Y-107268571D01*
X129337619Y-107220952D01*
X129385238Y-107197142D01*
X129480476Y-107173333D01*
X129551904Y-107173333D01*
X129647142Y-107197142D01*
X129694761Y-107220952D01*
X129742380Y-107268571D01*
X129766190Y-107340000D01*
X129766190Y-107459047D01*
X129766190Y-106697142D02*
X129766190Y-106982857D01*
X129766190Y-106840000D02*
X129266190Y-106840000D01*
X129337619Y-106887619D01*
X129385238Y-106935238D01*
X129409047Y-106982857D01*
%TO.C,R10*%
X133426190Y-96661428D02*
X133188095Y-96828095D01*
X133426190Y-96947142D02*
X132926190Y-96947142D01*
X132926190Y-96756666D01*
X132950000Y-96709047D01*
X132973809Y-96685238D01*
X133021428Y-96661428D01*
X133092857Y-96661428D01*
X133140476Y-96685238D01*
X133164285Y-96709047D01*
X133188095Y-96756666D01*
X133188095Y-96947142D01*
X133426190Y-96185238D02*
X133426190Y-96470952D01*
X133426190Y-96328095D02*
X132926190Y-96328095D01*
X132997619Y-96375714D01*
X133045238Y-96423333D01*
X133069047Y-96470952D01*
X132926190Y-95875714D02*
X132926190Y-95828095D01*
X132950000Y-95780476D01*
X132973809Y-95756666D01*
X133021428Y-95732857D01*
X133116666Y-95709047D01*
X133235714Y-95709047D01*
X133330952Y-95732857D01*
X133378571Y-95756666D01*
X133402380Y-95780476D01*
X133426190Y-95828095D01*
X133426190Y-95875714D01*
X133402380Y-95923333D01*
X133378571Y-95947142D01*
X133330952Y-95970952D01*
X133235714Y-95994761D01*
X133116666Y-95994761D01*
X133021428Y-95970952D01*
X132973809Y-95947142D01*
X132950000Y-95923333D01*
X132926190Y-95875714D01*
%TO.C,R9*%
X132156190Y-96183333D02*
X131918095Y-96350000D01*
X132156190Y-96469047D02*
X131656190Y-96469047D01*
X131656190Y-96278571D01*
X131680000Y-96230952D01*
X131703809Y-96207142D01*
X131751428Y-96183333D01*
X131822857Y-96183333D01*
X131870476Y-96207142D01*
X131894285Y-96230952D01*
X131918095Y-96278571D01*
X131918095Y-96469047D01*
X132156190Y-95945238D02*
X132156190Y-95850000D01*
X132132380Y-95802380D01*
X132108571Y-95778571D01*
X132037142Y-95730952D01*
X131941904Y-95707142D01*
X131751428Y-95707142D01*
X131703809Y-95730952D01*
X131680000Y-95754761D01*
X131656190Y-95802380D01*
X131656190Y-95897619D01*
X131680000Y-95945238D01*
X131703809Y-95969047D01*
X131751428Y-95992857D01*
X131870476Y-95992857D01*
X131918095Y-95969047D01*
X131941904Y-95945238D01*
X131965714Y-95897619D01*
X131965714Y-95802380D01*
X131941904Y-95754761D01*
X131918095Y-95730952D01*
X131870476Y-95707142D01*
%TO.C,R8*%
X134696190Y-106013333D02*
X134458095Y-106180000D01*
X134696190Y-106299047D02*
X134196190Y-106299047D01*
X134196190Y-106108571D01*
X134220000Y-106060952D01*
X134243809Y-106037142D01*
X134291428Y-106013333D01*
X134362857Y-106013333D01*
X134410476Y-106037142D01*
X134434285Y-106060952D01*
X134458095Y-106108571D01*
X134458095Y-106299047D01*
X134410476Y-105727619D02*
X134386666Y-105775238D01*
X134362857Y-105799047D01*
X134315238Y-105822857D01*
X134291428Y-105822857D01*
X134243809Y-105799047D01*
X134220000Y-105775238D01*
X134196190Y-105727619D01*
X134196190Y-105632380D01*
X134220000Y-105584761D01*
X134243809Y-105560952D01*
X134291428Y-105537142D01*
X134315238Y-105537142D01*
X134362857Y-105560952D01*
X134386666Y-105584761D01*
X134410476Y-105632380D01*
X134410476Y-105727619D01*
X134434285Y-105775238D01*
X134458095Y-105799047D01*
X134505714Y-105822857D01*
X134600952Y-105822857D01*
X134648571Y-105799047D01*
X134672380Y-105775238D01*
X134696190Y-105727619D01*
X134696190Y-105632380D01*
X134672380Y-105584761D01*
X134648571Y-105560952D01*
X134600952Y-105537142D01*
X134505714Y-105537142D01*
X134458095Y-105560952D01*
X134434285Y-105584761D01*
X134410476Y-105632380D01*
%TO.C,R7*%
X130906190Y-96223333D02*
X130668095Y-96390000D01*
X130906190Y-96509047D02*
X130406190Y-96509047D01*
X130406190Y-96318571D01*
X130430000Y-96270952D01*
X130453809Y-96247142D01*
X130501428Y-96223333D01*
X130572857Y-96223333D01*
X130620476Y-96247142D01*
X130644285Y-96270952D01*
X130668095Y-96318571D01*
X130668095Y-96509047D01*
X130406190Y-96056666D02*
X130406190Y-95723333D01*
X130906190Y-95937619D01*
%TO.C,R6*%
X135966190Y-106013333D02*
X135728095Y-106180000D01*
X135966190Y-106299047D02*
X135466190Y-106299047D01*
X135466190Y-106108571D01*
X135490000Y-106060952D01*
X135513809Y-106037142D01*
X135561428Y-106013333D01*
X135632857Y-106013333D01*
X135680476Y-106037142D01*
X135704285Y-106060952D01*
X135728095Y-106108571D01*
X135728095Y-106299047D01*
X135466190Y-105584761D02*
X135466190Y-105680000D01*
X135490000Y-105727619D01*
X135513809Y-105751428D01*
X135585238Y-105799047D01*
X135680476Y-105822857D01*
X135870952Y-105822857D01*
X135918571Y-105799047D01*
X135942380Y-105775238D01*
X135966190Y-105727619D01*
X135966190Y-105632380D01*
X135942380Y-105584761D01*
X135918571Y-105560952D01*
X135870952Y-105537142D01*
X135751904Y-105537142D01*
X135704285Y-105560952D01*
X135680476Y-105584761D01*
X135656666Y-105632380D01*
X135656666Y-105727619D01*
X135680476Y-105775238D01*
X135704285Y-105799047D01*
X135751904Y-105822857D01*
%TO.C,R5*%
X137246190Y-106043333D02*
X137008095Y-106210000D01*
X137246190Y-106329047D02*
X136746190Y-106329047D01*
X136746190Y-106138571D01*
X136770000Y-106090952D01*
X136793809Y-106067142D01*
X136841428Y-106043333D01*
X136912857Y-106043333D01*
X136960476Y-106067142D01*
X136984285Y-106090952D01*
X137008095Y-106138571D01*
X137008095Y-106329047D01*
X136746190Y-105590952D02*
X136746190Y-105829047D01*
X136984285Y-105852857D01*
X136960476Y-105829047D01*
X136936666Y-105781428D01*
X136936666Y-105662380D01*
X136960476Y-105614761D01*
X136984285Y-105590952D01*
X137031904Y-105567142D01*
X137150952Y-105567142D01*
X137198571Y-105590952D01*
X137222380Y-105614761D01*
X137246190Y-105662380D01*
X137246190Y-105781428D01*
X137222380Y-105829047D01*
X137198571Y-105852857D01*
%TO.C,R4*%
X135966190Y-96203333D02*
X135728095Y-96370000D01*
X135966190Y-96489047D02*
X135466190Y-96489047D01*
X135466190Y-96298571D01*
X135490000Y-96250952D01*
X135513809Y-96227142D01*
X135561428Y-96203333D01*
X135632857Y-96203333D01*
X135680476Y-96227142D01*
X135704285Y-96250952D01*
X135728095Y-96298571D01*
X135728095Y-96489047D01*
X135632857Y-95774761D02*
X135966190Y-95774761D01*
X135442380Y-95893809D02*
X135799523Y-96012857D01*
X135799523Y-95703333D01*
%TO.C,R3*%
X134696190Y-96173333D02*
X134458095Y-96340000D01*
X134696190Y-96459047D02*
X134196190Y-96459047D01*
X134196190Y-96268571D01*
X134220000Y-96220952D01*
X134243809Y-96197142D01*
X134291428Y-96173333D01*
X134362857Y-96173333D01*
X134410476Y-96197142D01*
X134434285Y-96220952D01*
X134458095Y-96268571D01*
X134458095Y-96459047D01*
X134196190Y-96006666D02*
X134196190Y-95697142D01*
X134386666Y-95863809D01*
X134386666Y-95792380D01*
X134410476Y-95744761D01*
X134434285Y-95720952D01*
X134481904Y-95697142D01*
X134600952Y-95697142D01*
X134648571Y-95720952D01*
X134672380Y-95744761D01*
X134696190Y-95792380D01*
X134696190Y-95935238D01*
X134672380Y-95982857D01*
X134648571Y-96006666D01*
%TO.C,R2*%
X137236190Y-96173333D02*
X136998095Y-96340000D01*
X137236190Y-96459047D02*
X136736190Y-96459047D01*
X136736190Y-96268571D01*
X136760000Y-96220952D01*
X136783809Y-96197142D01*
X136831428Y-96173333D01*
X136902857Y-96173333D01*
X136950476Y-96197142D01*
X136974285Y-96220952D01*
X136998095Y-96268571D01*
X136998095Y-96459047D01*
X136783809Y-95982857D02*
X136760000Y-95959047D01*
X136736190Y-95911428D01*
X136736190Y-95792380D01*
X136760000Y-95744761D01*
X136783809Y-95720952D01*
X136831428Y-95697142D01*
X136879047Y-95697142D01*
X136950476Y-95720952D01*
X137236190Y-96006666D01*
X137236190Y-95697142D01*
%TO.C,R1*%
X138506190Y-96163333D02*
X138268095Y-96330000D01*
X138506190Y-96449047D02*
X138006190Y-96449047D01*
X138006190Y-96258571D01*
X138030000Y-96210952D01*
X138053809Y-96187142D01*
X138101428Y-96163333D01*
X138172857Y-96163333D01*
X138220476Y-96187142D01*
X138244285Y-96210952D01*
X138268095Y-96258571D01*
X138268095Y-96449047D01*
X138506190Y-95687142D02*
X138506190Y-95972857D01*
X138506190Y-95830000D02*
X138006190Y-95830000D01*
X138077619Y-95877619D01*
X138125238Y-95925238D01*
X138149047Y-95972857D01*
%TO.C,C5*%
X131978571Y-106063333D02*
X132002380Y-106087142D01*
X132026190Y-106158571D01*
X132026190Y-106206190D01*
X132002380Y-106277619D01*
X131954761Y-106325238D01*
X131907142Y-106349047D01*
X131811904Y-106372857D01*
X131740476Y-106372857D01*
X131645238Y-106349047D01*
X131597619Y-106325238D01*
X131550000Y-106277619D01*
X131526190Y-106206190D01*
X131526190Y-106158571D01*
X131550000Y-106087142D01*
X131573809Y-106063333D01*
X131526190Y-105610952D02*
X131526190Y-105849047D01*
X131764285Y-105872857D01*
X131740476Y-105849047D01*
X131716666Y-105801428D01*
X131716666Y-105682380D01*
X131740476Y-105634761D01*
X131764285Y-105610952D01*
X131811904Y-105587142D01*
X131930952Y-105587142D01*
X131978571Y-105610952D01*
X132002380Y-105634761D01*
X132026190Y-105682380D01*
X132026190Y-105801428D01*
X132002380Y-105849047D01*
X131978571Y-105872857D01*
%TO.C,C3*%
X147096666Y-103928571D02*
X147072857Y-103952380D01*
X147001428Y-103976190D01*
X146953809Y-103976190D01*
X146882380Y-103952380D01*
X146834761Y-103904761D01*
X146810952Y-103857142D01*
X146787142Y-103761904D01*
X146787142Y-103690476D01*
X146810952Y-103595238D01*
X146834761Y-103547619D01*
X146882380Y-103500000D01*
X146953809Y-103476190D01*
X147001428Y-103476190D01*
X147072857Y-103500000D01*
X147096666Y-103523809D01*
X147263333Y-103476190D02*
X147572857Y-103476190D01*
X147406190Y-103666666D01*
X147477619Y-103666666D01*
X147525238Y-103690476D01*
X147549047Y-103714285D01*
X147572857Y-103761904D01*
X147572857Y-103880952D01*
X147549047Y-103928571D01*
X147525238Y-103952380D01*
X147477619Y-103976190D01*
X147334761Y-103976190D01*
X147287142Y-103952380D01*
X147263333Y-103928571D01*
%TO.C,U3*%
X146789047Y-100726190D02*
X146789047Y-101130952D01*
X146812857Y-101178571D01*
X146836666Y-101202380D01*
X146884285Y-101226190D01*
X146979523Y-101226190D01*
X147027142Y-101202380D01*
X147050952Y-101178571D01*
X147074761Y-101130952D01*
X147074761Y-100726190D01*
X147265238Y-100726190D02*
X147574761Y-100726190D01*
X147408095Y-100916666D01*
X147479523Y-100916666D01*
X147527142Y-100940476D01*
X147550952Y-100964285D01*
X147574761Y-101011904D01*
X147574761Y-101130952D01*
X147550952Y-101178571D01*
X147527142Y-101202380D01*
X147479523Y-101226190D01*
X147336666Y-101226190D01*
X147289047Y-101202380D01*
X147265238Y-101178571D01*
%TO.C,C4*%
X140696666Y-101188571D02*
X140672857Y-101212380D01*
X140601428Y-101236190D01*
X140553809Y-101236190D01*
X140482380Y-101212380D01*
X140434761Y-101164761D01*
X140410952Y-101117142D01*
X140387142Y-101021904D01*
X140387142Y-100950476D01*
X140410952Y-100855238D01*
X140434761Y-100807619D01*
X140482380Y-100760000D01*
X140553809Y-100736190D01*
X140601428Y-100736190D01*
X140672857Y-100760000D01*
X140696666Y-100783809D01*
X141125238Y-100902857D02*
X141125238Y-101236190D01*
X141006190Y-100712380D02*
X140887142Y-101069523D01*
X141196666Y-101069523D01*
%TO.C,C2*%
X140406666Y-102648571D02*
X140382857Y-102672380D01*
X140311428Y-102696190D01*
X140263809Y-102696190D01*
X140192380Y-102672380D01*
X140144761Y-102624761D01*
X140120952Y-102577142D01*
X140097142Y-102481904D01*
X140097142Y-102410476D01*
X140120952Y-102315238D01*
X140144761Y-102267619D01*
X140192380Y-102220000D01*
X140263809Y-102196190D01*
X140311428Y-102196190D01*
X140382857Y-102220000D01*
X140406666Y-102243809D01*
X140597142Y-102243809D02*
X140620952Y-102220000D01*
X140668571Y-102196190D01*
X140787619Y-102196190D01*
X140835238Y-102220000D01*
X140859047Y-102243809D01*
X140882857Y-102291428D01*
X140882857Y-102339047D01*
X140859047Y-102410476D01*
X140573333Y-102696190D01*
X140882857Y-102696190D01*
%TO.C,C1*%
X140406666Y-99648571D02*
X140382857Y-99672380D01*
X140311428Y-99696190D01*
X140263809Y-99696190D01*
X140192380Y-99672380D01*
X140144761Y-99624761D01*
X140120952Y-99577142D01*
X140097142Y-99481904D01*
X140097142Y-99410476D01*
X140120952Y-99315238D01*
X140144761Y-99267619D01*
X140192380Y-99220000D01*
X140263809Y-99196190D01*
X140311428Y-99196190D01*
X140382857Y-99220000D01*
X140406666Y-99243809D01*
X140882857Y-99696190D02*
X140597142Y-99696190D01*
X140740000Y-99696190D02*
X140740000Y-99196190D01*
X140692380Y-99267619D01*
X140644761Y-99315238D01*
X140597142Y-99339047D01*
%TO.C,U1*%
X130826190Y-104450952D02*
X131230952Y-104450952D01*
X131278571Y-104427142D01*
X131302380Y-104403333D01*
X131326190Y-104355714D01*
X131326190Y-104260476D01*
X131302380Y-104212857D01*
X131278571Y-104189047D01*
X131230952Y-104165238D01*
X130826190Y-104165238D01*
X131326190Y-103665238D02*
X131326190Y-103950952D01*
X131326190Y-103808095D02*
X130826190Y-103808095D01*
X130897619Y-103855714D01*
X130945238Y-103903333D01*
X130969047Y-103950952D01*
%TO.C,C6*%
X139886666Y-94348571D02*
X139862857Y-94372380D01*
X139791428Y-94396190D01*
X139743809Y-94396190D01*
X139672380Y-94372380D01*
X139624761Y-94324761D01*
X139600952Y-94277142D01*
X139577142Y-94181904D01*
X139577142Y-94110476D01*
X139600952Y-94015238D01*
X139624761Y-93967619D01*
X139672380Y-93920000D01*
X139743809Y-93896190D01*
X139791428Y-93896190D01*
X139862857Y-93920000D01*
X139886666Y-93943809D01*
X140315238Y-93896190D02*
X140220000Y-93896190D01*
X140172380Y-93920000D01*
X140148571Y-93943809D01*
X140100952Y-94015238D01*
X140077142Y-94110476D01*
X140077142Y-94300952D01*
X140100952Y-94348571D01*
X140124761Y-94372380D01*
X140172380Y-94396190D01*
X140267619Y-94396190D01*
X140315238Y-94372380D01*
X140339047Y-94348571D01*
X140362857Y-94300952D01*
X140362857Y-94181904D01*
X140339047Y-94134285D01*
X140315238Y-94110476D01*
X140267619Y-94086666D01*
X140172380Y-94086666D01*
X140124761Y-94110476D01*
X140100952Y-94134285D01*
X140077142Y-94181904D01*
%TD*%
M02*
