M48
; DRILL file {KiCad 5.1.8-db9833491~87~ubuntu20.04.1} date Thu Nov  5 18:03:56 2020
; FORMAT={-:-/ absolute / inch / decimal}
; #@! TF.CreationDate,2020-11-05T18:03:56+01:00
; #@! TF.GenerationSoftware,Kicad,Pcbnew,5.1.8-db9833491~87~ubuntu20.04.1
; #@! TF.FileFunction,Plated,1,4,PTH
FMAT,2
INCH
T1C0.0157
T2C0.0197
%
G90
G05
T1
X4.948Y-3.7362
X4.952Y-4.2161
X5.052Y-4.1201
X5.0878Y-3.7941
X5.1181Y-3.7697
X5.1181Y-4.1831
X5.1571Y-4.1827
X5.1677Y-3.9173
X5.1681Y-3.7697
X5.1685Y-3.9567
X5.2181Y-3.7701
X5.2181Y-4.1831
X5.2508Y-3.9126
X5.2677Y-4.1835
X5.2681Y-3.7697
X5.2773Y-4.0403
X5.3181Y-3.7697
X5.3181Y-4.1831
X5.3531Y-4.0402
X5.3681Y-3.7697
X5.3681Y-4.1831
X5.3787Y-3.9126
X5.4181Y-3.7697
X5.4181Y-4.1835
X5.4681Y-3.7697
X5.4681Y-4.1831
X5.4819Y-4.1024
X5.4825Y-3.849
X5.5098Y-3.8476
X5.5205Y-4.0039
X5.5531Y-3.939
X5.6012Y-4.0535
X5.6319Y-4.085
X5.6874Y-3.7697
X5.6874Y-4.1831
X5.7067Y-3.939
X5.7374Y-4.1831
X5.7461Y-4.1331
X5.7874Y-3.7697
X5.7874Y-4.1831
T2
X5.5839Y-3.7205
X5.5839Y-3.7598
X5.5839Y-3.7992
X5.5839Y-3.8386
T0
M30
