M48
; DRILL file {KiCad 5.1.8-db9833491~87~ubuntu20.04.1} date Mon Nov 23 16:47:08 2020
; FORMAT={-:-/ absolute / inch / decimal}
; #@! TF.CreationDate,2020-11-23T16:47:08+01:00
; #@! TF.GenerationSoftware,Kicad,Pcbnew,5.1.8-db9833491~87~ubuntu20.04.1
; #@! TF.FileFunction,Plated,1,4,PTH
FMAT,2
INCH
T1C0.0157
%
G90
G05
T1
X5.5524Y-3.7169
X5.5528Y-4.1693
X5.5811Y-4.1969
X5.5815Y-3.6866
X5.6614Y-3.9228
X5.6724Y-4.085
X5.7335Y-4.085
X5.8193Y-4.0024
X5.8209Y-3.8906
X5.8535Y-4.0028
X5.9154Y-3.9988
X5.9406Y-3.8803
X5.9531Y-3.9969
X5.9744Y-3.9016
X5.984Y-4.0061
X6.0Y-4.1988
X6.002Y-3.7598
X6.0083Y-3.8799
X6.0177Y-4.0063
X6.0213Y-3.7189
X6.0402Y-4.1106
X6.0673Y-3.6815
X6.09Y-3.7693
X6.1228Y-3.9689
X6.1472Y-3.687
X6.1512Y-4.1972
X6.1583Y-3.7697
X6.2063Y-4.0425
X6.2354Y-4.1496
X6.2854Y-3.7402
X6.2854Y-4.1496
T0
M30
