%TF.GenerationSoftware,KiCad,Pcbnew,5.1.8-db9833491~87~ubuntu20.04.1*%
%TF.CreationDate,2020-11-23T16:47:10+01:00*%
%TF.ProjectId,rosalyn-sat,726f7361-6c79-46e2-9d73-61742e6b6963,v1.0*%
%TF.SameCoordinates,Original*%
%TF.FileFunction,Legend,Bot*%
%TF.FilePolarity,Positive*%
%FSLAX46Y46*%
G04 Gerber Fmt 4.6, Leading zero omitted, Abs format (unit mm)*
G04 Created by KiCad (PCBNEW 5.1.8-db9833491~87~ubuntu20.04.1) date 2020-11-23 16:47:10*
%MOMM*%
%LPD*%
G01*
G04 APERTURE LIST*
%ADD10C,0.150000*%
%ADD11C,0.125000*%
G04 APERTURE END LIST*
D10*
X152449047Y-99952380D02*
X152449047Y-100666666D01*
X152496666Y-100809523D01*
X152591904Y-100904761D01*
X152734761Y-100952380D01*
X152830000Y-100952380D01*
X151496666Y-100952380D02*
X151972857Y-100952380D01*
X151972857Y-99952380D01*
X150591904Y-100857142D02*
X150639523Y-100904761D01*
X150782380Y-100952380D01*
X150877619Y-100952380D01*
X151020476Y-100904761D01*
X151115714Y-100809523D01*
X151163333Y-100714285D01*
X151210952Y-100523809D01*
X151210952Y-100380952D01*
X151163333Y-100190476D01*
X151115714Y-100095238D01*
X151020476Y-100000000D01*
X150877619Y-99952380D01*
X150782380Y-99952380D01*
X150639523Y-100000000D01*
X150591904Y-100047619D01*
X149877619Y-99952380D02*
X149877619Y-100666666D01*
X149925238Y-100809523D01*
X150020476Y-100904761D01*
X150163333Y-100952380D01*
X150258571Y-100952380D01*
X148925238Y-100952380D02*
X149401428Y-100952380D01*
X149401428Y-99952380D01*
X148020476Y-100857142D02*
X148068095Y-100904761D01*
X148210952Y-100952380D01*
X148306190Y-100952380D01*
X148449047Y-100904761D01*
X148544285Y-100809523D01*
X148591904Y-100714285D01*
X148639523Y-100523809D01*
X148639523Y-100380952D01*
X148591904Y-100190476D01*
X148544285Y-100095238D01*
X148449047Y-100000000D01*
X148306190Y-99952380D01*
X148210952Y-99952380D01*
X148068095Y-100000000D01*
X148020476Y-100047619D01*
X147306190Y-99952380D02*
X147306190Y-100666666D01*
X147353809Y-100809523D01*
X147449047Y-100904761D01*
X147591904Y-100952380D01*
X147687142Y-100952380D01*
X146353809Y-100952380D02*
X146830000Y-100952380D01*
X146830000Y-99952380D01*
X145449047Y-100857142D02*
X145496666Y-100904761D01*
X145639523Y-100952380D01*
X145734761Y-100952380D01*
X145877619Y-100904761D01*
X145972857Y-100809523D01*
X146020476Y-100714285D01*
X146068095Y-100523809D01*
X146068095Y-100380952D01*
X146020476Y-100190476D01*
X145972857Y-100095238D01*
X145877619Y-100000000D01*
X145734761Y-99952380D01*
X145639523Y-99952380D01*
X145496666Y-100000000D01*
X145449047Y-100047619D01*
X144734761Y-99952380D02*
X144734761Y-100666666D01*
X144782380Y-100809523D01*
X144877619Y-100904761D01*
X145020476Y-100952380D01*
X145115714Y-100952380D01*
X143782380Y-100952380D02*
X144258571Y-100952380D01*
X144258571Y-99952380D01*
X142877619Y-100857142D02*
X142925238Y-100904761D01*
X143068095Y-100952380D01*
X143163333Y-100952380D01*
X143306190Y-100904761D01*
X143401428Y-100809523D01*
X143449047Y-100714285D01*
X143496666Y-100523809D01*
X143496666Y-100380952D01*
X143449047Y-100190476D01*
X143401428Y-100095238D01*
X143306190Y-100000000D01*
X143163333Y-99952380D01*
X143068095Y-99952380D01*
X142925238Y-100000000D01*
X142877619Y-100047619D01*
%TO.C,U2*%
X159814214Y-96700000D02*
G75*
G03*
X159814214Y-96700000I-1414214J0D01*
G01*
X155700000Y-95150000D02*
X141650000Y-95150000D01*
X155700000Y-99150000D02*
X155700000Y-95150000D01*
X160400000Y-99150000D02*
X155700000Y-99150000D01*
X160400000Y-105150000D02*
X160400000Y-99150000D01*
X141650000Y-105150000D02*
X160400000Y-105150000D01*
X141650000Y-95150000D02*
X141650000Y-105150000D01*
X140250000Y-92800000D02*
X140250000Y-107500000D01*
X160950000Y-92800000D02*
X140250000Y-92800000D01*
X160950000Y-107500000D02*
X160950000Y-92800000D01*
X140250000Y-107500000D02*
X160950000Y-107500000D01*
D11*
X147960952Y-96286190D02*
X147960952Y-96690952D01*
X147937142Y-96738571D01*
X147913333Y-96762380D01*
X147865714Y-96786190D01*
X147770476Y-96786190D01*
X147722857Y-96762380D01*
X147699047Y-96738571D01*
X147675238Y-96690952D01*
X147675238Y-96286190D01*
X147460952Y-96333809D02*
X147437142Y-96310000D01*
X147389523Y-96286190D01*
X147270476Y-96286190D01*
X147222857Y-96310000D01*
X147199047Y-96333809D01*
X147175238Y-96381428D01*
X147175238Y-96429047D01*
X147199047Y-96500476D01*
X147484761Y-96786190D01*
X147175238Y-96786190D01*
%TD*%
M02*
