%TF.GenerationSoftware,KiCad,Pcbnew,5.1.8-db9833491~87~ubuntu20.04.1*%
%TF.CreationDate,2020-11-23T16:47:10+01:00*%
%TF.ProjectId,rosalyn-sat,726f7361-6c79-46e2-9d73-61742e6b6963,v1.0*%
%TF.SameCoordinates,Original*%
%TF.FileFunction,Copper,L2,Inr*%
%TF.FilePolarity,Positive*%
%FSLAX46Y46*%
G04 Gerber Fmt 4.6, Leading zero omitted, Abs format (unit mm)*
G04 Created by KiCad (PCBNEW 5.1.8-db9833491~87~ubuntu20.04.1) date 2020-11-23 16:47:10*
%MOMM*%
%LPD*%
G01*
G04 APERTURE LIST*
%TA.AperFunction,ViaPad*%
%ADD10C,0.800000*%
%TD*%
%TA.AperFunction,ViaPad*%
%ADD11C,0.600000*%
%TD*%
%TA.AperFunction,Conductor*%
%ADD12C,0.254000*%
%TD*%
%TA.AperFunction,Conductor*%
%ADD13C,0.100000*%
%TD*%
G04 APERTURE END LIST*
D10*
%TO.N,GND*%
X159650000Y-105400000D03*
X158380000Y-105400000D03*
X141770000Y-93640000D03*
D11*
X152450000Y-95500000D03*
D10*
X141759998Y-106600000D03*
X144080000Y-103760000D03*
X152400000Y-106649998D03*
X143800000Y-99640000D03*
X157640000Y-102680000D03*
X156240000Y-106610000D03*
X156139998Y-93650000D03*
X159650000Y-95000000D03*
X154684994Y-95740006D03*
X155520000Y-100810004D03*
D11*
%TO.N,spi_sck*%
X152940000Y-94460000D03*
%TO.N,spi_mosi*%
X151750000Y-99100000D03*
%TO.N,spi_miso*%
X152610000Y-98550000D03*
%TO.N,e22_rxen*%
X152850000Y-101760001D03*
D10*
%TO.N,+3V3*%
X154110000Y-93510000D03*
X145630000Y-103760000D03*
X141030000Y-94410000D03*
X141040000Y-105900000D03*
X156420000Y-95750002D03*
D11*
%TO.N,e22_dio1*%
X147810000Y-101659996D03*
%TO.N,e22_busy*%
X148680000Y-101670000D03*
%TO.N,e22_nrst*%
X150250000Y-101570000D03*
%TO.N,e22_nss*%
X150890000Y-98560000D03*
D10*
%TO.N,+5V*%
X147850000Y-98820000D03*
X153420000Y-104410000D03*
D11*
%TO.N,e22_dio2*%
X151210000Y-101520000D03*
%TO.N,e22_txen*%
X151994061Y-101755260D03*
%TD*%
D12*
%TO.N,GND*%
X153075000Y-93408061D02*
X153075000Y-93533536D01*
X153032089Y-93525000D01*
X152847911Y-93525000D01*
X152667271Y-93560932D01*
X152497111Y-93631414D01*
X152343972Y-93733738D01*
X152213738Y-93863972D01*
X152111414Y-94017111D01*
X152040932Y-94187271D01*
X152005000Y-94367911D01*
X152005000Y-94552089D01*
X152040932Y-94732729D01*
X152111414Y-94902889D01*
X152213738Y-95056028D01*
X152343972Y-95186262D01*
X152497111Y-95288586D01*
X152667271Y-95359068D01*
X152847911Y-95395000D01*
X153032089Y-95395000D01*
X153212729Y-95359068D01*
X153382889Y-95288586D01*
X153536028Y-95186262D01*
X153666262Y-95056028D01*
X153768586Y-94902889D01*
X153839068Y-94732729D01*
X153875000Y-94552089D01*
X153875000Y-94518533D01*
X154008061Y-94545000D01*
X154211939Y-94545000D01*
X154411898Y-94505226D01*
X154600256Y-94427205D01*
X154769774Y-94313937D01*
X154913937Y-94169774D01*
X155027205Y-94000256D01*
X155105226Y-93811898D01*
X155145000Y-93611939D01*
X155145000Y-93408061D01*
X155125495Y-93310000D01*
X160440000Y-93310000D01*
X160440001Y-106990000D01*
X140760000Y-106990000D01*
X140760000Y-106899582D01*
X140938061Y-106935000D01*
X141141939Y-106935000D01*
X141341898Y-106895226D01*
X141530256Y-106817205D01*
X141699774Y-106703937D01*
X141843937Y-106559774D01*
X141957205Y-106390256D01*
X142035226Y-106201898D01*
X142075000Y-106001939D01*
X142075000Y-105798061D01*
X142035226Y-105598102D01*
X141957205Y-105409744D01*
X141843937Y-105240226D01*
X141699774Y-105096063D01*
X141530256Y-104982795D01*
X141341898Y-104904774D01*
X141141939Y-104865000D01*
X140938061Y-104865000D01*
X140760000Y-104900418D01*
X140760000Y-103658061D01*
X144595000Y-103658061D01*
X144595000Y-103861939D01*
X144634774Y-104061898D01*
X144712795Y-104250256D01*
X144826063Y-104419774D01*
X144970226Y-104563937D01*
X145139744Y-104677205D01*
X145328102Y-104755226D01*
X145528061Y-104795000D01*
X145731939Y-104795000D01*
X145931898Y-104755226D01*
X146120256Y-104677205D01*
X146289774Y-104563937D01*
X146433937Y-104419774D01*
X146508581Y-104308061D01*
X152385000Y-104308061D01*
X152385000Y-104511939D01*
X152424774Y-104711898D01*
X152502795Y-104900256D01*
X152616063Y-105069774D01*
X152760226Y-105213937D01*
X152929744Y-105327205D01*
X153118102Y-105405226D01*
X153318061Y-105445000D01*
X153521939Y-105445000D01*
X153721898Y-105405226D01*
X153910256Y-105327205D01*
X154079774Y-105213937D01*
X154223937Y-105069774D01*
X154337205Y-104900256D01*
X154415226Y-104711898D01*
X154455000Y-104511939D01*
X154455000Y-104308061D01*
X154415226Y-104108102D01*
X154337205Y-103919744D01*
X154223937Y-103750226D01*
X154079774Y-103606063D01*
X153910256Y-103492795D01*
X153721898Y-103414774D01*
X153521939Y-103375000D01*
X153318061Y-103375000D01*
X153118102Y-103414774D01*
X152929744Y-103492795D01*
X152760226Y-103606063D01*
X152616063Y-103750226D01*
X152502795Y-103919744D01*
X152424774Y-104108102D01*
X152385000Y-104308061D01*
X146508581Y-104308061D01*
X146547205Y-104250256D01*
X146625226Y-104061898D01*
X146665000Y-103861939D01*
X146665000Y-103658061D01*
X146625226Y-103458102D01*
X146547205Y-103269744D01*
X146433937Y-103100226D01*
X146289774Y-102956063D01*
X146120256Y-102842795D01*
X145931898Y-102764774D01*
X145731939Y-102725000D01*
X145528061Y-102725000D01*
X145328102Y-102764774D01*
X145139744Y-102842795D01*
X144970226Y-102956063D01*
X144826063Y-103100226D01*
X144712795Y-103269744D01*
X144634774Y-103458102D01*
X144595000Y-103658061D01*
X140760000Y-103658061D01*
X140760000Y-101567907D01*
X146875000Y-101567907D01*
X146875000Y-101752085D01*
X146910932Y-101932725D01*
X146981414Y-102102885D01*
X147083738Y-102256024D01*
X147213972Y-102386258D01*
X147367111Y-102488582D01*
X147537271Y-102559064D01*
X147717911Y-102594996D01*
X147902089Y-102594996D01*
X148082729Y-102559064D01*
X148233906Y-102496445D01*
X148237111Y-102498586D01*
X148407271Y-102569068D01*
X148587911Y-102605000D01*
X148772089Y-102605000D01*
X148952729Y-102569068D01*
X149122889Y-102498586D01*
X149276028Y-102396262D01*
X149406262Y-102266028D01*
X149498409Y-102128120D01*
X149523738Y-102166028D01*
X149653972Y-102296262D01*
X149807111Y-102398586D01*
X149977271Y-102469068D01*
X150157911Y-102505000D01*
X150342089Y-102505000D01*
X150522729Y-102469068D01*
X150692889Y-102398586D01*
X150767487Y-102348742D01*
X150937271Y-102419068D01*
X151117911Y-102455000D01*
X151302089Y-102455000D01*
X151359993Y-102443482D01*
X151398033Y-102481522D01*
X151551172Y-102583846D01*
X151721332Y-102654328D01*
X151901972Y-102690260D01*
X152086150Y-102690260D01*
X152266790Y-102654328D01*
X152416308Y-102592396D01*
X152577271Y-102659069D01*
X152757911Y-102695001D01*
X152942089Y-102695001D01*
X153122729Y-102659069D01*
X153292889Y-102588587D01*
X153446028Y-102486263D01*
X153576262Y-102356029D01*
X153678586Y-102202890D01*
X153749068Y-102032730D01*
X153785000Y-101852090D01*
X153785000Y-101667912D01*
X153749068Y-101487272D01*
X153678586Y-101317112D01*
X153576262Y-101163973D01*
X153446028Y-101033739D01*
X153292889Y-100931415D01*
X153122729Y-100860933D01*
X152942089Y-100825001D01*
X152757911Y-100825001D01*
X152577271Y-100860933D01*
X152427753Y-100922865D01*
X152266790Y-100856192D01*
X152086150Y-100820260D01*
X151901972Y-100820260D01*
X151844068Y-100831778D01*
X151806028Y-100793738D01*
X151652889Y-100691414D01*
X151482729Y-100620932D01*
X151302089Y-100585000D01*
X151117911Y-100585000D01*
X150937271Y-100620932D01*
X150767111Y-100691414D01*
X150692513Y-100741258D01*
X150522729Y-100670932D01*
X150342089Y-100635000D01*
X150157911Y-100635000D01*
X149977271Y-100670932D01*
X149807111Y-100741414D01*
X149653972Y-100843738D01*
X149523738Y-100973972D01*
X149431591Y-101111880D01*
X149406262Y-101073972D01*
X149276028Y-100943738D01*
X149122889Y-100841414D01*
X148952729Y-100770932D01*
X148772089Y-100735000D01*
X148587911Y-100735000D01*
X148407271Y-100770932D01*
X148256094Y-100833551D01*
X148252889Y-100831410D01*
X148082729Y-100760928D01*
X147902089Y-100724996D01*
X147717911Y-100724996D01*
X147537271Y-100760928D01*
X147367111Y-100831410D01*
X147213972Y-100933734D01*
X147083738Y-101063968D01*
X146981414Y-101217107D01*
X146910932Y-101387267D01*
X146875000Y-101567907D01*
X140760000Y-101567907D01*
X140760000Y-98718061D01*
X146815000Y-98718061D01*
X146815000Y-98921939D01*
X146854774Y-99121898D01*
X146932795Y-99310256D01*
X147046063Y-99479774D01*
X147190226Y-99623937D01*
X147359744Y-99737205D01*
X147548102Y-99815226D01*
X147748061Y-99855000D01*
X147951939Y-99855000D01*
X148151898Y-99815226D01*
X148340256Y-99737205D01*
X148509774Y-99623937D01*
X148653937Y-99479774D01*
X148767205Y-99310256D01*
X148845226Y-99121898D01*
X148885000Y-98921939D01*
X148885000Y-98718061D01*
X148845226Y-98518102D01*
X148824437Y-98467911D01*
X149955000Y-98467911D01*
X149955000Y-98652089D01*
X149990932Y-98832729D01*
X150061414Y-99002889D01*
X150163738Y-99156028D01*
X150293972Y-99286262D01*
X150447111Y-99388586D01*
X150617271Y-99459068D01*
X150797911Y-99495000D01*
X150901578Y-99495000D01*
X150921414Y-99542889D01*
X151023738Y-99696028D01*
X151153972Y-99826262D01*
X151307111Y-99928586D01*
X151477271Y-99999068D01*
X151657911Y-100035000D01*
X151842089Y-100035000D01*
X152022729Y-99999068D01*
X152192889Y-99928586D01*
X152346028Y-99826262D01*
X152476262Y-99696028D01*
X152578586Y-99542889D01*
X152602564Y-99485000D01*
X152702089Y-99485000D01*
X152882729Y-99449068D01*
X153052889Y-99378586D01*
X153206028Y-99276262D01*
X153336262Y-99146028D01*
X153438586Y-98992889D01*
X153509068Y-98822729D01*
X153545000Y-98642089D01*
X153545000Y-98457911D01*
X153509068Y-98277271D01*
X153438586Y-98107111D01*
X153336262Y-97953972D01*
X153206028Y-97823738D01*
X153052889Y-97721414D01*
X152882729Y-97650932D01*
X152702089Y-97615000D01*
X152517911Y-97615000D01*
X152337271Y-97650932D01*
X152167111Y-97721414D01*
X152013972Y-97823738D01*
X151883738Y-97953972D01*
X151781414Y-98107111D01*
X151757436Y-98165000D01*
X151738422Y-98165000D01*
X151718586Y-98117111D01*
X151616262Y-97963972D01*
X151486028Y-97833738D01*
X151332889Y-97731414D01*
X151162729Y-97660932D01*
X150982089Y-97625000D01*
X150797911Y-97625000D01*
X150617271Y-97660932D01*
X150447111Y-97731414D01*
X150293972Y-97833738D01*
X150163738Y-97963972D01*
X150061414Y-98117111D01*
X149990932Y-98287271D01*
X149955000Y-98467911D01*
X148824437Y-98467911D01*
X148767205Y-98329744D01*
X148653937Y-98160226D01*
X148509774Y-98016063D01*
X148340256Y-97902795D01*
X148151898Y-97824774D01*
X147951939Y-97785000D01*
X147748061Y-97785000D01*
X147548102Y-97824774D01*
X147359744Y-97902795D01*
X147190226Y-98016063D01*
X147046063Y-98160226D01*
X146932795Y-98329744D01*
X146854774Y-98518102D01*
X146815000Y-98718061D01*
X140760000Y-98718061D01*
X140760000Y-95648063D01*
X155385000Y-95648063D01*
X155385000Y-95851941D01*
X155424774Y-96051900D01*
X155502795Y-96240258D01*
X155616063Y-96409776D01*
X155760226Y-96553939D01*
X155929744Y-96667207D01*
X156118102Y-96745228D01*
X156318061Y-96785002D01*
X156521939Y-96785002D01*
X156721898Y-96745228D01*
X156910256Y-96667207D01*
X157079774Y-96553939D01*
X157223937Y-96409776D01*
X157337205Y-96240258D01*
X157415226Y-96051900D01*
X157455000Y-95851941D01*
X157455000Y-95648063D01*
X157415226Y-95448104D01*
X157337205Y-95259746D01*
X157223937Y-95090228D01*
X157079774Y-94946065D01*
X156910256Y-94832797D01*
X156721898Y-94754776D01*
X156521939Y-94715002D01*
X156318061Y-94715002D01*
X156118102Y-94754776D01*
X155929744Y-94832797D01*
X155760226Y-94946065D01*
X155616063Y-95090228D01*
X155502795Y-95259746D01*
X155424774Y-95448104D01*
X155385000Y-95648063D01*
X140760000Y-95648063D01*
X140760000Y-95411571D01*
X140928061Y-95445000D01*
X141131939Y-95445000D01*
X141331898Y-95405226D01*
X141520256Y-95327205D01*
X141689774Y-95213937D01*
X141833937Y-95069774D01*
X141947205Y-94900256D01*
X142025226Y-94711898D01*
X142065000Y-94511939D01*
X142065000Y-94308061D01*
X142025226Y-94108102D01*
X141947205Y-93919744D01*
X141833937Y-93750226D01*
X141689774Y-93606063D01*
X141520256Y-93492795D01*
X141331898Y-93414774D01*
X141131939Y-93375000D01*
X140928061Y-93375000D01*
X140760000Y-93408429D01*
X140760000Y-93310000D01*
X153094505Y-93310000D01*
X153075000Y-93408061D01*
%TA.AperFunction,Conductor*%
D13*
G36*
X153075000Y-93408061D02*
G01*
X153075000Y-93533536D01*
X153032089Y-93525000D01*
X152847911Y-93525000D01*
X152667271Y-93560932D01*
X152497111Y-93631414D01*
X152343972Y-93733738D01*
X152213738Y-93863972D01*
X152111414Y-94017111D01*
X152040932Y-94187271D01*
X152005000Y-94367911D01*
X152005000Y-94552089D01*
X152040932Y-94732729D01*
X152111414Y-94902889D01*
X152213738Y-95056028D01*
X152343972Y-95186262D01*
X152497111Y-95288586D01*
X152667271Y-95359068D01*
X152847911Y-95395000D01*
X153032089Y-95395000D01*
X153212729Y-95359068D01*
X153382889Y-95288586D01*
X153536028Y-95186262D01*
X153666262Y-95056028D01*
X153768586Y-94902889D01*
X153839068Y-94732729D01*
X153875000Y-94552089D01*
X153875000Y-94518533D01*
X154008061Y-94545000D01*
X154211939Y-94545000D01*
X154411898Y-94505226D01*
X154600256Y-94427205D01*
X154769774Y-94313937D01*
X154913937Y-94169774D01*
X155027205Y-94000256D01*
X155105226Y-93811898D01*
X155145000Y-93611939D01*
X155145000Y-93408061D01*
X155125495Y-93310000D01*
X160440000Y-93310000D01*
X160440001Y-106990000D01*
X140760000Y-106990000D01*
X140760000Y-106899582D01*
X140938061Y-106935000D01*
X141141939Y-106935000D01*
X141341898Y-106895226D01*
X141530256Y-106817205D01*
X141699774Y-106703937D01*
X141843937Y-106559774D01*
X141957205Y-106390256D01*
X142035226Y-106201898D01*
X142075000Y-106001939D01*
X142075000Y-105798061D01*
X142035226Y-105598102D01*
X141957205Y-105409744D01*
X141843937Y-105240226D01*
X141699774Y-105096063D01*
X141530256Y-104982795D01*
X141341898Y-104904774D01*
X141141939Y-104865000D01*
X140938061Y-104865000D01*
X140760000Y-104900418D01*
X140760000Y-103658061D01*
X144595000Y-103658061D01*
X144595000Y-103861939D01*
X144634774Y-104061898D01*
X144712795Y-104250256D01*
X144826063Y-104419774D01*
X144970226Y-104563937D01*
X145139744Y-104677205D01*
X145328102Y-104755226D01*
X145528061Y-104795000D01*
X145731939Y-104795000D01*
X145931898Y-104755226D01*
X146120256Y-104677205D01*
X146289774Y-104563937D01*
X146433937Y-104419774D01*
X146508581Y-104308061D01*
X152385000Y-104308061D01*
X152385000Y-104511939D01*
X152424774Y-104711898D01*
X152502795Y-104900256D01*
X152616063Y-105069774D01*
X152760226Y-105213937D01*
X152929744Y-105327205D01*
X153118102Y-105405226D01*
X153318061Y-105445000D01*
X153521939Y-105445000D01*
X153721898Y-105405226D01*
X153910256Y-105327205D01*
X154079774Y-105213937D01*
X154223937Y-105069774D01*
X154337205Y-104900256D01*
X154415226Y-104711898D01*
X154455000Y-104511939D01*
X154455000Y-104308061D01*
X154415226Y-104108102D01*
X154337205Y-103919744D01*
X154223937Y-103750226D01*
X154079774Y-103606063D01*
X153910256Y-103492795D01*
X153721898Y-103414774D01*
X153521939Y-103375000D01*
X153318061Y-103375000D01*
X153118102Y-103414774D01*
X152929744Y-103492795D01*
X152760226Y-103606063D01*
X152616063Y-103750226D01*
X152502795Y-103919744D01*
X152424774Y-104108102D01*
X152385000Y-104308061D01*
X146508581Y-104308061D01*
X146547205Y-104250256D01*
X146625226Y-104061898D01*
X146665000Y-103861939D01*
X146665000Y-103658061D01*
X146625226Y-103458102D01*
X146547205Y-103269744D01*
X146433937Y-103100226D01*
X146289774Y-102956063D01*
X146120256Y-102842795D01*
X145931898Y-102764774D01*
X145731939Y-102725000D01*
X145528061Y-102725000D01*
X145328102Y-102764774D01*
X145139744Y-102842795D01*
X144970226Y-102956063D01*
X144826063Y-103100226D01*
X144712795Y-103269744D01*
X144634774Y-103458102D01*
X144595000Y-103658061D01*
X140760000Y-103658061D01*
X140760000Y-101567907D01*
X146875000Y-101567907D01*
X146875000Y-101752085D01*
X146910932Y-101932725D01*
X146981414Y-102102885D01*
X147083738Y-102256024D01*
X147213972Y-102386258D01*
X147367111Y-102488582D01*
X147537271Y-102559064D01*
X147717911Y-102594996D01*
X147902089Y-102594996D01*
X148082729Y-102559064D01*
X148233906Y-102496445D01*
X148237111Y-102498586D01*
X148407271Y-102569068D01*
X148587911Y-102605000D01*
X148772089Y-102605000D01*
X148952729Y-102569068D01*
X149122889Y-102498586D01*
X149276028Y-102396262D01*
X149406262Y-102266028D01*
X149498409Y-102128120D01*
X149523738Y-102166028D01*
X149653972Y-102296262D01*
X149807111Y-102398586D01*
X149977271Y-102469068D01*
X150157911Y-102505000D01*
X150342089Y-102505000D01*
X150522729Y-102469068D01*
X150692889Y-102398586D01*
X150767487Y-102348742D01*
X150937271Y-102419068D01*
X151117911Y-102455000D01*
X151302089Y-102455000D01*
X151359993Y-102443482D01*
X151398033Y-102481522D01*
X151551172Y-102583846D01*
X151721332Y-102654328D01*
X151901972Y-102690260D01*
X152086150Y-102690260D01*
X152266790Y-102654328D01*
X152416308Y-102592396D01*
X152577271Y-102659069D01*
X152757911Y-102695001D01*
X152942089Y-102695001D01*
X153122729Y-102659069D01*
X153292889Y-102588587D01*
X153446028Y-102486263D01*
X153576262Y-102356029D01*
X153678586Y-102202890D01*
X153749068Y-102032730D01*
X153785000Y-101852090D01*
X153785000Y-101667912D01*
X153749068Y-101487272D01*
X153678586Y-101317112D01*
X153576262Y-101163973D01*
X153446028Y-101033739D01*
X153292889Y-100931415D01*
X153122729Y-100860933D01*
X152942089Y-100825001D01*
X152757911Y-100825001D01*
X152577271Y-100860933D01*
X152427753Y-100922865D01*
X152266790Y-100856192D01*
X152086150Y-100820260D01*
X151901972Y-100820260D01*
X151844068Y-100831778D01*
X151806028Y-100793738D01*
X151652889Y-100691414D01*
X151482729Y-100620932D01*
X151302089Y-100585000D01*
X151117911Y-100585000D01*
X150937271Y-100620932D01*
X150767111Y-100691414D01*
X150692513Y-100741258D01*
X150522729Y-100670932D01*
X150342089Y-100635000D01*
X150157911Y-100635000D01*
X149977271Y-100670932D01*
X149807111Y-100741414D01*
X149653972Y-100843738D01*
X149523738Y-100973972D01*
X149431591Y-101111880D01*
X149406262Y-101073972D01*
X149276028Y-100943738D01*
X149122889Y-100841414D01*
X148952729Y-100770932D01*
X148772089Y-100735000D01*
X148587911Y-100735000D01*
X148407271Y-100770932D01*
X148256094Y-100833551D01*
X148252889Y-100831410D01*
X148082729Y-100760928D01*
X147902089Y-100724996D01*
X147717911Y-100724996D01*
X147537271Y-100760928D01*
X147367111Y-100831410D01*
X147213972Y-100933734D01*
X147083738Y-101063968D01*
X146981414Y-101217107D01*
X146910932Y-101387267D01*
X146875000Y-101567907D01*
X140760000Y-101567907D01*
X140760000Y-98718061D01*
X146815000Y-98718061D01*
X146815000Y-98921939D01*
X146854774Y-99121898D01*
X146932795Y-99310256D01*
X147046063Y-99479774D01*
X147190226Y-99623937D01*
X147359744Y-99737205D01*
X147548102Y-99815226D01*
X147748061Y-99855000D01*
X147951939Y-99855000D01*
X148151898Y-99815226D01*
X148340256Y-99737205D01*
X148509774Y-99623937D01*
X148653937Y-99479774D01*
X148767205Y-99310256D01*
X148845226Y-99121898D01*
X148885000Y-98921939D01*
X148885000Y-98718061D01*
X148845226Y-98518102D01*
X148824437Y-98467911D01*
X149955000Y-98467911D01*
X149955000Y-98652089D01*
X149990932Y-98832729D01*
X150061414Y-99002889D01*
X150163738Y-99156028D01*
X150293972Y-99286262D01*
X150447111Y-99388586D01*
X150617271Y-99459068D01*
X150797911Y-99495000D01*
X150901578Y-99495000D01*
X150921414Y-99542889D01*
X151023738Y-99696028D01*
X151153972Y-99826262D01*
X151307111Y-99928586D01*
X151477271Y-99999068D01*
X151657911Y-100035000D01*
X151842089Y-100035000D01*
X152022729Y-99999068D01*
X152192889Y-99928586D01*
X152346028Y-99826262D01*
X152476262Y-99696028D01*
X152578586Y-99542889D01*
X152602564Y-99485000D01*
X152702089Y-99485000D01*
X152882729Y-99449068D01*
X153052889Y-99378586D01*
X153206028Y-99276262D01*
X153336262Y-99146028D01*
X153438586Y-98992889D01*
X153509068Y-98822729D01*
X153545000Y-98642089D01*
X153545000Y-98457911D01*
X153509068Y-98277271D01*
X153438586Y-98107111D01*
X153336262Y-97953972D01*
X153206028Y-97823738D01*
X153052889Y-97721414D01*
X152882729Y-97650932D01*
X152702089Y-97615000D01*
X152517911Y-97615000D01*
X152337271Y-97650932D01*
X152167111Y-97721414D01*
X152013972Y-97823738D01*
X151883738Y-97953972D01*
X151781414Y-98107111D01*
X151757436Y-98165000D01*
X151738422Y-98165000D01*
X151718586Y-98117111D01*
X151616262Y-97963972D01*
X151486028Y-97833738D01*
X151332889Y-97731414D01*
X151162729Y-97660932D01*
X150982089Y-97625000D01*
X150797911Y-97625000D01*
X150617271Y-97660932D01*
X150447111Y-97731414D01*
X150293972Y-97833738D01*
X150163738Y-97963972D01*
X150061414Y-98117111D01*
X149990932Y-98287271D01*
X149955000Y-98467911D01*
X148824437Y-98467911D01*
X148767205Y-98329744D01*
X148653937Y-98160226D01*
X148509774Y-98016063D01*
X148340256Y-97902795D01*
X148151898Y-97824774D01*
X147951939Y-97785000D01*
X147748061Y-97785000D01*
X147548102Y-97824774D01*
X147359744Y-97902795D01*
X147190226Y-98016063D01*
X147046063Y-98160226D01*
X146932795Y-98329744D01*
X146854774Y-98518102D01*
X146815000Y-98718061D01*
X140760000Y-98718061D01*
X140760000Y-95648063D01*
X155385000Y-95648063D01*
X155385000Y-95851941D01*
X155424774Y-96051900D01*
X155502795Y-96240258D01*
X155616063Y-96409776D01*
X155760226Y-96553939D01*
X155929744Y-96667207D01*
X156118102Y-96745228D01*
X156318061Y-96785002D01*
X156521939Y-96785002D01*
X156721898Y-96745228D01*
X156910256Y-96667207D01*
X157079774Y-96553939D01*
X157223937Y-96409776D01*
X157337205Y-96240258D01*
X157415226Y-96051900D01*
X157455000Y-95851941D01*
X157455000Y-95648063D01*
X157415226Y-95448104D01*
X157337205Y-95259746D01*
X157223937Y-95090228D01*
X157079774Y-94946065D01*
X156910256Y-94832797D01*
X156721898Y-94754776D01*
X156521939Y-94715002D01*
X156318061Y-94715002D01*
X156118102Y-94754776D01*
X155929744Y-94832797D01*
X155760226Y-94946065D01*
X155616063Y-95090228D01*
X155502795Y-95259746D01*
X155424774Y-95448104D01*
X155385000Y-95648063D01*
X140760000Y-95648063D01*
X140760000Y-95411571D01*
X140928061Y-95445000D01*
X141131939Y-95445000D01*
X141331898Y-95405226D01*
X141520256Y-95327205D01*
X141689774Y-95213937D01*
X141833937Y-95069774D01*
X141947205Y-94900256D01*
X142025226Y-94711898D01*
X142065000Y-94511939D01*
X142065000Y-94308061D01*
X142025226Y-94108102D01*
X141947205Y-93919744D01*
X141833937Y-93750226D01*
X141689774Y-93606063D01*
X141520256Y-93492795D01*
X141331898Y-93414774D01*
X141131939Y-93375000D01*
X140928061Y-93375000D01*
X140760000Y-93408429D01*
X140760000Y-93310000D01*
X153094505Y-93310000D01*
X153075000Y-93408061D01*
G37*
%TD.AperFunction*%
%TD*%
M02*
